<?xml version="1.0" encoding="iso-8859-1"?>
<!-- Generator: Adobe Illustrator 19.0.0, SVG Export Plug-In . SVG Version: 6.00 Build 0)  -->
<svg version="1.1" id="Capa_1" xmlns="http://www.w3.org/2000/svg" xmlns:xlink="http://www.w3.org/1999/xlink" x="0px" y="0px"
	 viewBox="0 0 497.694 497.694" style="enable-background:new 0 0 497.694 497.694;" xml:space="preserve">
<g>
	<g>
		<g>
			<path d="M485.647,386.259h-8.282V57.224c0-17.318-14.306-31.624-32.376-31.624H51.953c-17.318,0-32.376,14.306-32.376,31.624
				v329.035h-8.282C5.271,386.259,0,391.529,0,398.306c0,40.659,33.129,73.788,73.788,73.788h350.118
				c40.659,0,73.788-33.129,73.788-73.788C496.941,391.529,491.671,386.259,485.647,386.259z M35.388,57.224
				c0-9.035,7.529-16.565,17.318-16.565h393.035c9.035,0,17.318,7.529,17.318,16.565v329.035H35.388V57.224z M423.153,456.282
				H73.788c-30.871,0-56.471-24.094-58.729-54.965h466.823C479.623,432.188,454.776,456.282,423.153,456.282z"/>
			<path d="M225.129,436.706h46.682c4.518,0,7.529-3.012,7.529-7.529s-3.012-7.529-7.529-7.529h-46.682
				c-4.518,0-7.529,3.012-7.529,7.529S221.365,436.706,225.129,436.706z"/>
			<path d="M429.929,57.224H67.012c-4.518,0-7.529,3.012-7.529,7.529v297.412c0,4.518,3.012,7.529,7.529,7.529h362.918
				c4.518,0,7.529-3.012,7.529-7.529V64.753C437.459,60.235,433.694,57.224,429.929,57.224z M422.4,354.635H74.541V72.282H422.4
				V354.635z"/>
			<path d="M94.871,332.8h82.823c4.518,0,7.529-3.012,7.529-7.529v-9.788c0-18.071-13.553-33.882-30.871-36.894
				c7.529-5.271,12.047-14.306,12.047-24.094c0-16.565-13.553-30.118-30.118-30.118s-30.118,13.553-30.118,30.118
				c0,9.788,4.518,18.824,12.047,24.094c-17.318,3.012-30.871,18.823-30.871,36.894v9.788C87.341,329.788,91.106,332.8,94.871,332.8
				z M136.282,238.682c8.282,0,15.059,6.776,15.059,15.059c0,8.282-6.776,15.059-15.059,15.059s-15.059-6.776-15.059-15.059
				S128,238.682,136.282,238.682z M101.647,315.482h0.753c0-12.8,10.541-22.588,22.588-22.588h21.835
				c12.8,0,22.588,10.541,22.588,22.588v2.259h-67.765V315.482z"/>
			<path d="M217.6,253.741c0,9.788,4.518,18.824,12.047,24.094c-17.318,3.012-30.871,18.823-30.871,36.894v9.788
				c0,4.518,3.012,7.529,7.529,7.529h82.824c4.518,0,7.529-3.012,7.529-7.529v-9.788c0-18.071-13.553-33.882-30.871-36.894
				c7.529-5.271,12.047-14.306,12.047-24.094c0-16.565-13.553-30.118-30.118-30.118S217.6,237.176,217.6,253.741z M281.6,315.482
				v2.259h-67.765v-2.259c0-12.8,10.541-22.588,22.588-22.588h21.835C271.059,292.141,281.6,302.682,281.6,315.482z
				 M247.718,238.682c8.282,0,15.059,6.776,15.059,15.059c0,8.282-6.776,15.059-15.059,15.059s-15.059-6.776-15.059-15.059
				S239.435,238.682,247.718,238.682z"/>
			<path d="M150.588,201.788h82.823c4.518,0,7.529-3.012,7.529-7.529v-9.788c0-18.071-13.553-33.882-30.871-36.894
				c7.529-5.271,12.047-14.306,12.047-24.094c0-16.565-13.553-30.118-30.118-30.118s-30.118,13.553-30.118,30.118
				c0,9.788,4.518,18.823,12.047,24.094c-17.318,3.012-30.871,18.071-30.871,36.894v9.788
				C143.059,198.776,146.824,201.788,150.588,201.788z M192,107.671c8.282,0,15.059,6.776,15.059,15.059
				c0,8.282-6.776,15.059-15.059,15.059s-15.059-6.776-15.059-15.059C176.941,114.447,183.718,107.671,192,107.671z
				 M158.118,184.471c0-12.8,10.541-22.588,22.588-22.588h22.588c12.8,0,22.588,10.541,22.588,22.588v2.259h-67.765V184.471z"/>
			<path d="M262.023,201.788h82.824c4.518,0,7.529-3.012,7.529-7.529v-9.788c0-18.071-13.553-33.882-30.871-36.894
				c7.529-5.271,12.047-14.306,12.047-24.094c0-16.565-13.553-30.118-30.118-30.118c-16.565,0-30.118,13.553-30.118,30.118
				c0,9.788,4.518,18.823,12.047,24.094c-17.318,3.012-30.871,18.824-30.871,36.894v9.788
				C254.494,198.776,258.259,201.788,262.023,201.788z M303.435,107.671c8.282,0,15.059,6.776,15.059,15.059
				c0,8.282-6.776,15.059-15.059,15.059s-15.059-6.776-15.059-15.059C288.376,114.447,295.153,107.671,303.435,107.671z
				 M268.8,184.471h0.753c0-12.8,10.541-22.588,22.588-22.588h21.835c12.8,0,22.588,10.541,22.588,22.588v2.259H268.8V184.471z"/>
			<path d="M329.035,253.741c0,9.788,4.518,18.824,12.047,24.094c-17.318,3.012-30.871,18.823-30.871,36.894v9.788
				c0,4.518,3.012,7.529,7.529,7.529h82.824c4.518,0,7.529-3.012,7.529-7.529v-9.788c0-18.071-13.553-33.882-30.871-36.894
				c7.529-5.271,12.047-14.306,12.047-24.094c0-16.565-13.553-30.118-30.118-30.118S329.035,237.176,329.035,253.741z
				 M393.035,315.482v2.259h-67.765v-2.259c0-12.8,10.541-22.588,22.588-22.588h21.835
				C382.494,292.141,393.035,302.682,393.035,315.482z M359.153,238.682c8.282,0,15.059,6.776,15.059,15.059
				c0,8.282-6.776,15.059-15.059,15.059s-15.059-6.776-15.059-15.059S350.871,238.682,359.153,238.682z"/>
		</g>
	</g>
</g>
<g>
</g>
<g>
</g>
<g>
</g>
<g>
</g>
<g>
</g>
<g>
</g>
<g>
</g>
<g>
</g>
<g>
</g>
<g>
</g>
<g>
</g>
<g>
</g>
<g>
</g>
<g>
</g>
<g>
</g>
</svg>
