<?xml version="1.0" encoding="UTF-8" standalone="no"?><svg xmlns="http://www.w3.org/2000/svg" xmlns:xlink="http://www.w3.org/1999/xlink"><symbol id="artStyle" xmlns="http://www.w3.org/2000/svg" width="32" height="32" viewBox="0 0 60 60"><g fill-rule="nonzero"><path d="M51.768 44c.318-1.686.31-3.417-.024-5.1l4.58-11.053a.17.17 0 000-.022 18.78 18.78 0 013.215-5.582c.345-.364.483-.877.369-1.365l-1.878-8.11a.979.979 0 00-.1-.242c-.008-.015-.011-.033-.019-.047-.008-.014-.043-.048-.063-.074a1.008 1.008 0 00-.141-.165.929.929 0 00-.109-.066 1.016 1.016 0 00-.155-.094.988.988 0 00-.234-.057c-.023 0-.043-.015-.066-.017a1 1 0 00-.551.123c-.015.008-.033.011-.048.02h-.01l-7.061 4.407a1.492 1.492 0 00-.706 1.23 18.77 18.77 0 01-1.681 6.233v.011l-2.289 5.533a13.414 13.414 0 00-3.572-1.29c.472-3.255.645-6.546.518-9.833a10.914 10.914 0 002.482-8.012C43.6 4.6 38.333.391 38.108.214a1 1 0 00-1.585 1.043c.515 1.934.069 3.975-3.735 8.172a5.852 5.852 0 00-1.371 6.377 7.763 7.763 0 001.424 2.3 70.05 70.05 0 00-.563 4.433 50.082 50.082 0 00-.174 7.092 13.606 13.606 0 00-2.49 1.735l-4.85-20.74c0-.021-.02-.036-.026-.055a.948.948 0 00-.07-.193l-4.954-9.149a2.309 2.309 0 00-4.338 1.016L15 12.64c0 .075.009.15.025.223v.045l4.948 21.117c-.78.034-1.555.15-2.312.345l-5.443-13.145a2.021 2.021 0 00-2.61-1.069L1.289 23.6a2.006 2.006 0 00-1.083 2.613l7.382 17.808A7.995 7.995 0 008 60h44a8 8 0 10-.232-16zm-1.019-25.884l4.192-2.616-1.484 3.584a1 1 0 001.848.766l1.484-3.584 1.111 4.813a19.78 19.78 0 00-2.9 4.787 4.113 4.113 0 01-5.59-2.312 19.754 19.754 0 001.339-5.438zm-2.3 7.851a6.091 6.091 0 002.493 1.815 6.345 6.345 0 002.447.516 5.3 5.3 0 00.606-.037l-3.191 7.7a13.572 13.572 0 00-4.294-5.309l1.939-4.685zm-13.7-7.142l5.024.307c.031.934.02 1.9-.011 2.881a21.02 21.02 0 01-5.01-.242c-.126-.018-.249-.032-.374-.049.1-.942.222-1.896.369-2.897h.002zm-.477-8.053c2.655-2.929 4.031-5.182 4.351-7.3a13.374 13.374 0 013.609 7.168 8.96 8.96 0 01-2.024 6.512c-1.975-.12-3.929-.24-5.861-.36a4.171 4.171 0 01-.077-6.02h.002zm-.076 12.943l.29.038c1.289.2 2.59.31 3.893.331.414 0 .85-.033 1.287-.067a62.884 62.884 0 01-.429 4.02c-.247-.013-.489-.037-.737-.037-1.51.003-3.008.26-4.432.763a48.264 48.264 0 01.126-5.048h.002zm-7.735 11.694L23.6 23.222a1 1 0 00-1.947.456l2.571 10.969a11.326 11.326 0 00-2.18-.543l-4.389-18.73c.615.28 1.282.425 1.958.426.063 0 .13-.009.194-.012l.707 3.019a1 1 0 101.947-.456l-.708-3.021A4.736 4.736 0 0023.5 14l4.462 19.079a13.415 13.415 0 00-1.501 2.33zm-6.11-21.7a3.32 3.32 0 01-3.339-1.337l.127-3.522c.348.065.701.098 1.055.1.342.001.683-.036 1.016-.113a5.094 5.094 0 001.854-.922l1.684 3.108a3.317 3.317 0 01-2.397 2.688v-.002zM17.612 2.027a.312.312 0 01.344.154L20.1 6.146c-.387.35-.849.606-1.35.75a3.4 3.4 0 01-1.541-.073l.163-4.506a.31.31 0 01.24-.29zM10.375 22l.764 1.846-3.7 1.532a1 1 0 00.768 1.846l3.7-1.533.765 1.848-1.851.767a1 1 0 10.766 1.848l1.851-.767.765 1.848L10.5 32.77a1 1 0 10.766 1.848l3.7-1.532.809 1.953A11.609 11.609 0 009.3 42.92L2.052 25.444 10.375 22zM52 58H8a6 6 0 111.711-11.752A1 1 0 0011 45.309 9.5 9.5 0 0126.2 37.9a1 1 0 001.533-.45A11.5 11.5 0 0150 41.5a11.394 11.394 0 01-.505 3.374 1 1 0 001.17 1.272A6.246 6.246 0 0152 46a6 6 0 110 12z"></path><path d="M38.685 15.7a1 1 0 00.8-.395 7.5 7.5 0 001.33-5.888 1 1 0 10-1.932.515 5.555 5.555 0 01-.992 4.166 1 1 0 00.8 1.6l-.006.002zM37.37 46a4.916 4.916 0 00-2.145.5 6 6 0 00-10.365 5.89 1 1 0 001.84-.784A4.074 4.074 0 0126.37 50a4 4 0 014-4 3.96 3.96 0 013.615 2.3c.022.033.045.064.07.094.016.034.033.068.053.1.018.022.044.032.064.053a.954.954 0 00.155.13c.05.038.104.072.16.1a.99.99 0 00.18.056.919.919 0 00.188.029c.13-.001.259-.023.382-.064a.755.755 0 00.079-.019.9.9 0 00.093-.069 1.04 1.04 0 00.105-.054A2.949 2.949 0 0137.37 48a3 3 0 012.72 1.745 1 1 0 001.82-.83A5 5 0 0037.37 46zM17.684 39.051C17.533 39.1 14 40.322 14 44a1 1 0 002 0 3.438 3.438 0 012.322-3.053 1.002 1.002 0 00-.638-1.9v.004zM31.757 37.97a1 1 0 001.212-.727A4.265 4.265 0 0137.005 34 1 1 0 0037 32a6.229 6.229 0 00-5.97 4.757 1 1 0 00.727 1.213z"></path></g></symbol><symbol id="difficulty" height="32" viewBox="0 0 512 512" width="32" xmlns="http://www.w3.org/2000/svg"><path d="M369.652 230.426l11.113-8.239-9.53-12.853-8.989 6.666h-39.134v16h41.776a8 8 0 004.764-1.574zM404.075 204.9a8 8 0 002.859-4l9.7-30.477-15.246-4.854-8.92 28.016-5.236 3.882 9.53 12.853zM393.756 122.606l15.248-4.848 5.088 16.003-15.248 4.848zM344 248v16h31.457a8 8 0 004.765-1.574l16.543-12.266-9.53-12.852L372.815 248zM438.022 156l-18.193 57.141-16.594 12.3 9.53 12.853 18.668-13.842a8 8 0 002.859-4l19.749-62.029a8.011 8.011 0 000-4.854l-3.821-12-15.246 4.854zM427.333 122.427l15.246-4.854-8.287-26.029a8 8 0 00-2.859-4l-18.843-13.97-9.529 12.852 16.768 12.433zM368 144h16v16h-16zM328 56h16v16h-16zM256 104h16v16h-16zM288 216h16v16h-16z"></path><path d="M492.067 225.111a8 8 0 00-7.932-.115l-21.475 11.848 24.963-78.417a8.011 8.011 0 000-4.854l-25.97-81.58a7.991 7.991 0 00-2.859-4l-68-50.42A8 8 0 00386.03 16h-84.06a8 8 0 00-4.764 1.574l-68 50.42a7.989 7.989 0 00-2.859 4l-9.384 29.481-8.135-10.4A8 8 0 00197.6 89.7l-26.737 20.909-47.1 36.92a104.207 104.207 0 00-36.887 106.476l16.183 66.4a8 8 0 0012.322 4.687l66.952-46.29 44.547.784a16.078 16.078 0 0115.593 14.153l4.58 39.51a8 8 0 009.312 6.962L272 337.505v4.531l-41.459 22.873-6.6-53.882A8 8 0 00216 304h-32a7.993 7.993 0 00-4.438 1.344l-24 16A8 8 0 00152 328v36a16.079 16.079 0 01-6.4 12.8l-22.4 16.8a8 8 0 00-3.2 6.4v25.9l-4.253 2.346-13.39-30.318 24.117-33.228a8.005 8.005 0 001.338-6.426l-3.537-16-15.623 3.454 2.76 12.486-24.706 34.037a8 8 0 00-.844 7.931L101.683 436l-81.548 45A8 8 0 0024 496h464a8 8 0 008-8V232a8 8 0 00-3.933-6.889zm-249.292-35.532l14.134-11.052 11.051 14.133-14.132 11.052-5.526-7.066zm-42.4-31.153l.025.079a35.97 35.97 0 00-6.263-2.7l7.36-5.756-1.123 3.528a8.012 8.012 0 00.003 4.849zm-13.865 54.841a20.284 20.284 0 01-24.991-31.957l8.913-6.97a20.284 20.284 0 0124.993 31.96l-8.217 6.426zm14.643-106.037l11.052 14.133-14.133 11.052-5.526-7.066-5.526-7.067zm-98.732 142.987a88.176 88.176 0 0131.207-90.092l40.794-31.979 8.959 11.457 2.087 2.668-56.083 43.858a8 8 0 00-1.374 11.23l34.848 44.561a8 8 0 0011.23 1.374l56.083-43.858 5.528 7.064 5.526 7.066-55.9 43.714-69.476 48.037zm182.73 71.662a8 8 0 00-6.516-1.762L261.973 323l-3.607-31.109a32.145 32.145 0 00-31.185-28.3l-23.423-.412 53.624-41.935 26.737-20.909a8 8 0 001.373-11.23l-20.908-26.736a8 8 0 00-11.23-1.369l-26.737 20.9-1.583 1.238L216.4 156l7.457-23.435 4.51-3.527a8 8 0 001.373-11.23l-.839-1.074 11.909-37.426L304.612 32h78.776l63.8 47.308L471.6 156l-24.41 76.692L383.388 280h-78.776l-51.847-38.443-9.53 12.852 53.971 40.017A8 8 0 00301.97 296h53.47L288 333.208V328a8 8 0 00-2.849-6.121zM136 404l19.2-14.4A32.154 32.154 0 00168 364v-31.719L186.422 320h22.5l6.523 53.24L136 417.07zm344 76H55.061L480 245.551z"></path><path d="M300.23 369.181l43.02-23.72 7.729 14.016-43.02 23.72zM356.258 338.28l16.008-8.826 7.728 14.016-16.008 8.827zM252.25 449.002l58.673-32.01 7.664 14.049-58.673 32.01zM396.258 368.977l44.006-24.008 7.664 14.048-44.006 24.008zM348.262 456.992l88.01-48.014 7.664 14.048-88.01 48.014zM212.264 417.698l16.001-8.73 7.664 14.048-16.001 8.73zM436.261 304.92l16.002-8.73 7.664 14.048-16.002 8.73zM156.255 449.723l16.001-8.73 7.664 14.048-16.001 8.73z"></path></symbol><symbol id="dashing" xmlns="http://www.w3.org/2000/svg" viewBox="0 0 512 512"><path d="M121 68.5H45c-8.291 0-15 6.709-15 15s6.709 15 15 15h76c8.291 0 15-6.709 15-15s-6.709-15-15-15zM121 188.5H45c-8.291 0-15 6.709-15 15s6.709 15 15 15h76c8.291 0 15-6.709 15-15s-6.709-15-15-15zM91 128.5H15c-8.291 0-15 6.709-15 15s6.709 15 15 15h76c8.291 0 15-6.709 15-15s-6.709-15-15-15zM482 203.5h-91v-60c0-26.346-32.229-40.218-51.22-21.202L219.789 242.289c-11.719 11.719-11.719 30.703 0 42.422l68.789 68.789-83.789 83.789c-11.719 11.719-11.719 30.703 0 42.422 11.718 11.718 30.703 11.719 42.422 0l105-105c11.719-11.719 11.719-30.703 0-42.422L283.422 263.5 331 215.922V233.5c0 16.567 13.433 30 30 30h121c16.567 0 30-13.433 30-30s-13.433-30-30-30zM280.14 51.04c-11.924-7.925-27.744-6.357-37.852 3.75l-82.5 82.5c-11.719 11.719-11.719 30.703 0 42.422s30.704 11.718 42.423-.001l65.112-65.112 21.934 15.8 29.306-29.306c4.902-4.902 10.684-8.707 17.007-11.678L280.14 51.04z"></path><path d="M198.578 305.922c-7.601-7.601-12.675-16.956-15.35-27.072L24.789 437.289c-11.719 11.719-11.719 30.703 0 42.422 11.718 11.718 30.703 11.719 42.422 0l152.578-152.578-21.211-21.211z"></path><circle cx="406" cy="68.5" r="45"></circle></symbol><symbol id="enemyHBars" xmlns="http://www.w3.org/2000/svg" viewBox="0 0 512 512"><path d="M201.185 222.816a73.613 73.613 0 01-19.683 50.799h-.004l-39.328 42.089h113.872V205.441h-56.863a75.903 75.903 0 012.006 17.375zm19.013 6.576a8.527 8.527 0 011.924-3.014 9.013 9.013 0 0114.902 3.013 7.678 7.678 0 01.733 3.478 9.143 9.143 0 01-18.286 0 9.117 9.117 0 01.727-3.477z"></path><path d="M168.136 261.133c19.685-21.783 19.685-54.931 0-76.714a47.141 47.141 0 00-69.978 0 9.142 9.142 0 01-13.362 0 47.27 47.27 0 00-34.723-15.531c-.156.009-.295.004-.455 0a47.302 47.302 0 00-34.795 15.531c-19.762 21.753-19.764 54.959-.004 76.714l76.661 82.04 23.115-24.737.074-.079 53.472-57.224h-.005zM50.328 205.441c-7.571.008-13.706 6.143-13.714 13.714 0 .926.091 1.851.272 2.759a9.141 9.141 0 01-17.92 3.626 32.023 32.023 0 0131.362-38.384 9.143 9.143 0 010 18.285zM502.899 205.441H274.328v110.263h228.571a8.656 8.656 0 009.143-8.045v-94.263a8.728 8.728 0 00-9.143-7.955zM347.47 242.012h-45.714a9.143 9.143 0 010-18.286h45.714a9.143 9.143 0 010 18.286z"></path></symbol><symbol id="fighters" height="32" viewBox="0 0 512 512" width="32" xmlns="http://www.w3.org/2000/svg"><path d="M461.325 111.527C473.449 99.713 481 83.226 481 65c0-35.841-29.159-65-65-65s-65 29.159-65 65c0 18.226 7.551 34.713 19.675 46.527A95.713 95.713 0 00336 143.813a95.7 95.7 0 00-34.676-32.286C313.449 99.713 320.999 83.226 320.999 65c0-35.841-29.158-65-65-65s-65 29.159-65 65c0 18.226 7.55 34.713 19.675 46.527a95.713 95.713 0 00-34.675 32.286 95.704 95.704 0 00-34.675-32.286C153.449 99.713 161 83.226 161 65c0-35.841-29.159-65-65-65S31 29.159 31 65c0 18.226 7.55 34.713 19.675 46.527C21.107 127.647 1 159.019 1 195v30c0 8.284 6.716 15 15 15h195v97.771l-40.779 20.594C158.365 364.353 151 376.324 151 389.606V407c0 57.897 47.103 105 105 105h150c41.355 0 75-33.645 75-75V329.625c0-23.843-18.325-43.832-41.719-45.507a45.274 45.274 0 00-27.976 7.271c-7.595-9.756-19.028-16.34-32.024-17.271a45.286 45.286 0 00-27.976 7.271c-7.595-9.756-19.028-16.34-32.024-17.271A45.173 45.173 0 00301 266.593V240h195c8.284 0 15-6.716 15-15v-30c0-35.981-20.107-67.353-49.675-83.473zM381 65c0-19.299 15.701-35 35-35s35 15.701 35 35-15.701 35-35 35-35-15.701-35-35zm-160 0c0-19.299 15.701-35 35-35 19.298 0 35 15.701 35 35s-15.701 35-35 35c-19.3 0-35-15.701-35-35zM61 65c0-19.299 15.701-35 35-35s35 15.701 35 35-15.701 35-35 35-35-15.701-35-35zM31 195c0-35.841 29.159-65 65-65s65 29.159 65 65v15H31zm160 0c0-35.841 29.159-65 65-65s65 29.159 65 65v15h-22.58c-6.192-17.459-22.865-30-42.42-30s-36.228 12.541-42.42 30H191zm114.784 103.017c3.08-2.867 7.111-4.273 11.354-3.976 7.772.557 13.861 7.402 13.861 15.584V319c0 8.284 6.716 15 15 15s15-6.716 15-15c0-4.211 1.699-8.111 4.784-10.983 3.08-2.867 7.112-4.274 11.354-3.976 7.772.557 13.861 7.402 13.861 15.584V329c0 8.284 6.716 15 15 15s15-6.716 15-15c0-4.211 1.699-8.111 4.784-10.983 3.08-2.867 7.113-4.275 11.354-3.976 7.772.557 13.861 7.402 13.861 15.584V437c0 24.813-20.187 45-45 45H256c-41.355 0-75-33.645-75-75v-17.394a4.975 4.975 0 012.746-4.463L211 371.379V397c0 8.284 6.716 15 15 15s15-6.716 15-15V225c0-8.271 6.729-15 15-15s15 6.729 15 15v84c0 8.284 6.716 15 15 15s15-6.716 15-15c0-4.211 1.699-8.111 4.784-10.983zM481 210H351v-15c0-35.841 29.159-65 65-65s65 29.159 65 65z"></path></symbol><symbol id="gangSize" height="32" viewBox="0 0 64 64" width="32" xmlns="http://www.w3.org/2000/svg"><path d="M61 36v5h-2v-5h-2v7H47v-7h-2v5h-2v-5c0-1.654 1.346-3 3-3h12c1.654 0 3 1.346 3 3zm-22 5v-5h-2v7H27v-7h-2v5h-2v-5c0-1.654 1.346-3 3-3h12c1.654 0 3 1.346 3 3v5zm-9-13v-2c0-1.103.897-2 2-2s2 .897 2 2v2c0 1.103-.897 2-2 2s-2-.897-2-2zm22-4c1.103 0 2 .897 2 2v2c0 1.103-.897 2-2 2s-2-.897-2-2v-2c0-1.103.897-2 2-2zm-42 2c0-1.103.897-2 2-2s2 .897 2 2v2c0 1.103-.897 2-2 2s-2-.897-2-2zm6 2v-2c0-.536-.11-1.045-.301-1.513l4.618-1.539a1 1 0 00.594-1.362L17.24 13.51l7.246 4.348a1 1 0 001.421-.434L32 4.364l6.094 13.059a.993.993 0 00.637.54c.282.077.582.03.824-.131l6.464-4.31-2.958 8.136a.999.999 0 00.623 1.29l4.618 1.539A3.973 3.973 0 0048 26v2c0 1.201.542 2.266 1.382 3H46c-1.641 0-3.088.806-4 2.031C41.088 31.806 39.641 31 38 31h-3.382A3.974 3.974 0 0036 28v-2c0-2.206-1.794-4-4-4s-4 1.794-4 4v2c0 1.201.542 2.266 1.382 3H26c-1.641 0-3.088.806-4 2.031C21.088 31.806 19.641 31 18 31h-3.382A3.974 3.974 0 0016 28zM6 33h12c1.654 0 3 1.346 3 3v5h-2v-5h-2v7H7v-7H5v5H3v-5c0-1.654 1.346-3 3-3zM3.184 43H5v1.816A2.997 2.997 0 013.184 43zM9 61H5v-1a1 1 0 011-1h3zm1-14a1 1 0 00-1 1v9H7V45h10v12h-2v-9a1 1 0 00-1-1zm9 14h-4v-2h3a1 1 0 011 1zm0-16.184V43h1.816A2.997 2.997 0 0119 44.816zM23.184 43H25v1.816A2.997 2.997 0 0123.184 43zM29 61h-4v-1a1 1 0 011-1h3zm1-14a1 1 0 00-1 1v9h-2V45h10v12h-2v-9a1 1 0 00-1-1zm9 14h-4v-2h3a1 1 0 011 1zm0-16.184V43h1.816A2.997 2.997 0 0139 44.816zM43.184 43H45v1.816A2.997 2.997 0 0143.184 43zM49 61h-4v-1a1 1 0 011-1h3zm1-14a1 1 0 00-1 1v9h-2V45h10v12h-2v-9a1 1 0 00-1-1zm9 14h-4v-2h3a1 1 0 011 1zm0-16.184V43h1.816A2.997 2.997 0 0159 44.816z"></path></symbol><symbol id="focus" xmlns="http://www.w3.org/2000/svg" viewBox="0 0 512 512"><path d="M495.484 239.484h-16.516C470.71 128.826 383.174 41.291 272.517 33.032V16.516C272.517 6.606 265.91 0 256 0s-16.516 6.606-16.516 16.516v16.516C128.826 41.291 41.291 128.826 33.032 239.484H16.516C6.606 239.484 0 246.09 0 256s6.606 16.516 16.516 16.516h16.516c8.258 110.659 95.794 198.194 206.452 206.452v16.516c0 9.91 6.606 16.516 16.516 16.516s16.516-6.607 16.516-16.516v-16.516c110.659-8.258 198.194-95.794 206.452-206.452h16.516c9.91 0 16.516-6.606 16.516-16.516s-8.258-16.516-16.516-16.516zm-95.793 33.033h46.245c-8.258 92.49-80.929 165.161-173.42 173.419V399.69c0-9.91-6.606-16.516-16.516-16.516s-16.516 6.606-16.516 16.516v46.245c-92.49-8.258-165.161-80.929-173.42-173.42h46.245c9.91 0 16.516-6.606 16.516-16.516s-6.606-16.516-16.516-16.516H66.065c8.258-92.49 80.929-165.161 173.42-173.42v46.245c0 9.91 6.606 16.516 16.516 16.516s16.516-6.606 16.516-16.516V66.065c92.49 8.258 165.161 80.929 173.42 173.42h-46.245c-9.91 0-16.516 6.606-16.516 16.516s6.605 16.516 16.515 16.516z"></path></symbol><symbol id="grabs" xmlns="http://www.w3.org/2000/svg" viewBox="0 0 51.3 51.3"><g><circle cx="34.1" cy="38.8" r="3.2"></circle><path d="M28.295 38.892c-.194-2.944 1.004-5.559 3.423-7.543 1.886-1.546-.804-4.204-2.673-2.674-3.425 2.81-4.914 6.885-4.454 11.117-2.202 1.32-4.474 1.756-7.067 1.562-1.132-3.314-1.6-6.848-2.581-10.207-.683-2.335-4.33-1.341-3.645 1.005 1.027 3.515 1.595 7.111 2.754 10.563a43.127 43.127 0 00-1.978-.535c-1.16-.29-2.526-.766-3.742-.766-1.16 0-2.096 1.301-2.856 2.027-1.478 1.409-2.989 2.83-4.65 4.025-1.958 1.41-.074 4.691 1.908 3.265 2.229-1.604 4.272-3.473 6.233-5.397 2.033.373 4.181.811 5.971 1.742l.006.004a4.152 4.152 0 001.808.635c4.244.488 8.489-.463 11.981-2.963 2.34-1.672 1.459-4.905-.438-5.86zM51.25 35.806c-.659-4.34-1.941-8.467-3.975-12.362a2.324 2.324 0 00-.35-.499 2.965 2.965 0 00-.152-.715c-.513-1.467-.936-2.961-1.445-4.428l-.059-.146a2.394 2.394 0 00-.087-.34c-1.665-4.866-2.479-9.884-2.522-15.024-.022-2.792-4.356-2.794-4.334 0 .037 4.459.613 8.894 1.775 13.189-.107.057-.212.12-.314.187-4.03-2.451-6.285-6.522-5.582-11.645.375-2.731-3.799-3.91-4.178-1.152-.537 3.898-.185 7.64 1.815 11.096 1.489 2.569 3.806 4.432 6.388 5.799.258.744.494 1.493.73 2.243-.576 2.315-1.809 4.206-3.469 5.905-1.951 2 1.11 5.066 3.065 3.064 1.296-1.328 2.412-2.794 3.265-4.404a3.492 3.492 0 002.264.184c1.521 3.234 2.445 6.65 2.984 10.199.422 2.755 4.595 1.582 4.181-1.151z"></path><path d="M49.383 25.561c1.39-.496 1.876-2.026 1.379-3.415-.497-1.39-2.157-2.113-3.546-1.616l.438 1.895 1.729 3.136z"></path></g></symbol><symbol id="gore" height="32" viewBox="0 0 512 512" width="32" xmlns="http://www.w3.org/2000/svg"><g><path d="M70.26 502c-26.966 0-48.826-21.86-48.826-48.826a48.826 48.826 0 0114.301-34.525l14.47-14.47c6.356-6.356 16.661-6.356 23.017 0l46.033 46.033c6.356 6.356 6.356 16.661 0 23.017l-14.47 14.47A48.822 48.822 0 0170.26 502zM221.653 354.199l-52.417-52.417c-8.739-8.739-8.739-22.908 0-31.648 8.739-8.739 22.908-8.739 31.648 0l52.417 52.417c8.739 8.739 8.739 22.908 0 31.648-8.739 8.739-22.908 8.739-31.648 0z"></path><path d="M169.572 302.052l51.78 51.78-99.191 99.19-51.78-51.78z"></path></g><path d="M490.565 10a260.313 260.313 0 00-95.32 60.648L198.322 267.572l57.541 57.541 156.269-156.269A275.972 275.972 0 00490.565 10z"></path><g><path d="M308.748 157.279v114.925c0 12.54 10.166 22.706 22.706 22.706s22.706-10.166 22.706-22.706V235.52c0-10.517 8.526-19.044 19.044-19.044 10.517 0 19.044 8.526 19.044 19.044v85.94c0 12.136 9.838 21.973 21.973 21.973s21.973-9.838 21.973-21.973V48.333L435.49 43l-46.256 34.563zM414.22 451.758c12.136 0 21.973-9.838 21.973-21.973v-22.978c0-12.136-9.838-21.973-21.973-21.973-12.136 0-21.973 9.838-21.973 21.973v22.978c0 12.135 9.838 21.973 21.973 21.973z"></path></g><path d="M414.221 374.833c-17.63 0-31.974 14.344-31.974 31.974v22.978c0 17.63 14.344 31.974 31.974 31.974s31.973-14.344 31.973-31.974v-22.978c-.001-17.63-14.343-31.974-31.973-31.974zm11.972 54.951c0 6.603-5.371 11.974-11.973 11.974-6.603 0-11.974-5.371-11.974-11.974v-22.978c0-6.603 5.371-11.974 11.974-11.974 6.602 0 11.973 5.371 11.973 11.974zM436.189 234.75c-2.63 0-5.21 1.07-7.069 2.93a10.077 10.077 0 00-2.931 7.07c0 2.64 1.07 5.21 2.931 7.07 1.859 1.87 4.439 2.93 7.069 2.93s5.21-1.06 7.07-2.93c1.86-1.86 2.93-4.43 2.93-7.07 0-2.63-1.069-5.21-2.93-7.07a10.076 10.076 0 00-7.07-2.93z"></path><path d="M496.833 2.208a10.001 10.001 0 00-9.677-1.609c-36.957 13.403-71.185 35.18-98.982 62.978L196.188 255.562c-11.467-4.178-24.838-1.683-34.023 7.5-10.273 10.273-12.185 25.789-5.738 38.015l-88.969 88.969a26.491 26.491 0 00-5.745-.634c-7.019 0-13.617 2.733-18.58 7.696l-14.47 14.47c-11.11 11.111-17.229 25.884-17.229 41.597 0 32.437 26.39 58.825 58.826 58.825 15.713 0 30.484-6.119 41.596-17.229l14.47-14.47c4.963-4.963 7.696-11.562 7.696-18.58 0-1.957-.22-3.879-.634-5.744l88.968-88.969a32.418 32.418 0 0015.121 3.73c8.291 0 16.582-3.156 22.895-9.468 9.184-9.185 11.679-22.556 7.5-34.024l36.594-36.594c5.898 8.601 15.793 14.257 26.988 14.257 18.034 0 32.706-14.672 32.706-32.706V235.52c0-4.987 4.057-9.043 9.043-9.043 4.987 0 9.044 4.057 9.044 9.043v85.94c0 17.63 14.344 31.974 31.974 31.974s31.973-14.344 31.973-31.974v-31.707c0-5.522-4.478-10-10-10s-10 4.478-10 10v31.707c0 6.603-5.371 11.974-11.973 11.974-6.603 0-11.974-5.371-11.974-11.974v-85.94c0-16.015-13.029-29.043-29.044-29.043s-29.043 13.029-29.043 29.043v36.683c0 7.006-5.7 12.706-12.706 12.706s-12.706-5.7-12.706-12.706V161.288l83.568-83.568c7.481-7.481 15.475-14.478 23.877-20.964v142.997c0 5.523 4.478 10 10 10s10-4.477 10-10v-55.049c29.121-39.038 47.876-85.081 54.285-133.389a10 10 0 00-3.645-9.107zM188.454 372.627l-37.645-37.645 18.742-18.742 37.645 37.645zm-33.018 33.018L117.79 368l18.875-18.875 37.645 37.645zm-51.788-23.503l37.645 37.645-19.16 19.16-37.646-37.645zm8.536 84.016l-14.47 14.47C90.381 487.961 80.631 492 70.261 492c-21.409 0-38.826-17.417-38.826-38.825 0-10.371 4.039-20.121 11.372-27.454l14.47-14.47c1.186-1.186 2.762-1.839 4.438-1.839s3.251.653 4.437 1.839l46.035 46.034a6.235 6.235 0 011.837 4.436 6.245 6.245 0 01-1.84 4.437zm134.045-119.03c-4.826 4.827-12.679 4.826-17.505 0l-52.417-52.418c-4.826-4.826-4.826-12.679 0-17.505 4.827-4.826 12.68-4.824 17.505 0l52.417 52.417c4.828 4.826 4.828 12.68 0 17.506zm52.519-79.043l-42.885 42.886-43.399-43.399 86.284-86.284zm147.445-159.5V42.798a252.295 252.295 0 0131.588-16.865c-5.841 29.127-16.554 57.088-31.588 82.652z"></path></symbol><symbol id="info" xmlns="http://www.w3.org/2000/svg" viewBox="0 0 512 512"><circle cx="256" cy="378.5" r="25"></circle><path d="M256 0C114.516 0 0 114.497 0 256c0 141.484 114.497 256 256 256 141.484 0 256-114.497 256-256C512 114.516 397.503 0 256 0zm0 472c-119.377 0-216-96.607-216-216 0-119.377 96.607-216 216-216 119.377 0 216 96.607 216 216 0 119.377-96.607 216-216 216z"></path><path d="M256 128.5c-44.112 0-80 35.888-80 80 0 11.046 8.954 20 20 20s20-8.954 20-20c0-22.056 17.944-40 40-40s40 17.944 40 40-17.944 40-40 40c-11.046 0-20 8.954-20 20v50c0 11.046 8.954 20 20 20s20-8.954 20-20v-32.531c34.466-8.903 60-40.26 60-77.469 0-44.112-35.888-80-80-80z"></path></symbol><symbol id="charSwitch" height="32" viewBox="0 0 64 64" width="32" xmlns="http://www.w3.org/2000/svg"><path d="M10 26h39.172l-3.586 3.586a2 2 0 102.828 2.828l7-7a2 2 0 000-2.828l-7-7a2 2 0 10-2.828 2.828L49.172 22H10a2 2 0 000 4zM54 38H14.828l3.586-3.586a2 2 0 10-2.828-2.828l-7 7a2 2 0 000 2.828l7 7c.39.391.902.586 1.414.586s1.024-.195 1.414-.586a2 2 0 000-2.828L14.828 42H54a2 2 0 000-4z"></path></symbol><symbol id="music" xmlns="http://www.w3.org/2000/svg" width="32" height="32" viewBox="0 0 433.4 433.4"><path d="M165.156 176.583c-16.007 20.073-24.81 40.457-26.128 60.599-1.475 22.705 5.003 44.281 19.273 64.099 15.118 21.119 34.22 32.572 56.759 34.047 7.574.497 14.7.288 21.276-.597 1.35 7.649 2.709 15.252 3.971 22.781 1.567 10.176 2.124 19.008 1.644 26.241-.661 9.998-3.779 18.178-9.294 24.321-5.963 6.628-13.396 9.533-22.826 8.92-4.105-.269-7.722-1.326-10.904-3.201 3.745-.862 7.145-2.469 10.119-4.785 5.761-4.469 8.989-10.965 9.521-19.28.503-7.999-1.529-14.995-6.067-20.778-4.827-6.332-11.389-9.818-19.5-10.355-8.283-.545-15.797 2.806-21.957 9.807-5.474 6.199-8.54 13.493-9.061 21.68-.797 12.227 3.847 22.67 13.85 31.026 8.771 7.321 19.272 11.421 31.22 12.202 6.792.445 13.354-.337 19.466-2.328 5.021-1.635 9.842-4.12 14.366-7.37 10.94-7.878 16.88-18.182 17.692-30.656.63-9.506.148-20.767-1.454-33.603l-4.464-28.918c11.425-3.814 21.007-10.707 28.473-20.462 7.926-10.303 12.391-22.47 13.296-36.167 1.103-16.823-2.913-32.079-11.962-45.34-9.918-14.543-23.52-22.478-40.406-23.582a44.21 44.21 0 00-6.12.046l-4.744-35.516c13.168-11.257 23.832-25.409 31.723-42.092 7.798-16.574 12.383-34.514 13.608-53.305.718-11.046-.797-24.754-4.508-40.761C266.932 11.538 259.683.67 249.817.018c-3.49-.218-7.33 1.557-12.015 5.677-11.377 10.285-19.656 22.728-24.609 36.96-3.833 10.87-6.368 25.403-7.548 43.208-.579 8.869.826 23.942 4.328 46.059-20.958 18.595-36.016 33.62-44.817 44.661zm98.299 97.458c0 11.63-5.743 31.162-13.754 35.931l-8.264-62.556c12.512 2.4 22.018 13.417 22.018 26.625zm-40.971-169.243c.739-11.339 3.589-23.646 8.478-36.562 6.196-16.16 12.071-21.043 15.895-22.293a8.343 8.343 0 013.157-.399c5.001.331 9.982 2.447 9.125 15.659-.722 11.197-5.17 23.064-13.188 35.281-6.452 9.851-13.95 18.074-22.31 24.501-1.17-4.6-1.569-10.024-1.157-16.187zm-6.285 76.542l3.266 26.908c-9.077 3.75-16.99 9.682-23.568 17.665-7.578 9.289-11.79 19.532-12.499 30.429-.735 11.305 1.797 21.664 7.514 30.741 2.974 4.837 7.063 9.137 11.76 12.643 7.7 5.727 16.575 5.294 17.985 2.177 1.429-3.106-3.845-7.991-7.993-14.515-2.36-3.688-3.506-8.123-3.506-13.337 0-11.073 6.672-20.578 16.186-24.802l8.909 69.388c-4.745.982-10.055 1.295-15.824.922-14.815-.974-28.044-7.069-39.347-18.153-11.806-11.51-17.1-24.197-16.149-38.78 1.821-27.612 19.736-54.934 53.266-81.286z"></path></symbol><symbol id="perspective" height="32" viewBox="0 0 64 64" width="32" xmlns="http://www.w3.org/2000/svg"><path d="M63 0h-4a1 1 0 00-1 1v1H6V1a1 1 0 00-1-1H1a1 1 0 00-1 1v4a1 1 0 001 1h1v52H1a1 1 0 00-1 1v4a1 1 0 001 1h4a1 1 0 001-1v-1h52v1a1 1 0 001 1h4a1 1 0 001-1v-4a1 1 0 00-1-1h-1V6h1a1 1 0 001-1V1a1 1 0 00-1-1zM2 2h2v2H2zm2 60H2v-2h2zm58 0h-2v-2h2zm-2-4h-1a1 1 0 00-1 1v1H6v-1a1 1 0 00-1-1H4V6h1a1 1 0 001-1V4h52v1a1 1 0 001 1h1zm2-54h-2V2h2z"></path><path d="M51.999 10.986h-4a1 1 0 00-1 1v1H26.003v-1a1 1 0 00-1-1h-4a1 1 0 00-1 1v3.586l-4.416 4.414h-3.586a1 1 0 00-1 1v4a1 1 0 001 1h1.001v21.027h-1.001a1 1 0 00-1 1v4a1 1 0 001 1h4a1 1 0 001-1v-1.029h20.996v1.029a1 1 0 001 1h4a1 1 0 001-1v-3.615l4.384-4.385h3.618a1 1 0 001-1v-4a1 1 0 00-1-1h-1.001V16.986h1.001a1 1 0 001-1v-4a1 1 0 00-1-1zm-5 4v.586l-4.416 4.414h-3.586a1 1 0 00-1 1v1.002H17.001V21.4l4.416-4.414h3.586a1 1 0 001-1v-1zm-7.002 9v-2h2v2zm-17.994-11h2v.99l-.002.01.002.01v.99h-2zm-9.002 9h2v2h-2zm2 29.028h-2v-2h2zm2-2.03v-.971a1 1 0 00-1-1h-.999V25.986h.999a1 1 0 001-1v-.998h20.996v.998a1 1 0 001 1h1v21.027h-1a1 1 0 00-1 1v.971zm24.996 2.03h-2V49.99l.001-.005-.001-.005v-.966h2zm9.002-9h-2v-2h2zm-2.001-4h-.999a1 1 0 00-1 1v3.554l-4.445 4.446h-.557V25.986h1a1 1 0 001-1V21.4l4.416-4.414h.585zm2.001-23.028h-2v-2h2z"></path></symbol><symbol id="lives" viewBox="0 -28 512 512" xmlns="http://www.w3.org/2000/svg"><path d="M471.383 44.578C444.879 15.832 408.512 0 368.973 0c-29.555 0-56.621 9.344-80.45 27.77C276.5 37.07 265.605 48.45 256 61.73c-9.602-13.277-20.5-24.66-32.527-33.96C199.648 9.344 172.582 0 143.027 0c-39.539 0-75.91 15.832-102.414 44.578C14.426 72.988 0 111.801 0 153.871c0 43.3 16.137 82.938 50.781 124.742 30.992 37.395 75.535 75.356 127.117 119.313 17.614 15.012 37.579 32.027 58.309 50.152A30.023 30.023 0 00256 455.516c7.285 0 14.316-2.641 19.785-7.43 20.73-18.129 40.707-35.152 58.328-50.172 51.575-43.95 96.117-81.906 127.11-119.305C495.867 236.81 512 197.172 512 153.867c0-42.066-14.426-80.879-40.617-109.289zm0 0"></path></symbol><symbol id="players" height="32" viewBox="0 0 64 64" width="32" xmlns="http://www.w3.org/2000/svg"><path d="M60 41.005c-.011 0-.019.006-.029.006H58V39.92c2.386-1.385 3.997-3.959 4-6.908v-3.006-2c0-4.409-3.589-7.996-8-7.996s-8 3.587-8 7.996V33.012c.003 2.949 1.614 5.523 4 6.908v1.091h-1.971c-.011 0-.019-.006-.029-.006a4.003 4.003 0 00-3.998 3.978l-.002.011V49.011a1 1 0 001 1h18a1 1 0 001-1v-4.006c0-2.206-1.794-4-4-4zM54 22.01c3.168 0 5.764 2.468 5.979 5.581l-.246-.244a.984.984 0 00-1.128-.255c-.021.009-2.204.933-4.668.933-2.446 0-4.499-.924-4.52-.934a.992.992 0 00-1.139.236l-.257.259A6 6 0 0154 22.01zm-6 10.995v-2.563l1.26-1.266c.911.33 2.65.848 4.677.848 2.05 0 3.867-.524 4.799-.849L60 30.428v2.577c0 3.307-2.691 5.997-6 5.997s-6-2.69-6-5.997zm6 7.997c.691 0 1.359-.098 2-.264v1.258c0 .408-.779 1.002-2 1.002s-2-.594-2-1.002v-1.258a7.959 7.959 0 002 .264zm-6.02 2.005c.007 0 .013.004.02.004h2.243c.545 1.167 1.993 1.987 3.757 1.987s3.212-.82 3.757-1.987H60c.007 0 .013-.004.02-.004A2 2 0 0162 45.004v3.006H46v-3.006a2 2 0 011.98-1.997zM1 49.997h18a1 1 0 001-1v-4.004c0-2.206-1.794-4-4-4-.011 0-.019.006-.029.006H14v-1.091c2.386-1.384 3.998-3.959 4-6.909v-4.501a8.458 8.458 0 00-2.219-5.706c-.023-.03-.049-.056-.076-.083a8.471 8.471 0 00-6.206-2.711c-4.687 0-8.499 3.813-8.499 8.5v.496c0 .043.02.079.024.12a.944.944 0 00.039.193c.021.063.049.117.08.173a.945.945 0 00.104.154c.042.05.09.091.142.132.049.038.097.073.152.103a.987.987 0 00.19.071c.039.011.07.034.111.041.056.009.103.011.158.019v2.999c.002 2.95 1.614 5.525 4 6.909v1.091H4.029c-.011 0-.019-.006-.029-.006-2.206 0-4 1.794-4 4v4.004a1 1 0 001 1zm14.169-24.67c.331.591.573 1.236.708 1.922-.457-.347-.889-.567-1.312-.694zm-5.67-3.329c1.641 0 3.136.615 4.281 1.621l-1.482 3.017a14.76 14.76 0 00-1.242.444c-1.66.657-3.918 1.525-8.036 1.032.201-3.404 3.025-6.114 6.479-6.114zM4 32.994v-2.777c3.88.256 6.191-.645 7.792-1.277 1.884-.746 2.446-.961 4.208 1.275v2.779c0 3.307-2.691 5.996-6 5.996s-6-2.689-6-5.996zm6 7.996c.691 0 1.359-.098 2-.263v1.269c0 .408-.779 1.002-2 1.002s-2-.594-2-1.002v-1.269a7.959 7.959 0 002 .263zm-6.02 2.005c.007 0 .013.004.02.004h2.238c.54 1.173 1.992 1.999 3.762 1.999s3.222-.826 3.762-1.999H16c.007 0 .013-.004.02-.004A2 2 0 0118 44.993v3.004H2v-3.004c0-1.096.887-1.987 1.98-1.998z"></path><path d="M39 49.997h-2v-2.354c2.984-1.731 5-4.954 5-8.645v-6.002a5.009 5.009 0 00-4-4.899v-3.101a1 1 0 00-1-1h-6c-4.963 0-9 4.037-9 9v6.051c0 .006.003.011.003.017.024 3.663 2.031 6.858 4.997 8.58v2.353h-2c-3.309 0-6 2.691-6 6v4c0 1.103.897 2 2 2h22c1.103 0 2-.897 2-2v-4c0-3.309-2.691-6-6-6zm-8-24h5v3a1 1 0 001 1c1.654 0 3 1.346 3 3v1.144l-1.44-.973c-.042-.028-.09-.034-.134-.056-.055-.026-.106-.052-.165-.067a.898.898 0 00-.206-.029c-.059-.003-.114-.007-.174 0a.955.955 0 00-.202.053c-.04.014-.081.013-.12.031-.019.01-1.881.897-5.059.897-3.277 0-6.156-.939-6.186-.949-.021-.007-.042-.002-.063-.008a.881.881 0 00-.199-.024c-.064-.003-.126-.009-.188 0-.06.009-.115.03-.174.049a1.007 1.007 0 00-.189.079c-.02.011-.041.012-.06.024L24 34.141v-1.144c0-3.859 3.141-7 7-7zm-7 13.002v-2.444l2.166-1.463c1.013.289 3.505.905 6.334.905 2.659 0 4.513-.548 5.383-.872L40 36.555v2.444c0 4.41-3.589 7.998-8.001 7.998-4.411 0-7.999-3.588-7.999-7.998zm7.999 9.998A9.96 9.96 0 0035 48.536v2.458c0 1.086-1.374 2.004-3 2.004s-3-.918-3-2.004v-2.458a9.943 9.943 0 002.999.461zm-6.999 3h2.179c.56 1.721 2.499 3.001 4.821 3.001s4.262-1.28 4.821-3.001H39c2.206 0 4 1.794 4 4v4H21.005L21 59.996v-3.999c0-2.206 1.794-4 4-4zM26 13.012v1h-1a1 1 0 100 2h1v1a1 1 0 102 0v-1h1a1 1 0 100-2h-1v-1a1 1 0 10-2 0zM35.063 16.009a1 1 0 100-2h-.011c-.552 0-.994.447-.994 1s.453 1 1.005 1zM37.063 14.009a1 1 0 100-2h-.011c-.552 0-.994.447-.994 1s.453 1 1.005 1zM37.065 16.011h-.011c-.552 0-.994.447-.994 1s.452 1 1.005 1a1 1 0 100-2zM39.065 16.011a1 1 0 100-2h-.011c-.552 0-.994.447-.994 1s.453 1 1.005 1z"></path><path d="M36.98 6l-.01.002h-2.989c-1.654 0-3 1.346-3 3v.01H27c-3.309 0-6 2.691-6 6s2.691 6 6 6c2.032 0 3.9-1.029 5-2.691a5.998 5.998 0 005 2.691c3.309 0 6-2.691 6-6s-2.691-6-6-6h-4.019v-.01a1 1 0 011-1h2.999c.007 0 .013-.004.02-.004a3 3 0 002.979-2.996 3 3 0 00-2.988-2.997l-.01-.002h-9.996a1 1 0 100 2h9.991l.005.001A.998.998 0 1136.98 6zM41 15.012c0 2.206-1.794 4-4 4a4 4 0 01-3.662-2.401 1.001 1.001 0 00-.916-.599h-.844a1 1 0 00-.916.599A4 4 0 0127 19.012c-2.206 0-4-1.794-4-4s1.794-4 4-4h10c2.206 0 4 1.794 4 4z"></path></symbol><symbol id="platform" xmlns="http://www.w3.org/2000/svg" viewBox="0 0 321.1 321.1"><path d="M320.973 200.981c-.8-18.4-4-38.8-8.8-58-4.8-18.4-10.8-35.6-18-48.8-28-49.2-58.4-41.6-94.8-32-11.6 2.8-24 6-36.8 7.2h-4c-12.8-1.2-25.2-4.4-36.8-7.2-36.4-9.2-66.8-17.2-94.8 32.4-7.2 13.2-13.6 30.4-18 48.8-4.8 19.2-8 39.6-8.8 58-.8 20.4 1.2 35.2 5.6 45.6 4.4 9.6 10.8 15.6 19.2 18 7.6 2 16.4 1.2 25.6-2.8 15.6-6.4 33.6-20 51.2-36.4 12.4-12 35.6-18 58.8-18s46.4 6 58.8 18c17.6 16.4 35.6 30 51.2 36.4 9.2 3.6 18 4.8 25.6 2.8 8-2.4 14.8-8 19.2-18.4 4.4-10 6.4-24.8 5.6-45.6zm-19.2 40c-2.4 5.6-5.6 8.8-9.6 10-4.4 1.2-10 .4-16.4-2-14-5.6-30.4-18-46.4-33.2-15.2-15.2-42-22.8-68.8-22.8s-53.6 7.6-69.2 22c-16.4 15.2-32.8 28-46.4 33.2-6.4 2.4-12 3.6-16.4 2-4-1.2-7.2-4.4-9.6-10-3.2-7.6-4.8-20-4-38.4.8-17.2 3.6-36.8 8.4-55.2 4.4-17.2 10-33.2 16.8-45.2 22-39.6 47.6-33.2 78-25.2 12.4 3.2 25.2 6.4 39.2 7.6h6c14.4-1.2 27.2-4.4 39.6-7.6 30.4-7.6 56-14.4 78 25.2 6.8 12 12.4 27.6 16.8 45.2 4.4 18.4 7.6 37.6 8.4 55.2.8 18.4-.8 30.8-4.4 39.2z"></path><path d="M123.773 122.981c-4-3.6-8.8-6.4-14.4-6.8-.4-5.2-2.8-10.4-6.4-14l-.4-.4c-4.4-4.4-10-6.8-16.4-6.8-6.4 0-12.4 2.8-16.4 6.8-3.6 3.6-6.4 8.8-6.8 14.4-5.6.4-10.4 2.8-14.4 6.4l-.4.4c-4.4 4.4-6.8 10-6.8 16.4 0 6.4 2.8 12.4 6.8 16.4 4 4 8.8 6.4 14.8 6.8.4 5.6 2.8 10.8 6.8 14.4 4.4 4.4 10 6.8 16.4 6.8 6.4 0 12.4-2.8 16.4-6.8 3.6-4 6.4-8.8 6.8-14.4 5.6-.4 10.8-2.8 14.4-6.8 4.4-4.4 6.8-10 6.8-16.4 0-6.4-2.8-12.4-6.8-16.4zm-10 22.4c-1.6 1.6-3.6 2.4-6 2.4h-5.6c-4 0-7.6 3.2-7.6 7.6v5.2c0 2.4-.8 4.4-2.4 6-1.6 1.6-3.6 2.4-6 2.4s-4.4-.8-6-2.4c-1.6-1.6-2.4-3.6-2.4-6v-5.6c0-4-3.2-7.6-7.6-7.6h-5.6c-2.4 0-4.4-.8-6-2.4-1.2-1.2-2.4-3.2-2.4-5.6 0-2.4.8-4.4 2.4-6l.4-.4c1.6-1.2 3.6-2 5.6-2h5.6c4 0 7.6-3.2 7.6-7.6v-5.6c0-2.4.8-4.4 2.4-6 1.6-1.6 3.6-2.4 6-2.4s4.4.8 6 2.4l.4.4c1.2 1.6 2 3.6 2 5.6v5.6c0 4 3.2 7.6 7.6 7.6h5.6c2.4 0 4.4.8 6 2.4 1.6 1.6 2.4 3.6 2.4 6s-.8 4.4-2.4 6z"></path><circle cx="230.2" cy="111" r="14"></circle><circle cx="230.2" cy="167.8" r="14"></circle><circle cx="201.8" cy="139.4" r="14"></circle><circle cx="258.6" cy="139.4" r="14"></circle></symbol><symbol id="releaseYear" xmlns="http://www.w3.org/2000/svg" viewBox="0 0 512 512"><path d="M452 40h-24V0h-40v40H124V0H84v40H60C26.916 40 0 66.916 0 100v352c0 33.084 26.916 60 60 60h392c33.084 0 60-26.916 60-60V100c0-33.084-26.916-60-60-60zm20 412c0 11.028-8.972 20-20 20H60c-11.028 0-20-8.972-20-20V188h432v264zm0-304H40v-48c0-11.028 8.972-20 20-20h24v40h40V80h264v40h40V80h24c11.028 0 20 8.972 20 20v48z"></path><path d="M76 230h40v40H76zm80 0h40v40h-40zm80 0h40v40h-40zm80 0h40v40h-40zm80 0h40v40h-40zM76 310h40v40H76zm80 0h40v40h-40zm80 0h40v40h-40zm80 0h40v40h-40zM76 390h40v40H76zm80 0h40v40h-40zm80 0h40v40h-40zm80 0h40v40h-40zm80-80h40v40h-40z"></path></symbol><symbol id="playtime" height="32" viewBox="0 0 384 384" width="32" xmlns="http://www.w3.org/2000/svg"><path d="M343.594 101.04c-7.953 3.847-11.281 13.417-7.434 21.366C346.672 144.121 352 167.527 352 192c0 88.223-71.777 160-160 160S32 280.223 32 192 103.777 32 192 32c36.559 0 70.902 11.938 99.328 34.52 6.895 5.503 16.977 4.351 22.48-2.567 5.504-6.914 4.352-16.984-2.57-22.48C277.586 14.727 235.238 0 192 0 86.137 0 0 86.137 0 192s86.137 192 192 192 192-86.137 192-192c0-29.336-6.406-57.45-19.04-83.527-3.839-7.97-13.44-11.29-21.366-7.434zm0 0"></path><path d="M192 64c-8.832 0-16 7.168-16 16v112c0 8.832 7.168 16 16 16h80c8.832 0 16-7.168 16-16s-7.168-16-16-16h-64V80c0-8.832-7.168-16-16-16zm0 0"></path></symbol><symbol id="revive" height="32" viewBox="0 0 512 512" width="32" xmlns="http://www.w3.org/2000/svg"><path d="M137.172 76.8a8.528 8.528 0 006.683-3.226 56.512 56.512 0 0143.88-22.375c4.71 0 8.53-3.82 8.53-8.531a8.533 8.533 0 00-8.53-8.535 73.45 73.45 0 00-57.243 28.828 8.53 8.53 0 00-1.004 9.016 8.536 8.536 0 007.684 4.824zm0 0M115.277 147.629c.813 3.027 3.223 5.363 6.274 6.086s6.25-.285 8.336-2.625a8.535 8.535 0 001.656-8.582A72.772 72.772 0 01128 120.535c0-5.504.57-10.992 1.707-16.375.664-3-.336-6.12-2.613-8.176a8.533 8.533 0 00-14.086 4.66 96.386 96.386 0 00-2.074 19.891 89.531 89.531 0 004.343 27.094zm0 0M290.133 67.285a8.545 8.545 0 006.129-2.558 34.55 34.55 0 0128.004-13.528 8.533 8.533 0 100-17.066 50.928 50.928 0 00-40.258 18.672 8.538 8.538 0 00-1.742 9.273 8.535 8.535 0 007.867 5.207zm0 0M264.535 370.465l2.5 2.504a8.534 8.534 0 0012.067-12.067l-17.067-17.066a8.539 8.539 0 00-12.086 0l-17.066 17.066a8.53 8.53 0 00.105 11.961c3.29 3.293 8.614 3.336 11.961.106l2.52-2.504v47.668a8.533 8.533 0 1017.066 0zm0 0M128 512a8.533 8.533 0 008.535-8.531v-73.27l2.5 2.5a8.534 8.534 0 0012.067-12.066l-17.067-17.067a8.539 8.539 0 00-12.086 0l-17.066 17.067a8.534 8.534 0 0012.066 12.066l2.52-2.5v73.27c0 4.71 3.82 8.531 8.531 8.531zm0 0M384 512a8.533 8.533 0 008.535-8.531v-73.27l2.5 2.5a8.534 8.534 0 0012.067-12.066l-17.067-17.067a8.539 8.539 0 00-12.086 0l-17.066 17.067a8.534 8.534 0 0012.066 12.066l2.52-2.5v73.27c0 4.71 3.82 8.531 8.531 8.531zm0 0"></path><path d="M34.133 418.133c18.851 0 34.133-15.281 34.133-34.133v-25.598H76.8c19.73 0 42.668-16.043 42.668-36.695v-5.973c23.683-.507 42.629-19.832 42.664-43.52v-11.948a464.752 464.752 0 0090.453 54.726c2.176.95 4.652.95 6.828 0a464.752 464.752 0 0090.453-54.726v11.949c.031 23.691 18.98 43.02 42.668 43.52v5.972c0 20.684 22.938 36.695 42.664 36.695h8.535V384c0 18.852 15.282 34.133 34.133 34.133C496.72 418.133 512 402.852 512 384V162.133c0-65.29-37.922-108.153-96.965-110.668A108.536 108.536 0 00324.265 0 86.944 86.944 0 00256 32.742 86.944 86.944 0 00187.734 0a108.536 108.536 0 00-90.77 51.465C37.923 53.98 0 96.844 0 162.133V384c0 18.852 15.281 34.133 34.133 34.133zM424.66 69.343c43.727 6.313 70.274 40.739 70.274 92.79V384c0 9.426-7.641 17.066-17.067 17.066s-17.066-7.64-17.066-17.066V170.668a8.534 8.534 0 10-17.067 0v170.664H435.2c-11.281 0-25.597-9.258-25.597-19.625v-74.238a8.534 8.534 0 10-17.067 0v51.113c-14.242-.46-25.562-12.117-25.601-26.367v-26.149a237.008 237.008 0 0050.175-60.234c.434-.785.856-1.578 1.313-2.363.898-1.707 1.707-3.364 2.562-5.063a167.553 167.553 0 001.938-4.062c.64-1.414 1.27-2.832 1.875-4.266.762-1.8 1.453-3.61 2.125-5.418.418-1.117.855-2.219 1.246-3.344 1.023-2.988 1.965-5.976 2.766-8.968.128-.48.214-.965.332-1.434a134.7 134.7 0 001.765-7.945c.18-.973.324-1.946.489-2.93.375-2.3.69-4.613.93-6.937.1-.954.214-1.91.288-2.875.266-3.223.438-6.457.438-9.692a129.8 129.8 0 00-.66-12.879c-.102-1.023-.297-2.031-.426-3.047-.39-3.242-.852-6.457-1.477-9.617-.23-1.14-.543-2.27-.851-3.41-.684-3.004-1.426-5.977-2.313-8.887-.367-1.183-.793-2.351-1.187-3.53-.953-2.81-1.961-5.583-3.098-8.294-.144-.496-.289-1.023-.504-1.527zM187.734 17.067c27.938 0 44.86 13.653 61.66 34.211a8.842 8.842 0 0013.211 0c16.801-20.558 33.723-34.21 61.66-34.21 34.555.746 65.825 20.652 81.122 51.644.98 1.852 1.89 3.738 2.754 5.64a122.153 122.153 0 011.785 4.07c.562 1.376 1.047 2.68 1.535 4.028a112.796 112.796 0 011.57 4.711c.367 1.195.766 2.371 1.09 3.582a112.711 112.711 0 011.914 8.14c.18.95.305 1.907.469 2.852.363 2.172.668 4.371.914 6.59.102.953.203 1.918.289 2.883.246 3.07.426 6.18.426 9.328 0 2.79-.145 5.547-.367 8.293-.067.777-.168 1.563-.246 2.34a104.42 104.42 0 01-.801 6.059 117.986 117.986 0 01-1.8 8.71c-.138.528-.259 1.067-.403 1.598C392.617 229.898 277.426 287.691 256 297.813a436.448 436.448 0 01-110.078-74.563l-.567-.54a251.781 251.781 0 01-5.816-5.92c-.258-.274-.531-.536-.785-.81a234.408 234.408 0 01-5.727-6.265l-.488-.547a233.976 233.976 0 01-5.7-6.766l-.179-.214a156.124 156.124 0 01-26.75-46.641l-.12-.395c-.852-2.457-1.58-4.949-2.255-7.464-.168-.641-.316-1.282-.476-1.91a118.725 118.725 0 01-1.332-6.122c-.153-.851-.297-1.644-.434-2.472a102.165 102.165 0 01-.785-5.973c-.086-.805-.188-1.606-.258-2.41-.223-2.738-.367-5.492-.367-8.285 0-3.149.18-6.246.43-9.325.082-.964.187-1.93.289-2.894.238-2.219.546-4.402.914-6.578.16-.95.289-1.903.468-2.852a108.138 108.138 0 011.91-8.14c.325-1.211.727-2.399 1.102-3.594.484-1.578.996-3.14 1.55-4.676.497-1.371 1.009-2.738 1.563-4.086s1.13-2.629 1.707-3.933c1-2.176 2.059-4.329 3.192-6.446 15.41-30.605 46.465-50.199 80.726-50.926zM17.066 162.133c0-52.051 26.547-86.477 70.282-92.79-.215.477-.352.989-.555 1.477-1.152 2.746-2.176 5.563-3.14 8.422-.391 1.14-.852 2.27-1.16 3.414-.895 2.926-1.638 5.922-2.329 8.95-.258 1.124-.574 2.234-.805 3.37-.629 3.157-1.082 6.376-1.476 9.626-.125 1.015-.324 2.015-.426 3.039-.418 4.265-.656 8.53-.656 12.875 0 3.234.172 6.468.433 9.695.079.965.188 1.918.293 2.875.239 2.32.555 4.633.93 6.937.16.98.305 1.954.484 2.926.508 2.653 1.098 5.301 1.766 7.946.121.468.207.957.336 1.433a119.18 119.18 0 002.762 8.969c.386 1.129.855 2.226 1.246 3.348a142.528 142.528 0 002.125 5.417 188.244 188.244 0 001.879 4.266c.64 1.418 1.27 2.715 1.937 4.063a379.72 379.72 0 002.559 5.058c.418.785.855 1.578 1.316 2.363a236.893 236.893 0 0050.2 60.254v26.149c-.024 14.258-11.348 25.933-25.598 26.39V247.47a8.536 8.536 0 00-17.07 0v74.238c0 10.402-14.317 19.625-25.598 19.625h-8.535V170.668a8.533 8.533 0 10-17.067 0V384c0 9.426-7.64 17.066-17.066 17.066-9.426 0-17.067-7.64-17.067-17.066zm0 0M256 443.734a8.532 8.532 0 00-8.531 8.532v17.066a8.533 8.533 0 1017.066 0v-17.066c0-4.711-3.82-8.532-8.535-8.532zm0 0"></path></symbol><symbol id="series" height="32" viewBox="0 0 496 496" width="32" xmlns="http://www.w3.org/2000/svg"><path d="M328 344h-24a8 8 0 000 16h24a8 8 0 000-16zm0 0M376 344h-24a8 8 0 000 16h24a8 8 0 000-16zm0 0M424 344h-24a8 8 0 000 16h24a8 8 0 000-16zm0 0"></path><path d="M456 0H40C17.918.027.027 17.918 0 40v416c.027 22.082 17.918 39.973 40 40h416c22.082-.027 39.973-17.918 40-40V40c-.027-22.082-17.918-39.973-40-40zm24 456c0 13.254-10.746 24-24 24H40c-13.254 0-24-10.746-24-24V40c0-13.254 10.746-24 24-24h416c13.254 0 24 10.746 24 24zm0 0"></path><path d="M456 240H256V40a8 8 0 00-16 0v200H40a8 8 0 000 16h200v200a8 8 0 0016 0V256h200a8 8 0 000-16zm0 0"></path><path d="M108.055 127.258L128 107.313V200a8 8 0 0016 0V88c0-3.234-1.95-6.152-4.938-7.39s-6.43-.551-8.718 1.734l-33.602 33.601a8 8 0 0011.313 11.313zm0 0M176 324c-1.184-20.95-19.043-37.023-40-36-20.957-1.023-38.816 15.05-40 36a8 8 0 0016 0c1.215-12.09 11.887-20.984 24-20 12.113-.984 22.785 7.91 24 20-1.215 12.09-11.887 20.984-24 20a8 8 0 000 16c12.113-.984 22.785 7.91 24 20-1.215 12.09-11.887 20.984-24 20-12.113.984-22.785-7.91-24-20a8 8 0 00-16 0c1.184 20.95 19.043 37.023 40 36 20.957 1.023 38.816-15.05 40-36a34.738 34.738 0 00-14.887-28A34.738 34.738 0 00176 324zm0 0M326.398 129.602a8 8 0 008-8C334.398 107.46 345.863 96 360 96a22.399 22.399 0 0120 11.336 24.93 24.93 0 01-.352 24.984 226.933 226.933 0 01-41.671 45.711c-6.047 5.602-11.938 11.016-17.235 16.313-2.285 2.289-2.969 5.73-1.73 8.719s4.152 4.937 7.386 4.937H392a8 8 0 000-16h-45.602l2.403-2.207a237.694 237.694 0 0044.59-49.328 40.945 40.945 0 00.48-41.05A38.446 38.446 0 00360 80c-22.965.023-41.578 18.633-41.602 41.602a8 8 0 008 8zm0 0"></path></symbol><symbol id="structure" xmlns="http://www.w3.org/2000/svg" viewBox="0 0 414.4 414.4"><path d="M397.6 249.2h-32.8v-42.4c0-4.8-3.2-8-8-8H215.2v-34.4H248c9.6 0 16.8-7.2 16.8-16.8V66.8c0-9.6-7.2-16.8-16.8-16.8h-81.6c-9.6 0-16.8 7.2-16.8 16.8v81.6c0 9.6 7.2 16.8 16.8 16.8h32.8v33.6H57.6c-4.8 0-8 3.2-8 8v42.4H16.8C7.2 249.2 0 256.4 0 266v81.6c0 9.6 7.2 16.8 16.8 16.8h81.6c9.6 0 16.8-7.2 16.8-16.8V266c0-9.6-7.2-16.8-16.8-16.8H65.6v-34.4h133.6v34.4h-32.8c-9.6 0-16.8 7.2-16.8 16.8v81.6c0 9.6 7.2 16.8 16.8 16.8H248c9.6 0 16.8-7.2 16.8-16.8V266c0-9.6-7.2-16.8-16.8-16.8h-32.8v-34.4h133.6v34.4H316c-9.6 0-16.8 7.2-16.8 16.8v81.6c0 9.6 7.2 16.8 16.8 16.8h81.6c9.6 0 16.8-7.2 16.8-16.8V266c0-9.6-8-16.8-16.8-16.8zM99.2 266c-.8-.8 0-.8 0 0v81.6c0 .8 0 .8-.8.8H16.8c-.8 0-.8 0-.8-.8V266c0-.8 0-.8.8-.8l82.4.8zm149.6 0c-.8-.8 0-.8 0 0v81.6c0 .8 0 .8-.8.8h-81.6c-.8 0-.8 0-.8-.8V266c0-.8 0-.8.8-.8l82.4.8zm-83.2-118.4c.8.8 0 .8 0 0V66.8c0-.8 0-.8.8-.8H248c.8 0 .8 0 .8.8v81.6c0 .8 0 .8-.8.8l-82.4-1.6zm232.8 199.2c0 .8-.8.8 0 0l-82.4.8c-.8 0-.8 0-.8-.8V266c0-.8 0-.8.8-.8h81.6c.8 0 .8 0 .8.8v80.8z"></path></symbol><symbol id="restore" height="32" viewBox="0 0 512 512" width="32" xmlns="http://www.w3.org/2000/svg"><path d="M148.957 227.023c-35.154 17.144-63.47 46.165-79.73 81.717-2.297 5.022-.088 10.956 4.935 13.253a9.958 9.958 0 004.153.909c3.792 0 7.42-2.169 9.1-5.843 14.338-31.35 39.308-56.941 70.309-72.059 4.964-2.421 7.026-8.407 4.605-13.372-2.421-4.964-8.408-7.027-13.372-4.605z"></path><path d="M512 346.833a97.073 97.073 0 00-24.619-64.645l-11.232-12.609a339.33 339.33 0 00-7.747-8.376 132.801 132.801 0 00-4.768-28.552l-8.244-29.172a32.638 32.638 0 01-.211-16.951l3.144-12.289c2.877-11.246.036-22.969-7.023-31.623l17.257-29.889c1.069-1.851 3.074-2.955 4.995-2.759 14.603 1.524 28.701-6.367 35.065-19.64 7.532-15.708 2.183-34.711-12.442-44.204-6.866-4.456-14.823-6.302-22.646-5.463-3.183-7.194-8.762-13.163-16.054-16.88-15.534-7.919-34.665-3.051-44.502 11.326-8.313 12.148-8.103 28.298.522 40.188 1.133 1.562 1.177 3.854.108 5.705l-17.256 29.889c-11.024-1.786-22.597 1.615-30.898 9.729l-9.07 8.867a32.653 32.653 0 01-14.786 8.292l-29.387 7.447c-12.723 3.224-24.834 8.334-35.964 15.03a340.286 340.286 0 00-53.347-4.239c-59.538 0-115.513 23.186-157.612 65.285S0 319.378 0 378.916c0 17.497 6.951 33.392 18.221 45.102H10a10 10 0 00-7.08 17.062l47.875 48a9.998 9.998 0 007.08 2.938h396.292c2.658 0 5.207-1.059 7.083-2.941l47.833-48A10 10 0 00502 424.018h-28.204C497.004 406.241 512 378.257 512 346.833zM429.685 63.551c-3.675-5.066-3.758-11.958-.206-17.149 4.109-6.005 12.417-8.114 18.912-4.803 4.658 2.375 7.679 6.901 8.082 12.108a9.997 9.997 0 0014.288 8.248c4.709-2.254 10.139-1.901 14.526.945 6.116 3.969 8.442 12.219 5.296 18.78-2.72 5.672-8.729 9.047-14.954 8.396-9.797-1.025-19.366 3.943-24.393 12.65l-16.092 27.871-20.312-11.727 16.091-27.872c5.029-8.704 4.543-19.479-1.238-27.447zM317.121 164.613l29.387-7.447a52.68 52.68 0 0023.853-13.378l9.07-8.868a15.905 15.905 0 0111.125-4.514c2.72 0 5.457.693 7.92 2.116l1.258.726 31.773 18.344c6.138 3.547 9.198 10.82 7.441 17.69l-3.144 12.289a52.673 52.673 0 00.341 27.348l8.244 29.172c8.312 29.414 4.314 61.464-10.969 87.935-14.417 24.97-37.694 42.832-65.545 50.295-27.85 7.461-56.941 3.632-81.911-10.784-51.547-29.761-69.272-95.91-39.511-147.457 15.283-26.472 41.04-45.959 70.668-53.467zm-16.12 259.405c-5.523 0-10 4.477-10 10s4.477 10 10 10h176.917l-27.903 28H62.025l-27.927-28H211c5.523 0 10-4.477 10-10s-4.477-10-10-10H65.102C40.233 424.018 20 403.785 20 378.915c0-111.878 91.02-202.897 202.898-202.897 10.173 0 20.382.509 30.538 1.484-9.495 8.903-17.727 19.187-24.304 30.578-17.088 29.597-21.627 64.077-12.782 97.087 8.845 33.011 30.017 60.602 59.613 77.689 20.1 11.604 42.063 17.116 63.758 17.116 44.25 0 87.349-22.95 111.02-63.948 8.336-14.438 13.811-30.29 16.314-46.587l5.393 6.054A77.102 77.102 0 01492 346.833c0 42.56-34.625 77.185-77.185 77.185z"></path><path d="M256 424.018c-2.63 0-5.21 1.07-7.07 2.93s-2.93 4.44-2.93 7.07 1.07 5.21 2.93 7.07 4.44 2.93 7.07 2.93 5.21-1.07 7.07-2.93 2.93-4.44 2.93-7.07-1.07-5.21-2.93-7.07a10.071 10.071 0 00-7.07-2.93z"></path></symbol><symbol id="weapons" height="32" viewBox="0 0 511 512" width="32" xmlns="http://www.w3.org/2000/svg"><path d="M447.738 74.66c-.648 0-1.3-.062-1.949-.191a10.182 10.182 0 01-3.602-1.488 10.343 10.343 0 01-1.519-1.25 10.061 10.061 0 01-2.93-7.063c0-.66.07-1.309.2-1.957a10.182 10.182 0 011.488-3.602 9.717 9.717 0 011.242-1.52c.46-.46.977-.878 1.52-1.241a10.182 10.182 0 013.601-1.489 9.835 9.835 0 013.91 0c.637.13 1.258.32 1.867.57.602.25 1.18.56 1.723.919a9.901 9.901 0 011.52 1.242c.457.46.879.969 1.25 1.52a10.182 10.182 0 011.488 3.6 10.015 10.015 0 01-2.742 9.02 9.586 9.586 0 01-1.52 1.25 10.074 10.074 0 01-3.59 1.489 9.982 9.982 0 01-1.957.191zm0 0M65.18 74.66c-.66 0-1.313-.062-1.961-.191a10.049 10.049 0 01-3.59-1.489 9.586 9.586 0 01-1.52-1.25 9.511 9.511 0 01-1.25-1.52 10.278 10.278 0 01-.922-1.722c-.25-.597-.437-1.23-.57-1.87a9.978 9.978 0 01-.187-1.958c0-.652.058-1.3.187-1.95.133-.64.32-1.273.57-1.87.25-.602.563-1.18.922-1.73a9.985 9.985 0 012.77-2.762 10.049 10.049 0 013.59-1.488 9.835 9.835 0 013.91 0c.64.128 1.27.32 1.871.57.598.25 1.18.558 1.727.918.543.37 1.062.78 1.523 1.242.457.469.879.98 1.238 1.52.36.55.672 1.128.922 1.73.25.597.438 1.23.567 1.87.132.65.203 1.298.203 1.95 0 .66-.07 1.309-.203 1.957a9.95 9.95 0 01-.567 1.871c-.25.602-.562 1.18-.922 1.723a9.877 9.877 0 01-1.238 1.52c-.46.468-.98.878-1.523 1.25-.547.359-1.13.667-1.727.917-.602.25-1.23.442-1.871.57-.652.13-1.3.192-1.95.192zm0 0"></path><path d="M504.21 399.797l-9.237-9.238c-5.301-5.305-12.352-8.227-19.852-8.227-4.758 0-9.332 1.176-13.394 3.387l-39.2-39.203 12.055-12.055c10.977-10.98 10.977-28.848 0-39.824l-9.121-9.125c-5.316-5.32-12.39-8.25-19.91-8.25-7.524 0-14.594 2.93-19.91 8.25l-8.317 8.316-30.68-33.09L509.122 113.16a10.001 10.001 0 003.274-7.601l-1.88-93.883a9.997 9.997 0 00-9.796-9.797L406.855.004c-2.93-.074-5.664 1.137-7.601 3.273l-142.84 157.32L113.664 3.282A10.009 10.009 0 00106.06.004L12.195 1.879a9.997 9.997 0 00-9.797 9.797L.523 105.559a9.99 9.99 0 003.278 7.601L165.89 260.3l-30.375 33.45-8.293-8.293c-5.301-5.305-12.352-8.227-19.856-8.227-7.5 0-14.55 2.922-19.855 8.227l-9.235 9.234c-10.945 10.95-10.945 28.762 0 39.707l12.114 12.114-39.2 39.207a27.926 27.926 0 00-13.39-3.387c-7.504 0-14.555 2.922-19.86 8.227l-9.234 9.234c-10.945 10.95-10.945 28.762 0 39.707l64.262 64.273C78.273 509.078 85.324 512 92.824 512c7.504 0 14.555-2.922 19.856-8.227l9.238-9.238c8.984-8.984 10.594-22.597 4.824-33.242l39.203-39.211 12.106 12.11c5.304 5.304 12.355 8.226 19.855 8.226 7.504 0 14.555-2.922 19.856-8.227l9.238-9.238c10.941-10.945 10.941-28.758 0-39.703l-8.3-8.305 37.273-33.855 38.164 33.933-8.16 8.165c-10.977 10.98-10.977 28.847 0 39.824l9.12 9.125c5.317 5.32 12.387 8.25 19.91 8.25 7.52 0 14.595-2.93 19.911-8.25l12.05-12.055 39.204 39.211c-5.77 10.645-4.16 24.258 4.828 33.246l9.23 9.234c5.305 5.305 12.356 8.227 19.86 8.227 7.5 0 14.55-2.922 19.855-8.227l64.262-64.273c10.95-10.945 10.95-28.758.004-39.703zM363.173 307.98l-20.293 20.297-33.598-33.605 22.559-20.488zM20.609 101.41l1.594-79.726 79.707-1.594 140.996 155.383-25.129 27.68L100.652 86.007c-3.902-3.906-10.234-3.906-14.14 0-3.907 3.902-3.907 10.234 0 14.14l117.804 117.829-24.98 27.515zm390.395-81.32l79.71 1.594 1.595 79.726-287.766 261.38-20.363-20.368 242.226-242.274c3.903-3.906 3.903-10.238 0-14.144-3.906-3.902-10.238-3.902-14.144.004l-242.227 242.27-20.363-20.368zm-303.23 460.305l-9.235 9.238A8.025 8.025 0 0192.824 492a8.016 8.016 0 01-5.71-2.367l-64.262-64.274c-3.149-3.148-3.149-8.273 0-11.425l9.234-9.235a8.025 8.025 0 015.715-2.367c2.156 0 4.183.84 5.71 2.367l1.415 1.41c0 .004.004.008.008.008l61.414 61.43.011.008 1.414 1.418c3.149 3.148 3.149 8.273 0 11.422zm5.644-34.063l-47.273-47.281 38.386-38.395 47.274 47.285zm99.437-35.52l-9.234 9.239a8.04 8.04 0 01-5.715 2.367 8.016 8.016 0 01-5.71-2.367l-99.778-99.793c-3.148-3.149-3.148-8.274 0-11.422l9.238-9.238c1.524-1.524 3.555-2.368 5.711-2.368s4.188.84 5.715 2.368l99.773 99.793c3.149 3.148 3.149 8.273 0 11.421zm58.008-81.246l23.594-21.433 34.281 34.289-20.433 20.437zm49.914 90.43a8.102 8.102 0 01-5.77 2.39 8.093 8.093 0 01-5.765-2.39l-9.12-9.121c-3.185-3.184-3.185-8.363 0-11.543l99.66-99.68a8.093 8.093 0 015.765-2.39c2.18 0 4.23.847 5.77 2.39l9.12 9.121c3.184 3.184 3.184 8.36 0 11.543zm87.61-59.34l38.386 38.395-47.277 47.281-38.383-38.39zm81.68 64.703l-64.262 64.274A8.025 8.025 0 01420.09 492a8.022 8.022 0 01-5.711-2.367l-9.234-9.235c-3.149-3.152-3.149-8.273-.004-11.425l1.418-1.414c0-.004.004-.008.007-.012l62.836-62.848c1.528-1.523 3.559-2.367 5.715-2.367s4.188.84 5.715 2.367l9.23 9.238c3.153 3.149 3.153 8.274.004 11.422zm0 0"></path></symbol><symbol id="variety" xmlns="http://www.w3.org/2000/svg" viewBox="0 0 480 480"><path d="M316.211 123.858l-69.281-120a8.321 8.321 0 00-13.86 0l-69.281 120a8 8 0 006.929 12h138.563a8 8 0 006.93-12zm-131.637-4l55.426-96 55.426 96H184.574zM472.004 335.858H344a7.998 7.998 0 00-8 7.996v128.004a7.998 7.998 0 007.996 8H472a7.998 7.998 0 008-7.996V343.858a7.998 7.998 0 00-7.996-8zm-8.004 128H352v-112h112v112zM72 335.858c-39.765 0-72 32.235-72 72 0 39.764 32.235 72 72 72s72-32.236 72-72c-.045-39.746-32.254-71.955-72-72zm0 128c-30.928 0-56-25.072-56-56s25.072-56 56-56 56 25.072 56 56c-.036 30.913-25.087 55.964-56 56zM163.336 88.538l-6.672-14.547C62.627 117.189 16.991 224.92 51.383 322.522l15.086-5.328c-31.635-89.798 10.353-188.91 96.867-228.656zM309 426.491a183.109 183.109 0 01-69 13.367 182.728 182.728 0 01-73.648-15.328l-6.406 14.656a200.624 200.624 0 00155.055 2.133L309 426.491zM336.908 80.869l.002-.003a188.803 188.803 0 00-5.254-2.813l-7.312 14.234c1.609.828 3.204 1.682 4.785 2.562l3.891-6.992-3.883 6.992c58.511 32.463 94.824 94.095 94.863 161.008a184.156 184.156 0 01-7.949 53.672l15.305 4.656c27.431-90.311-11.918-187.517-94.448-233.316z"></path></symbol></svg>