<svg xmlns="http://www.w3.org/2000/svg" xml:space="preserve" style="enable-background:new 0 0 512 512" viewBox="0 0 466.69 466.69"><path fill="currentColor" d="M466.69 278.734c-.018 5.024-4.072 9.079-9.097 9.079H195.336l44.744 113.298c1.49 3.794.287 8.133-2.976 10.58a9.04 9.04 0 0 1-11.003-.048L3.546 240.539A9.085 9.085 0 0 1 0 233.349a9.086 9.086 0 0 1 3.546-7.202L226.102 55.045a9.093 9.093 0 0 1 5.544-1.889c1.912 0 3.842.611 5.458 1.835a9.07 9.07 0 0 1 2.976 10.586l-44.756 113.292 262.27-.006c5.024.006 9.079 4.066 9.079 9.079l.017 90.792z" data-original="#000000"/></svg>