<svg xmlns="http://www.w3.org/2000/svg" version="1.1" xmlns:xlink="http://www.w3.org/1999/xlink" xmlns:svgjs="http://svgjs.com/svgjs" x="0" y="0" viewBox="0 0 512 512" style="enable-background:new 0 0 512 512" xml:space="preserve"><g><g xmlns="http://www.w3.org/2000/svg"><g><g fill="#f6e266"><path d="m142.05 86.061-2.372.875c-8.367 3.084-17.694-.837-21.344-8.973l-11.226-25.027c-4.021-8.965.391-19.46 9.61-22.858l5.895-2.173c9.219-3.398 19.387 1.722 22.147 11.152l7.704 26.326c2.503 8.557-2.047 17.593-10.414 20.678z" fill="#f6e266" data-original="#f6e266"></path><path d="m89.983 123.428-1.617 1.944c-5.704 6.855-15.742 8.122-22.971 2.901l-22.236-16.061c-7.965-5.753-9.391-17.048-3.107-24.6l4.019-4.829c6.284-7.552 17.651-8.202 24.755-1.416l19.835 18.947c6.449 6.158 7.026 16.259 1.322 23.114z" fill="#f6e266" data-original="#f6e266"></path><path d="m61.399 180.826-.429 2.492c-1.512 8.788-9.572 14.905-18.443 13.997l-27.288-2.791c-9.774-1-16.657-10.069-14.991-19.751l1.066-6.192c1.666-9.683 11.185-15.929 20.731-13.604l26.651 6.491c8.665 2.111 14.215 10.569 12.703 19.358z" fill="#f6e266" data-original="#f6e266"></path></g></g><g><path d="m418.252 417.187v.01l-13.022 37.427-8.354.855-18.842 1.926-87.772-87.782 4.997-15.772 3.348-10.6 31.863-13.825v-.011z" fill="#ffddce" data-original="#ffddce"></path><path d="m396.876 455.479-18.842 1.926-87.772-87.782 4.997-15.772z" fill="#ffcbbe" data-original="#ffcbbe"></path><path d="m233.221 351.345-41.886 41.875c-5.55 5.55-12.829 8.325-20.107 8.325s-14.546-2.775-20.096-8.325l-60.082-60.082c-11.1-11.1-11.1-29.103 0-40.203 5.55-5.55 12.829-8.336 20.107-8.336 7.267 0 14.546 2.787 20.107 8.336l39.964 39.964 21.779-21.768 33.082 11.025z" fill="#ffddce" data-original="#ffddce"></path><path d="m173.528 319.195h30.792v19.252h-30.792z" fill="#ffcbbe" transform="matrix(.707 -.707 .707 .707 -177.152 229.806)" data-original="#ffcbbe"></path><path d="m340.23 194.01 71.669 71.669 51.564-51.564c11.103-11.103 29.106-11.103 40.209 0 11.103 11.103 11.103 29.106 0 40.209l-71.669 71.669c-11.103 11.103-29.106 11.103-40.209 0" fill="#ffddce" data-original="#ffddce"></path><path d="m448.488 309.502-16.491 16.491c-11.1 11.1-29.103 11.1-40.203 0l-66.531-66.531 14.967-65.451 11.737 11.737-6.824 40.635 63.131 63.119c11.1 11.112 29.103 11.112 40.214 0z" fill="#ffcbbe" data-original="#ffcbbe"></path><path d="m315.738 138.063-9.483 34.893-30.72 5.321-23.405-23.405-51.565 51.564c-11.1 11.1-29.103 11.1-40.214 0-5.55-5.55-8.325-12.829-8.325-20.107 0-7.267 2.775-14.546 8.325-20.107l71.672-71.672c11.111-11.1 29.103-11.1 40.214 0z" fill="#ffddce" data-original="#ffddce"></path><path d="m286.519 108.848c-11.123-11.02-29.046-10.986-40.123.08l-71.672 71.672c-5.55 5.561-8.325 12.84-8.325 20.107 0 3.947.819 7.904 2.468 11.578-3.094-1.365-5.982-3.321-8.518-5.846-5.55-5.55-8.325-12.828-8.325-20.107 0-7.267 2.775-14.546 8.325-20.107l71.671-71.672c11.111-11.1 29.103-11.1 40.214 0z" fill="#ffcbbe" data-original="#ffcbbe"></path><path d="m364.005 186.326-40.214 40.214-48.267-48.278 40.215-40.203z" fill="#e7a561" data-original="#e7a561"></path><path d="m354.383 287.464-55.776 55.787-22.941-13.103-23.074-78.608 88.313-88.313 13.477 13.488c30.594 30.582 30.594 80.168.001 110.749z" fill="#e7a561" data-original="#e7a561"></path><path d="m313.248 215.998-48.107 48.106-13.363-11.748 48.914-48.914z" fill="#e4936b" data-original="#e4936b"></path><path d="m291.372 293.188-58.15 58.149-40.202-40.203 58.149-58.16z" fill="#9dc6fb" data-original="#9dc6fb"></path><path d="m205.858 378.697-14.523 14.523c-5.55 5.561-12.828 8.336-20.096 8.336-7.279 0-14.557-2.775-20.107-8.336l-60.082-60.071c-11.1-11.1-11.1-29.103 0-40.214 2.604-2.604 5.595-4.595 8.78-5.971-4.515 10.395-2.525 22.939 5.971 31.434l60.083 60.083c5.55 5.55 12.829 8.325 20.107 8.325 7.164 0 14.352-2.695 19.867-8.109z" fill="#ffcbbe" data-original="#ffcbbe"></path><path d="m187.481 278.518h84.264v19.252h-84.264z" fill="#80b4fb" transform="matrix(.707 -.707 .707 .707 -136.503 246.817)" data-original="#80b4fb"></path><path d="m330.471 329.422-40.214 40.203-36.859-36.86c-22.211-22.211-22.211-58.217 0-80.417z" fill="#9dc6fb" data-original="#9dc6fb"></path><path d="m300.641 359.241-10.383 10.384-36.859-36.86c-22.2-22.2-22.2-58.206 0-80.417l11.748 11.748c-12.601 21.756-9.587 50.063 9.03 68.669z" fill="#80b4fb" data-original="#80b4fb"></path><path d="m449.659 69.45v13.687h-114.218v-13.687h-10.099c-31.537 0-57.114-25.566-57.114-57.114h124.316c31.549 0 57.115 25.577 57.115 57.114z" fill="#26457d" data-original="#26457d"></path><path d="m386.881 69.45v13.682h-51.439v-13.682h-10.099c-31.537 0-57.114-25.566-57.114-57.114h51.439c0 31.548 25.577 57.114 57.114 57.114z" fill="#21386b" data-original="#21386b"></path><path d="m449.659 100.157v54.26c0 15.763-6.391 30.047-16.729 40.374-10.327 10.338-24.611 16.73-40.385 16.73-31.537 0-57.103-25.566-57.103-57.103v-54.26l51.439-17.025z" fill="#ffddce" data-original="#ffddce"></path><path d="m410.753 208.551c-5.721 1.922-11.839 2.968-18.208 2.968-31.537 0-57.103-25.566-57.103-57.103v-54.26l51.439-17.025 20.005 5.425-35.039 11.6v54.26c-.001 25.18 16.296 46.55 38.906 54.135z" fill="#ffcbbe" data-original="#ffcbbe"></path><path d="m333.109 100.156h118.876c8.479 0 15.353-6.874 15.353-15.353 0-8.479-6.874-15.353-15.353-15.353h-118.876c-8.479 0-15.353 6.874-15.353 15.353 0 8.479 6.874 15.353 15.353 15.353z" fill="#dd636e" data-original="#dd636e"></path><path d="m367.751 95.664c2.775 2.775 6.608 4.492 10.85 4.492h-45.491c-4.242 0-8.075-1.717-10.85-4.492-2.786-2.775-4.504-6.619-4.504-10.861 0-8.484 6.881-15.353 15.353-15.353h45.491c-8.473 0-15.353 6.869-15.353 15.353.001 4.242 1.718 8.087 4.504 10.861z" fill="#da4a54" data-original="#da4a54"></path><g><path d="m385.63 390.574c5.761-5.761 15.1-5.761 20.861 0l33.784 33.784-20.861 20.861-33.784-33.784c-5.76-5.761-5.76-15.1 0-20.861z" fill="#f9f6f6" data-original="#f9f6f6"></path><path d="m391.026 387.141c-1.898 5.211-.756 11.275 3.434 15.464l33.784 33.784-8.83 8.83-33.784-33.784c-5.766-5.766-5.758-15.102 0-20.86 1.585-1.585 3.426-2.735 5.396-3.434z" fill="#dddaec" data-original="#dddaec"></path><path d="m484.57 436.235-59.224 59.224c-6.304 6.304-16.769 5.398-21.896-1.896l-25.414-36.159 47.642-47.642c14.178-14.178 37.164-14.178 51.341 0l7.55 7.55c5.226 5.225 5.226 13.697.001 18.923z" fill="#f9f6f6" data-original="#f9f6f6"></path><path d="m442.467 478.338-17.121 17.121c-6.305 6.305-16.767 5.396-21.89-1.898l-25.412-36.156 17.113-17.113 25.412 36.156c5.122 7.294 15.593 8.195 21.898 1.89z" fill="#dddaec" data-original="#dddaec"></path><g fill="#9dc6fb"><path d="m439.734 432.623c-3.352 0-6.439-2.199-7.418-5.58l-6.12-21.14c-1.187-4.099 1.174-8.383 5.273-9.57 4.103-1.186 8.384 1.174 9.57 5.273l6.12 21.14c1.187 4.099-1.174 8.383-5.273 9.57-.717.208-1.44.307-2.152.307z" fill="#9dc6fb" data-original="#9dc6fb"></path><path d="m422.239 450.117c-3.352 0-6.439-2.199-7.418-5.581l-6.119-21.14c-1.186-4.099 1.174-8.383 5.274-9.569 4.098-1.186 8.383 1.175 9.569 5.274l6.119 21.14c1.186 4.099-1.174 8.383-5.274 9.569-.716.208-1.439.307-2.151.307z" fill="#9dc6fb" data-original="#9dc6fb"></path></g></g><g><path d="m123.67 359.764c-5.761 5.761-15.1 5.761-20.861 0l-33.784-33.784 20.861-20.861 33.784 33.784c5.76 5.761 5.76 15.101 0 20.861z" fill="#f9f6f6" data-original="#f9f6f6"></path><path d="m118.274 363.198c1.898-5.211.756-11.275-3.434-15.464l-33.784-33.784 8.83-8.83 33.784 33.784c5.766 5.766 5.758 15.102 0 20.86-1.585 1.584-3.426 2.734-5.396 3.434z" fill="#dddaec" data-original="#dddaec"></path><path d="m24.731 314.103 59.224-59.224c6.304-6.304 16.769-5.398 21.896 1.896l25.414 36.159-47.642 47.642c-14.178 14.178-37.164 14.178-51.341 0l-7.55-7.55c-5.227-5.224-5.227-13.697-.001-18.923z" fill="#f9f6f6" data-original="#f9f6f6"></path><path d="m66.833 272 17.121-17.121c6.305-6.305 16.767-5.396 21.89 1.898l25.412 36.156-17.113 17.113-25.412-36.156c-5.122-7.294-15.593-8.195-21.898-1.89z" fill="#dddaec" data-original="#dddaec"></path><g fill="#9dc6fb"><path d="m75.677 354.312c-3.352 0-6.439-2.199-7.418-5.58l-6.119-21.14c-1.186-4.099 1.174-8.383 5.274-9.569 4.098-1.187 8.383 1.175 9.569 5.274l6.119 21.14c1.186 4.099-1.174 8.383-5.274 9.569-.716.207-1.44.306-2.151.306z" fill="#9dc6fb" data-original="#9dc6fb"></path><path d="m93.171 336.818c-3.352 0-6.439-2.199-7.418-5.58l-6.119-21.139c-1.186-4.099 1.174-8.384 5.274-9.57 4.099-1.185 8.383 1.175 9.569 5.274l6.119 21.139c1.186 4.099-1.174 8.384-5.274 9.57-.716.207-1.44.306-2.151.306z" fill="#9dc6fb" data-original="#9dc6fb"></path></g></g></g></g></g></svg>