<svg xmlns="http://www.w3.org/2000/svg" version="1.1" xmlns:xlink="http://www.w3.org/1999/xlink" xmlns:svgjs="http://svgjs.com/svgjs" x="0" y="0" viewBox="0 0 512 512.001" style="enable-background:new 0 0 512 512" xml:space="preserve" class=""><g><path xmlns="http://www.w3.org/2000/svg" d="m512 256c0 141.386719-114.613281 256-256 256-141.382812 0-256-114.613281-256-256s114.617188-256 256-256c141.386719 0 256 114.613281 256 256zm0 0" fill="#eedb00" data-original="#eedb00" class=""></path><path xmlns="http://www.w3.org/2000/svg" d="m14.808594 501.496094c3.15625-2.277344 6.746094-4.941406 10.742187-7.941406 8.019531-5.984376 17.625-13.375 28.53125-21.972657 10.914063-8.585937 23.066407-18.433593 36.171875-29.328125 5.816406-4.832031 11.816406-9.878906 17.972656-15.117187 4.445313-3.78125 10.933594-3.898438 15.539063-.3125 37.683594 29.292969 83.738281 45.175781 132.234375 45.175781 48.523438 0 94.59375-15.898438 132.289062-45.21875 4.609376-3.585938 11.097657-3.472656 15.542969.3125 6.15625 5.234375 12.152344 10.277344 17.960938 15.113281 13.105469 10.894531 25.253906 20.746094 36.164062 29.339844 10.894531 8.601563 20.5 15.996094 28.511719 21.984375 3.996094 3.003906 7.582031 5.667969 10.738281 7.953125 3.128907 2.304687 5.832031 4.230469 8.023438 5.785156l.132812.09375c1.316407.941407 2.941407-.683593 2.003907-2.003906l-.09375-.128906c-1.558594-2.195313-3.484376-4.894531-5.789063-8.027344-2.28125-3.152344-4.945313-6.738281-7.949219-10.734375-5.988281-8.015625-13.386718-17.617188-21.988281-28.515625-8.589844-10.910156-18.445313-23.054687-29.339844-36.160156-4.832031-5.8125-9.875-11.808594-15.109375-17.960938-3.792968-4.453125-3.890625-10.945312-.300781-15.5625 1.964844-2.53125 3.871094-5.09375 5.714844-7.699219 3.257812-4.59375 9.199219-6.410156 14.464843-4.398437.050782.019531.101563.039063.15625.058594 9.953126 3.816406 18.703126 7.015625 25.984376 9.527343 3.628906 1.265626 6.886718 2.375 9.742187 3.296876 2.84375.949218 5.285156 1.710937 7.265625 2.328124l.117188.035157c1.484374.464843 2.558593-1.417969 1.40625-2.460938l-.089844-.082031c-1.539063-1.394531-3.4375-3.109375-5.699219-5.074219-2.242187-1.992187-4.851563-4.234375-7.789063-6.71875-5.859374-4.996093-13.0625-10.90625-21.40625-17.542969-.027343-.019531-.050781-.039062-.074218-.058593-4.417969-3.519531-5.863282-9.578125-3.542969-14.730469 12.417969-27.535156 18.953125-57.640625 18.953125-88.75 0-48.523438-15.898438-94.59375-45.21875-132.289062-3.585938-4.609376-3.472656-11.097657.3125-15.542969 5.238281-6.152344 10.28125-12.148438 15.113281-17.960938 10.894531-13.105469 20.75-25.253906 29.339844-36.160156 8.601563-10.898437 15.996094-20.503906 21.984375-28.515625 3.007812-3.996094 5.671875-7.582031 7.953125-10.734375 2.304687-3.132813 4.230469-5.832031 5.789063-8.027344l.089843-.128906c.941407-1.320313-.683593-2.945313-2.003906-2.003906l-.128906.089843c-2.191407 1.558594-4.894531 3.484376-8.027344 5.789063-3.152344 2.28125-6.738281 4.945313-10.734375 7.953125-8.011719 5.984375-17.617188 13.382812-28.515625 21.984375-10.910156 8.589844-23.054687 18.445313-36.160156 29.339844-5.8125 4.832031-11.808594 9.875-17.960938 15.113281-4.453125 3.785156-10.945312 3.890625-15.558593.300781-2.683594-2.085937-5.40625-4.101562-8.171876-6.050781-4.53125-3.195312-6.375-9.019531-4.5-14.242188 1.804688-5.019531 3.484376-9.820312 5.039063-14.363281 1.6875-4.925781 3.230469-9.554687 4.597656-13.867187 1.375-4.304688 2.660157-8.25 3.726563-11.863282 1.101562-3.59375 2.0625-6.816406 2.851562-9.644531.820313-2.808593 1.472656-5.222656 1.996094-7.183593l.03125-.117188c.402344-1.496094-1.5-2.5-2.507812-1.320312l-.078126.089843c-1.320312 1.542969-2.941406 3.445313-4.796874 5.710938-1.882813 2.253906-3.996094 4.867187-6.335938 7.808593-2.378906 2.921876-4.90625 6.210938-7.679688 9.78125-2.78125 3.566407-5.726562 7.457032-8.835937 11.636719-2.671875 3.589844-5.46875 7.394531-8.359375 11.398438-3.363281 4.648437-9.496094 6.351562-14.777344 4.109375-26.363281-11.203125-54.964844-17.089844-84.472656-17.089844-22.3125 0-44.105469 3.367188-64.804688 9.851562-5.375 1.683594-11.210937-.480468-14.171874-5.273437-.226563-.367187-.453126-.734375-.679688-1.101563-5.636719-9.113281-10.6875-17-14.980469-23.4375-2.136719-3.222656-4.0625-6.09375-5.785156-8.570312-1.695313-2.488281-3.183594-4.585938-4.394531-6.285156l-.074219-.101563c-.90625-1.273437-2.910156-.425781-2.625 1.113281l.023437.121094c.378907 2.054688.855469 4.582032 1.464844 7.527344.582032 2.964844 1.308594 6.34375 2.140625 10.117188 1.644531 7.5625 3.808594 16.675781 6.441407 27.0625.105468.417968.214843.839843.320312 1.265624 1.386719 5.449219-1.097656 11.148438-6.035156 13.84375-10.136719 5.523438-19.859375 11.886719-29.082032 19.050782-4.601562 3.582031-11.085937 3.460937-15.527343-.320313-6.160157-5.238281-12.160157-10.28125-17.976563-15.117187-13.105468-10.894532-25.257812-20.742188-36.171875-29.328125-10.902343-8.597657-20.511719-15.988281-28.527343-21.972657-4-3-7.585938-5.664062-10.746094-7.941406-3.132813-2.304687-5.835938-4.226562-8.03125-5.78125l-.128906-.09375c-1.328126-.941406-2.960938.6875-2.019532 2.015625l.09375.132813c1.554688 2.195312 3.480469 4.898437 5.78125 8.03125 2.28125 3.15625 4.945313 6.746094 7.945313 10.742187 5.980469 8.019531 13.375 17.625 21.96875 28.53125 8.585937 10.910157 18.433593 23.0625 29.328125 36.171875 4.835937 5.816406 9.878906 11.8125 15.117187 17.972656 3.789063 4.453126 3.886719 10.941407.300781 15.558594-1.941406 2.496094-3.820312 5.03125-5.640624 7.601563-3.261719 4.59375-9.199219 6.40625-14.460938 4.402343-.054688-.023437-.109375-.042968-.164062-.0625-9.960938-3.8125-18.714844-7.003906-25.996094-9.507812-3.636719-1.261719-6.890625-2.371094-9.75-3.289062-2.84375-.945313-5.289063-1.707032-7.273438-2.320313l-.117187-.035156c-1.492188-.464844-2.570313 1.425781-1.414063 2.476562l.09375.082031c1.535156 1.398438 3.429688 3.113282 5.691406 5.082032 2.242188 1.996094 4.851563 4.238281 7.785157 6.726562 5.855469 5.003906 13.054687 10.917969 21.394531 17.5625.027344.019532.054688.042969.082031.0625 4.414063 3.523438 5.859375 9.578125 3.539063 14.726563-12.402344 27.523437-18.933594 57.613281-18.933594 88.707031 0 48.496094 15.882812 94.550781 45.175781 132.234375 3.585938 4.609375 3.46875 11.09375-.3125 15.539063-5.238281 6.15625-10.28125 12.15625-15.117187 17.972656-10.894532 13.109375-20.742188 25.261718-29.328125 36.171875-8.59375 10.90625-15.988281 20.511719-21.96875 28.53125-3 4-5.664063 7.585937-7.945313 10.742187-2.300781 3.132813-4.226562 5.835938-5.78125 8.03125l-.09375.132813c-.941406 1.328125.691406 2.957031 2.019532 2.015625l.128906-.09375c2.195312-1.554688 4.898437-3.476563 8.03125-5.78125zm0 0" fill="#8049bf" data-original="#8049bf"></path><path xmlns="http://www.w3.org/2000/svg" d="m80 256c0-97.046875 78.953125-176 176-176s176 78.953125 176 176-78.953125 176-176 176-176-78.953125-176-176zm0 0" fill="#8c5ac5" data-original="#8c5ac5"></path><path xmlns="http://www.w3.org/2000/svg" d="m341.359375 233.023438v-38.257813h-218.566406v128.976563c0 27.226562 18.0625 50.226562 42.855469 57.699218v114.136719c28.097656 10.605469 58.542968 16.421875 90.351562 16.421875 29.933594 0 58.660156-5.15625 85.359375-14.597656zm0 0" fill="#f9b7aa" data-original="#f9b7aa"></path><path xmlns="http://www.w3.org/2000/svg" d="m328.15625 279.339844c-16.203125 0-29.339844-13.132813-29.339844-29.335938v-81.492187c0-16.203125 13.136719-29.335938 29.339844-29.335938s29.335938 13.136719 29.335938 29.335938v81.492187c0 16.203125-13.136719 29.335938-29.335938 29.335938zm0 0" fill="#ffcbbe" data-original="#ffcbbe"></path><path xmlns="http://www.w3.org/2000/svg" d="m318.816406 250.003906v-81.492187c0-12.691407 8.058594-23.496094 19.339844-27.585938-3.121094-1.132812-6.488281-1.75-10-1.75-16.203125 0-29.339844 13.132813-29.339844 29.335938v81.492187c0 16.203125 13.136719 29.335938 29.339844 29.335938 3.511719 0 6.878906-.617188 10-1.75-11.28125-4.089844-19.339844-14.894532-19.339844-27.585938zm0 0" fill="#f9b7aa" data-original="#f9b7aa"></path><path xmlns="http://www.w3.org/2000/svg" d="m152.128906 279.339844c-16.203125 0-29.335937-13.132813-29.335937-29.335938v-69.597656c0-16.203125 13.136719-29.335938 29.335937-29.335938 16.203125 0 29.339844 13.132813 29.339844 29.335938v69.597656c0 16.203125-13.136719 29.335938-29.339844 29.335938zm0 0" fill="#ffcbbe" data-original="#ffcbbe"></path><path xmlns="http://www.w3.org/2000/svg" d="m142.792969 250.003906v-69.597656c0-12.691406 8.058593-23.496094 19.335937-27.585938-3.121094-1.132812-6.488281-1.753906-10-1.753906-16.203125 0-29.335937 13.136719-29.335937 29.339844v69.597656c0 16.203125 13.136719 29.335938 29.335937 29.335938 3.511719 0 6.878906-.617188 10-1.75-11.277344-4.089844-19.335937-14.894532-19.335937-27.585938zm0 0" fill="#f9b7aa" data-original="#f9b7aa"></path><path xmlns="http://www.w3.org/2000/svg" d="m210.804688 279.339844c-16.203126 0-29.335938-13.132813-29.335938-29.335938v-81.492187c0-16.203125 13.132812-29.335938 29.335938-29.335938 16.203124 0 29.335937 13.136719 29.335937 29.335938v81.492187c0 16.203125-13.132813 29.335938-29.335937 29.335938zm0 0" fill="#ffcbbe" data-original="#ffcbbe"></path><path xmlns="http://www.w3.org/2000/svg" d="m201.46875 250.003906v-81.492187c0-12.691407 8.058594-23.496094 19.335938-27.585938-3.121094-1.132812-6.488282-1.75-10-1.75-16.203126 0-29.335938 13.132813-29.335938 29.335938v81.492187c0 16.203125 13.132812 29.335938 29.335938 29.335938 3.511718 0 6.878906-.617188 10-1.75-11.277344-4.089844-19.335938-14.894532-19.335938-27.585938zm0 0" fill="#f9b7aa" data-original="#f9b7aa"></path><path xmlns="http://www.w3.org/2000/svg" d="m269.480469 279.339844c-16.203125 0-29.339844-13.132813-29.339844-29.335938v-93.386718c0-16.203126 13.136719-29.335938 29.339844-29.335938s29.335937 13.136719 29.335937 29.335938v93.386718c0 16.203125-13.132812 29.335938-29.335937 29.335938zm0 0" fill="#ffcbbe" data-original="#ffcbbe"></path><path xmlns="http://www.w3.org/2000/svg" d="m260.140625 250.003906v-93.386718c0-12.6875 8.0625-23.496094 19.339844-27.585938-3.121094-1.132812-6.488281-1.75-10-1.75-16.203125 0-29.339844 13.132812-29.339844 29.335938v93.386718c0 16.203125 13.136719 29.335938 29.339844 29.335938 3.511719 0 6.878906-.617188 10-1.75-11.277344-4.089844-19.339844-14.894532-19.339844-27.585938zm0 0" fill="#f9b7aa" data-original="#f9b7aa"></path><path xmlns="http://www.w3.org/2000/svg" d="m389.207031 323.742188v-84.285157c0-19.15625-15.53125-34.6875-34.6875-34.6875h-92.710937c-4.585938 0-8.304688 3.71875-8.304688 8.304688 0 30.707031 24.894532 55.601562 55.601563 55.601562h17.246093c2.179688 0 2.773438 3 .757813 3.828125l-57.015625 23.398438c-10.035156 4.117187-16.589844 13.894531-16.589844 24.742187v191.324219c.832032.007812 1.664063.03125 2.496094.03125 29.933594 0 58.660156-5.152344 85.359375-14.59375v-114.6875c27.324219-5.722656 47.847656-29.949219 47.847656-58.976562zm0 0" fill="#ffddcf" data-original="#ffddcf"></path></g></svg>