<svg xmlns="http://www.w3.org/2000/svg" version="1.1" xmlns:xlink="http://www.w3.org/1999/xlink" xmlns:svgjs="http://svgjs.com/svgjs" x="0" y="0" viewBox="0 0 512 512" style="enable-background:new 0 0 512 512" xml:space="preserve"><g><g xmlns="http://www.w3.org/2000/svg"><path d="m207.8 463.8h-192.8c-8.284 0-15-6.716-15-15s6.716-15 15-15h192.8c8.284 0 15 6.716 15 15s-6.716 15-15 15z" fill="#006478" data-original="#006478"/><path d="m497 463.8h-192.8c-8.284 0-15-6.716-15-15s6.716-15 15-15h192.8c8.284 0 15 6.716 15 15s-6.716 15-15 15z" fill="#003c50" data-original="#003c50"/><path d="m256 512c-34.849 0-63.2-28.352-63.2-63.2 0-51.759 48.282-132.825 50.338-136.25 2.711-4.518 7.594-7.283 12.862-7.283s10.151 2.765 12.862 7.283c2.056 3.425 50.338 84.491 50.338 136.25 0 34.848-28.351 63.2-63.2 63.2z" fill="#003c50" data-original="#003c50"/><path d="m256 512v-206.733c5.269 0 10.151 2.765 12.862 7.283 2.056 3.425 50.338 84.491 50.338 136.25 0 34.848-28.351 63.2-63.2 63.2z" fill="#001428" data-original="#001428"/><path d="m341.333 61.111-170.667 68.267c-5.695 2.278-9.429 7.794-9.429 13.927v118.266c0 5.208 4.222 9.429 9.429 9.429h170.667c11.361 0 20.571-9.21 20.571-20.571v-175.391c0-10.612-10.718-17.869-20.571-13.927z" fill="#ffe600" data-original="#ffe600"/><path d="m256 271h85.333c11.361 0 20.571-9.21 20.571-20.571v-175.391c0-10.612-10.718-17.868-20.571-13.927l-85.333 34.133z" fill="#ffaa32" data-original="#ffaa32"/><path d="m15 271h155.667v-141.623l-161.238 64.495c-5.695 2.278-9.429 7.794-9.429 13.928v48.2c0 8.284 6.716 15 15 15z" fill="#9bff00" data-original="#9bff00"/><path d="m505.409 2.579c-4.122-2.79-9.358-3.354-13.98-1.506l-150.096 60.038v209.889h155.667c8.284 0 15-6.716 15-15v-241c0-4.978-2.469-9.631-6.591-12.421z" fill="#ff1e5a" data-original="#ff1e5a"/><path d="m85.333 271h85.334v-141.623l-85.334 34.134z" fill="#00d200" data-original="#00d200"/><path d="m505.409 2.579c-4.122-2.79-9.358-3.354-13.98-1.506l-64.762 25.905v244.022h70.333c8.284 0 15-6.716 15-15v-241c0-4.978-2.469-9.631-6.591-12.421z" fill="#c40050" data-original="#c40050"/></g></g></svg>