<svg xmlns="http://www.w3.org/2000/svg" version="1.1" xmlns:xlink="http://www.w3.org/1999/xlink" xmlns:svgjs="http://svgjs.com/svgjs" x="0" y="0" viewBox="0 0 512 512" style="enable-background:new 0 0 512 512" xml:space="preserve"><g><g xmlns="http://www.w3.org/2000/svg"><g><g><g><path d="m330.078 245.476-56-56c-5.251-5.251-8.201-12.373-8.201-19.799v-64h56v52.402l47.799 47.799z" fill="#f0915a" data-original="#f0915a"></path></g></g></g><g><g><g><path d="m269.878 481.676h-64c-8.837 0-16-7.163-16-16v-32h64c17.673 0 32 14.327 32 32 0 8.837-7.164 16-16 16z" fill="#fab991" data-original="#fab991"></path></g></g></g><g><g><g><path d="m189.877 193.676h64v240h-64z" fill="#f0915a" data-original="#f0915a"></path></g></g></g><g><g><g><path d="m253.877 321.676v-128h112c17.673 0 32 14.327 32 32v96z" fill="#f0915a" data-original="#f0915a"></path></g></g></g><g><g><g><path d="m325.878 185.676h-40c-8.837 0-16 7.163-16 16v8c0 8.837 7.163 16 16 16h40c4.418 0 8-3.582 8-8v-24c0-4.418-3.582-8-8-8z" fill="#fab991" data-original="#fab991"></path></g></g></g><g><g><g><path d="m325.878 241.676h-40c-8.837 0-16 7.163-16 16v8c0 8.837 7.163 16 16 16h40c4.418 0 8-3.582 8-8v-24c0-4.418-3.582-8-8-8z" fill="#fab991" data-original="#fab991"></path></g></g></g><g><g><g><path d="m346.966 213.392 39.598 39.598c6.248 6.248 16.379 6.248 22.627 0l50.912-50.912c9.373-9.373 9.373-24.569 0-33.941l-28.284-28.284c-9.373-9.373-24.569-9.373-33.941 0l-50.912 50.912c-6.249 6.248-6.249 16.379 0 22.627z" fill="#f0915a" data-original="#f0915a"></path></g></g></g><g><g><g><path d="m369.593 236.02-22.627-22.627c-6.248-6.248-6.248-16.379 0-22.627l50.912-50.912c9.373-9.373 24.569-9.373 33.941 0l11.314 11.314c9.373 9.373 9.373 24.569 0 33.941l-50.912 50.912c-6.249 6.247-16.379 6.247-22.628-.001z" fill="#fab991" data-original="#fab991"></path></g></g></g><g><g><g><path d="m403.534 213.392c-3.124-3.124-3.124-8.19 0-11.314l11.314-11.314c-6.248-6.248-6.248-16.379 0-22.627l-28.284-28.284c12.497-12.497 32.758-12.497 45.255 0l28.284 28.284c12.497 12.497 12.497 32.758 0 45.255l-33.941 33.941c-6.248 6.248-16.379 6.248-22.627 0-6.248-6.248-6.248-16.379 0-22.627l5.657-5.657z" fill="#323232" data-original="#323232"></path></g></g></g><g><g><g><path d="m403.534 224.706c-3.124-3.124-3.124-8.19 0-11.314l11.314-11.314c3.124-3.124 8.19-3.124 11.314 0 6.248 6.248 6.248 16.379 0 22.627-6.249 6.249-16.379 6.249-22.628.001z" fill="#f0915a" data-original="#f0915a"></path></g></g></g><g><g><g><path d="m389.878 209.676h-55.726c-4.261 0-7.982 3.215-8.257 7.467-.302 4.659 3.388 8.533 7.983 8.533v40c0 4.418 3.582 8 8 8h56c4.418 0 8-3.582 8-8v-40c0-8.836-7.164-16-16-16z" fill="#f04b37" data-original="#f04b37"></path></g></g></g><g><g><g><path d="m312.544 41.676h-55.726c-4.261 0-7.982 3.215-8.257 7.467-.302 4.659 3.388 8.533 7.983 8.533v40c0 4.418 3.582 8 8 8h56c4.418 0 8-3.582 8-8v-40c0-8.836-7.163-16-16-16z" fill="#be281e" data-original="#be281e"></path></g></g></g><g><g><g><path d="m369.878 369.676c-15.464 0-28-12.536-28-28v-68h56v68c0 15.464-12.537 28-28 28z" fill="#fab991" data-original="#fab991"></path></g></g></g><g><g><g><path d="m341.878 273.676h56v24h-56z" fill="#be281e" data-original="#be281e"></path></g></g></g><g><g><g><path d="m320.544 65.676h-20c-2.209 0-4 1.791-4 4 0 6.627 5.373 12 12 12h4c0 8.837 7.164 16 16 16v-24c0-4.418-3.582-8-8-8z" fill="#f04b37" data-original="#f04b37"></path></g></g></g><g><g><g><path d="m328.544 57.676h-72c-4.418 0-8-3.582-8-8 0-4.418 3.582-8 8-8h56c8.837 0 16 7.164 16 16z" fill="#f04b37" data-original="#f04b37"></path></g></g></g><g><g><g><path d="m265.877 105.676h56v24h-56z" fill="#be281e" data-original="#be281e"></path></g></g></g><g><g><g><path d="m237.877 257.676c-8.19 0-16.378-3.124-22.627-9.373l-142.667-142.666c-12.496-12.497-12.496-32.758.001-45.255 12.495-12.497 32.757-12.497 45.254 0l142.667 142.667c12.496 12.497 12.496 32.758-.001 45.255-6.247 6.247-14.438 9.372-22.627 9.372z" fill="#f0915a" data-original="#f0915a"></path></g></g></g><g><g><g><path d="m161.877 130.765h64.001v101.823h-64.001z" fill="#464646" transform="matrix(.707 -.707 .707 .707 -71.679 190.304)" data-original="#464646"></path></g></g></g><g><g><g><path d="m189.877 193.676h64v144h-64z" fill="#464646" data-original="#464646"></path></g></g></g><g><g><g><path d="m93.878 81.676c-12.518 12.518-32.815 12.518-45.333 0l-3.677-3.676c-3.124-3.124-3.124-8.19 0-11.314l34.02-34.02c3.124-3.124 8.19-3.124 11.314 0l3.676 3.677c12.518 12.519 12.518 32.815 0 45.333z" fill="#fab991" data-original="#fab991"></path></g></g></g></g></g></svg>