<svg id="Capa_1" enable-background="new 0 0 512 512" height="32" viewBox="0 0 512 512" width="32" xmlns="http://www.w3.org/2000/svg"><path d="m461.325 111.527c12.124-11.814 19.675-28.301 19.675-46.527 0-35.841-29.159-65-65-65s-65 29.159-65 65c0 18.226 7.551 34.713 19.675 46.527-14.091 7.682-26.034 18.828-34.675 32.286-8.641-13.459-20.584-24.604-34.676-32.286 12.125-11.814 19.675-28.301 19.675-46.527 0-35.841-29.158-65-65-65s-65 29.159-65 65c0 18.226 7.55 34.713 19.675 46.527-14.091 7.682-26.034 18.828-34.675 32.286-8.641-13.459-20.584-24.604-34.675-32.286 12.125-11.814 19.676-28.301 19.676-46.527 0-35.841-29.159-65-65-65s-65 29.159-65 65c0 18.226 7.55 34.713 19.675 46.527-29.568 16.12-49.675 47.492-49.675 83.473v30c0 8.284 6.716 15 15 15h195v97.771l-40.779 20.594c-11.856 5.988-19.221 17.959-19.221 31.241v17.394c0 57.897 47.103 105 105 105h150c41.355 0 75-33.645 75-75v-107.375c0-23.843-18.325-43.832-41.719-45.507-9.911-.712-19.772 1.9-27.976 7.271-7.595-9.756-19.028-16.34-32.024-17.271-9.909-.712-19.771 1.901-27.976 7.271-7.595-9.756-19.028-16.34-32.024-17.271-6.248-.45-12.477.424-18.281 2.475v-26.593h195c8.284 0 15-6.716 15-15v-30c0-35.981-20.107-67.353-49.675-83.473zm-80.325-46.527c0-19.299 15.701-35 35-35s35 15.701 35 35-15.701 35-35 35-35-15.701-35-35zm-160 0c0-19.299 15.701-35 35-35 19.298 0 35 15.701 35 35s-15.701 35-35 35c-19.3 0-35-15.701-35-35zm-160 0c0-19.299 15.701-35 35-35s35 15.701 35 35-15.701 35-35 35-35-15.701-35-35zm-30 130c0-35.841 29.159-65 65-65s65 29.159 65 65v15h-130zm160 0c0-35.841 29.159-65 65-65s65 29.159 65 65v15h-22.58c-6.192-17.459-22.865-30-42.42-30s-36.228 12.541-42.42 30h-22.58zm114.784 103.017c3.08-2.867 7.111-4.273 11.354-3.976 7.772.557 13.861 7.402 13.861 15.584v9.375c0 8.284 6.716 15 15 15s15-6.716 15-15c0-4.211 1.699-8.111 4.784-10.983 3.08-2.867 7.112-4.274 11.354-3.976 7.772.557 13.861 7.402 13.861 15.584v9.375c0 8.284 6.716 15 15 15s15-6.716 15-15c0-4.211 1.699-8.111 4.784-10.983 3.08-2.867 7.113-4.275 11.354-3.976 7.772.557 13.861 7.402 13.861 15.584v107.375c0 24.813-20.187 45-45 45h-149.997c-41.355 0-75-33.645-75-75v-17.394c0-1.897 1.052-3.608 2.746-4.463l27.254-13.764v25.621c0 8.284 6.716 15 15 15s15-6.716 15-15v-172c0-8.271 6.729-15 15-15s15 6.729 15 15v84c0 8.284 6.716 15 15 15s15-6.716 15-15c0-4.211 1.699-8.111 4.784-10.983zm175.216-88.017h-130v-15c0-35.841 29.159-65 65-65s65 29.159 65 65z"/></svg>