<svg xmlns="http://www.w3.org/2000/svg" version="1.1" xmlns:xlink="http://www.w3.org/1999/xlink" xmlns:svgjs="http://svgjs.com/svgjs" x="0" y="0" viewBox="0 0 512 512" style="enable-background:new 0 0 512 512" xml:space="preserve"><g><g xmlns="http://www.w3.org/2000/svg"><path d="m256 121c-74.399 0-135 60.599-135 135 0 74.399 60.601 135 135 135s135-60.601 135-135c0-74.401-60.601-135-135-135zm0 240c-57.9 0-105-47.1-105-105s47.1-105 105-105 105 47.1 105 105-47.1 105-105 105z" fill="#ff7666" data-original="#ff7666"/><path d="m391 256c0 74.399-60.601 135-135 135v-30c57.9 0 105-47.1 105-105s-47.1-105-105-105v-30c74.399 0 135 60.599 135 135z" fill="#ff4547" data-original="#ff4547"/><path d="m256 61c-107.401 0-195 87.599-195 195 0 107.399 87.599 195 195 195s195-87.601 195-195c0-107.401-87.599-195-195-195zm0 360c-90.901 0-165-74.101-165-165 0-90.901 74.099-165 165-165s165 74.099 165 165c0 90.899-74.099 165-165 165z" fill="#415899" data-original="#415899"/><path d="m451 256c0 107.399-87.599 195-195 195v-30c90.901 0 165-74.101 165-165 0-90.901-74.099-165-165-165v-30c107.401 0 195 87.599 195 195z" fill="#29376d" data-original="#29376d"/><g fill="#ff7666"><path d="m256 211c-24.901 0-45 20.099-45 45 0 24.899 20.099 45 45 45s45-20.101 45-45c0-24.901-20.099-45-45-45z" fill="#ff7666" data-original="#ff7666"/><path d="m241 331h30v181h-30z" fill="#ff7666" data-original="#ff7666"/><path d="m241 0h30v181h-30z" fill="#ff7666" data-original="#ff7666"/><path d="m0 241h181v30h-181z" fill="#ff7666" data-original="#ff7666"/></g><path d="m331 241h181v30h-181z" fill="#ff4547" data-original="#ff4547"/><path d="m301 256c0 24.899-20.099 45-45 45v-90c24.901 0 45 20.099 45 45z" fill="#ff4547" data-original="#ff4547"/><path d="m256 0h15v181h-15z" fill="#ff4547" data-original="#ff4547"/><path d="m256 331h15v181h-15z" fill="#ff4547" data-original="#ff4547"/></g></g></svg>