<svg xmlns="http://www.w3.org/2000/svg" version="1.1" xmlns:xlink="http://www.w3.org/1999/xlink" xmlns:svgjs="http://svgjs.com/svgjs" x="0" y="0" viewBox="0 0 512 512" style="enable-background:new 0 0 512 512" xml:space="preserve" class=""><g><g xmlns="http://www.w3.org/2000/svg" id="flat"><path d="m420.772 318.364-9.572-12.818a24 24 0 0 1 4.861-33.591 23.888 23.888 0 0 1 13.2-4.748l10.3 33.173z" fill="#d6a27f" data-original="#d6a27f"></path><path d="m429.259 267.207a23.978 23.978 0 0 1 20.389 9.609l9.577 12.817a24 24 0 0 1 -4.861 33.592 24 24 0 0 1 -33.592-4.861l15.228-20.774z" fill="#7a4922" data-original="#7a4922"></path><path d="m384 144-88-40-18.75-33.75-35.421 11.807 14.171 77.943z" fill="#dc651e" data-original="#dc651e"></path><path d="m256 32-40 24 24 16 1.829 10.057 35.421-11.807z" fill="#d6a27f" data-original="#d6a27f"></path><path d="m168 80-32 24 24 8 14.222 19.556 18.054-36.108z" fill="#d6a27f" data-original="#d6a27f"></path><path d="m437.457 212.73-53.457-68.73-128-8-63.724-40.552-18.054 36.108 43.788 60.207a20 20 0 0 0 16.175 8.237h77.815l40 48-24 56v72h40l8-56 56-40 7.486-59.89a10 10 0 0 0 -2.029-7.38z" fill="#fd7422" data-original="#fd7422"></path><path d="m410.23 177.72-71.56 54.29-10.25-12.3 71.99-54.62z" fill="#007af6" data-original="#007af6"></path><path d="m410.23 177.72-71.56 54.29-10.25-12.3 71.99-54.62z" fill="#bbbab6" data-original="#bbbab6"></path><path d="m392 440v24l-33.284 16.642a23.924 23.924 0 0 0 17.284 7.358h16a24 24 0 0 0 0-48z" fill="#4a4b46" data-original="#4a4b46"></path><path d="m392 440h-16a23.993 23.993 0 0 0 -17.284 40.642l33.284-16.642z" fill="#fdc9a6" data-original="#fdc9a6"></path><path d="m300.664 344.339a20 20 0 0 0 -.681-16.372l-28.872-57.745-40.635 10.159 9.524 47.619-40 64-35.435-29.529a45.175 45.175 0 0 0 -28.921-10.471 45.178 45.178 0 0 0 -42.458 29.738l-15.186 41.762 37.556 9.389 12.444-24.889 66.041 73.379a20 20 0 0 0 14.866 6.621h54.093l9-72z" fill="#eae9e4" data-original="#eae9e4"></path><path d="m72 440-24 16 48 16 19.556-39.111-37.556-9.389z" fill="#fdc9a6" data-original="#fdc9a6"></path><path d="m264 256v-24l-40 16 6.476 32.381 40.635-10.159z" fill="#fdc9a6" data-original="#fdc9a6"></path><path d="m328 352-16 64h-40l-9 72h73l24-8 8-56 8-48-16-32z" fill="#eae9e4" data-original="#eae9e4"></path><path d="m392 336-32 8 16 32 24-24z" fill="#fdc9a6" data-original="#fdc9a6"></path><path d="m273 488h-10l9-72h10z" fill="#bbbab6" data-original="#bbbab6"></path></g></g></svg>