<svg xmlns="http://www.w3.org/2000/svg" version="1.1" xmlns:xlink="http://www.w3.org/1999/xlink" xmlns:svgjs="http://svgjs.com/svgjs" x="0" y="0" viewBox="0 0 256 256" style="enable-background:new 0 0 512 512" xml:space="preserve"><g><g xmlns="http://www.w3.org/2000/svg"><g><path d="m225.798 202.456 7.095 11.448c.098.158.15.341.15.527v4.146c0 .552-.448 1-1 1h-28.143c-.552 0-1-.448-1-1v-4.357c0-.05.004-.099.011-.148l1.01-6.734v-12.472h22.332z" fill="#f9cfcf" data-original="#f9cfcf"></path></g><g><path d="m232.043 221.576h-28.143c-1.654 0-3-1.346-3-3v-4.356c0-.148.011-.295.033-.442l.989-6.59v-12.323c0-1.104.896-2 2-2h22.333c.551 0 1.078.228 1.456.629s.573.941.541 1.491l-.418 6.957 6.76 10.908c.294.475.45 1.021.45 1.58v4.146c-.001 1.654-1.346 3-3.001 3zm-27.143-4h26.143v-2.861l-6.945-11.206c-.217-.351-.321-.761-.296-1.174l.329-5.471h-18.209v10.472c0 .099-.007.199-.022.297l-1 6.662zm26.293-2.618h.01z" fill="#3762cc" data-original="#3762cc"></path></g><g><path d="m184.075 171.867c1.43.462 2.577 1.543 3.122 2.944l12.365 31.76c.358.921 1.335 1.442 2.299 1.226l28.966-6.463c1.176-.262 1.855-1.497 1.446-2.63l-15.727-43.607c-.912-2.528-2.802-4.582-5.245-5.7l-47.023-21.523v-.096-6.164h-25.02v35.777z" fill="#e0ebfc" data-original="#e0ebfc"></path></g><g><path d="m201.41 209.847c-1.619 0-3.1-.98-3.711-2.551l-12.365-31.759c-.328-.844-1.011-1.488-1.873-1.767l-44.817-14.477c-.826-.267-1.385-1.036-1.385-1.903v-35.778c0-1.104.896-2 2-2h25.02c1.104 0 2 .896 2 2v4.977l45.855 20.989c2.913 1.333 5.207 3.826 6.294 6.839l15.727 43.607c.39 1.081.296 2.277-.257 3.283s-1.513 1.728-2.634 1.978l-28.966 6.464c-.298.066-.596.098-.888.098zm-60.152-53.912 43.432 14.029c2.012.65 3.604 2.153 4.371 4.122l12.365 31.759 28.966-6.463-15.727-43.607c-.725-2.009-2.254-3.671-4.196-4.56l-47.023-21.523c-.711-.325-1.167-1.036-1.167-1.818v-4.261h-21.02v32.322z" fill="#3762cc" data-original="#3762cc"></path></g><g><g><path d="m115.181 187.416v-15.058h-30.28l-12.702 2.356-7.354-25.264c-.325-1.115-1.528-1.72-2.617-1.316l-26.981 10.028 14.755 47.217h65.18v-17.963z" fill="#e0ebfc" data-original="#e0ebfc"></path></g><g><path d="m115.181 207.379h-65.18c-.875 0-1.648-.568-1.909-1.403l-14.755-47.217c-.317-1.015.216-2.101 1.212-2.471l26.981-10.028c1.038-.386 2.2-.322 3.19.175.989.498 1.734 1.393 2.044 2.456l6.848 23.527 10.923-2.026c.12-.022.242-.034.365-.034h30.28c1.104 0 2 .896 2 2v33.021c.001 1.104-.894 2-1.999 2zm-63.709-4h61.709v-29.021h-28.096l-12.521 2.322c-1.011.19-1.998-.421-2.285-1.407l-7.354-25.265-25.204 9.368z" fill="#3762cc" data-original="#3762cc"></path></g><g><path d="m43.259 147.221v-7.913l-1.667-5.45c-.318-1.04-1.409-1.635-2.455-1.34l-33.735 9.509c-1.485.419-2.411 1.896-2.139 3.415l.435 2.435c.222 1.244 1.2 2.216 2.446 2.429l21.468 3.681 2.887 8.794 14.627-5.132z" fill="#f9cfcf" data-original="#f9cfcf"></path></g><g><path d="m30.499 164.781c-.304 0-.606-.069-.884-.206-.482-.238-.848-.659-1.016-1.17l-2.512-7.65-20.281-3.478c-2.069-.354-3.708-1.981-4.077-4.049l-.435-2.435c-.455-2.543 1.078-4.99 3.565-5.691l33.735-9.509c2.075-.584 4.279.617 4.911 2.68l1.667 5.45c.058.189.087.387.087.585v7.735l1.836 10.253c.173.966-.38 1.915-1.307 2.24l-14.627 5.132c-.215.076-.438.113-.662.113zm9.181-30.338-33.735 9.509c-.497.141-.804.63-.713 1.138l.435 2.435c.074.413.401.739.815.81l21.468 3.681c.73.125 1.331.644 1.563 1.347l2.251 6.855 11.095-3.893-1.567-8.752c-.021-.116-.031-.234-.031-.353v-7.614z" fill="#3762cc" data-original="#3762cc"></path></g><g><path d="m95.935 219.575h-52.924c-2.24 0-4.207-1.49-4.813-3.646l-16.207-57.623c-.271-.964.212-1.98 1.131-2.377l24.872-10.756c1.078-.466 2.324.093 2.693 1.208l13.556 41.035h50.938v32.159z" fill="#e0ebfc" data-original="#e0ebfc"></path></g><g><path d="m115.181 221.575h-72.17c-3.122 0-5.893-2.099-6.738-5.104l-16.208-57.623c-.54-1.919.433-3.963 2.263-4.754l24.873-10.756c1.028-.444 2.203-.436 3.225.022s1.81 1.332 2.161 2.395l13.103 39.662h49.492c1.104 0 2 .896 2 2v32.159c-.001 1.103-.896 1.999-2.001 1.999zm-66.392-74.566-24.873 10.755 16.208 57.623c.362 1.288 1.55 2.188 2.888 2.188h70.17v-28.159h-48.938c-.863 0-1.628-.553-1.899-1.373z" fill="#3762cc" data-original="#3762cc"></path></g><g><path d="m228.617 183.8-34.859-10.854c-1.251-.39-2.554-.588-3.865-.588h-81.383l-12.575 23.352v23.865h72.326l14.678-13.524 16.794 9.931 29.981-20.875c1.074-.748 1.714-1.974 1.714-3.283v-4.205c-.001-1.751-1.14-3.298-2.811-3.819z" fill="#e0ebfc" data-original="#e0ebfc"></path></g><g><path d="m168.261 221.575h-72.325c-1.104 0-2-.896-2-2v-23.865c0-.331.082-.657.239-.948l12.574-23.352c.349-.648 1.025-1.052 1.761-1.052h81.383c1.514 0 3.014.228 4.46.678l34.859 10.854c2.521.785 4.216 3.087 4.216 5.729v4.206c0 1.962-.961 3.803-2.572 4.924l-29.98 20.875c-.644.449-1.488.479-2.161.081l-15.514-9.175-13.584 12.516c-.37.34-.854.529-1.356.529zm-70.325-4h69.545l14.104-12.995c.648-.598 1.612-.7 2.373-.251l15.687 9.278 28.926-20.141c.537-.374.857-.987.857-1.641v-4.206c0-.88-.564-1.647-1.405-1.909l-34.859-10.854c-1.06-.33-2.161-.498-3.271-.498h-80.188l-11.769 21.856z" fill="#3762cc" data-original="#3762cc"></path></g><g><path d="m168.286 201.039c0-11.071 8.975-20.047 20.047-20.047h7.075c11.071 0 20.047 8.975 20.047 20.047 0 11.071-8.975 20.047-20.047 20.047h-7.075c-11.072-.001-20.047-8.976-20.047-20.047z" fill="#f9cfcf" data-original="#f9cfcf"></path></g><g><path d="m195.408 223.085h-7.076c-12.156 0-22.046-9.89-22.046-22.047 0-12.156 9.89-22.046 22.046-22.046h7.076c12.156 0 22.046 9.89 22.046 22.046 0 12.157-9.89 22.047-22.046 22.047zm-7.076-40.093c-9.951 0-18.046 8.096-18.046 18.046 0 9.951 8.096 18.047 18.046 18.047h7.076c9.951 0 18.046-8.096 18.046-18.047s-8.096-18.046-18.046-18.046z" fill="#3762cc" data-original="#3762cc"></path></g><g><path d="m108.509 172.358-12.574 23.352v23.865h8.225v-22.82l13.75-24.397z" fill="#4671c6" data-original="#4671c6"></path></g><g><path d="m104.16 221.575h-8.224c-1.104 0-2-.896-2-2v-23.865c0-.331.082-.657.239-.948l12.574-23.352c.349-.648 1.025-1.052 1.761-1.052h9.4c.711 0 1.368.377 1.727.991.358.614.364 1.372.015 1.991l-13.492 23.939v22.295c0 1.105-.896 2.001-2 2.001zm-6.224-4h4.224v-20.82c0-.344.089-.682.258-.982l12.069-21.415h-4.783l-11.769 21.856v21.361z" fill="#3762cc" data-original="#3762cc"></path></g><g><path d="m108.509 172.358h-18.974l-8.491 12.199c-1.634 2.347-2.509 5.138-2.509 7.998v27.02h17.401v-23.865z" fill="#e0ebfc" data-original="#e0ebfc"></path></g><g><path d="m95.936 221.575h-17.401c-1.104 0-2-.896-2-2v-27.02c0-3.285.992-6.445 2.868-9.14l8.491-12.199c.374-.537.987-.857 1.642-.857h18.975c.704 0 1.356.37 1.717.975.361.604.378 1.354.044 1.974l-12.334 22.908v23.36c-.002 1.103-.898 1.999-2.002 1.999zm-15.401-4h13.401v-21.865c0-.331.082-.657.239-.948l10.986-20.404h-14.581l-7.894 11.342c-1.407 2.021-2.151 4.392-2.151 6.855z" fill="#3762cc" data-original="#3762cc"></path></g><path d="m222.446 215.876h12.053c.164 0 .326.02.485.06l15.528 3.882c1.335.334 2.272 1.534 2.272 2.91v1.357c0 1.657-1.343 3-3 3h-27.339v-10.184-1.025z" fill="#f9cfcf" data-original="#f9cfcf"></path><g><path d="m249.785 229.085h-27.339c-1.104 0-2-.896-2-2v-10.184c0-.177.023-.349.066-.512-.043-.164-.066-.335-.066-.513 0-1.104.896-2 2-2h12.053c.326 0 .652.04.969.119l15.529 3.882c2.229.557 3.787 2.552 3.787 4.851v1.357c.001 2.757-2.242 5-4.999 5zm-25.339-4h25.339c.551 0 1-.449 1-1v-1.357c0-.459-.312-.858-.757-.97l-15.529-3.882h-10.053z" fill="#3762cc" data-original="#3762cc"></path></g><g><path d="m127.371 208.691 10.378 16.96c.545.891 1.514 1.434 2.559 1.434h82.138v-17.394c0-.552-.448-1-1-1h-58.021l-10.778-20.529z" fill="#e0ebfc" data-original="#e0ebfc"></path></g><g><path d="m222.446 229.085h-82.138c-1.729 0-3.363-.916-4.265-2.391l-10.378-16.959c-.577-.942-.28-2.173.662-2.75.941-.577 2.173-.28 2.75.662l10.378 16.959c.181.295.507.479.853.479h80.138v-14.394h-57.021c-.743 0-1.425-.412-1.771-1.07l-10.778-20.529c-.513-.978-.137-2.187.841-2.701.977-.514 2.187-.137 2.701.841l10.216 19.459h56.812c1.654 0 3 1.346 3 3v17.394c0 1.105-.896 2-2 2z" fill="#3762cc" data-original="#3762cc"></path></g></g><g><path d="m55.637 202.456-6.945 11.205c-.196.316-.3.681-.3 1.054v2.862c0 1.105.895 2 2 2h26.143c1.105 0 2-.895 2-2v-3.282c0-.099-.007-.199-.022-.297l-.999-6.661v-12.472h-22.333z" fill="#f9cfcf" data-original="#f9cfcf"></path></g><g><path d="m76.535 221.576h-26.143c-2.206 0-4-1.794-4-4v-2.861c0-.746.208-1.475.601-2.108l6.61-10.665-.418-6.957c-.033-.55.163-1.09.541-1.491s.905-.629 1.456-.629h22.333c1.104 0 2 .896 2 2v12.323l.977 6.513c.029.191.044.392.044.594v3.282c-.001 2.205-1.796 3.999-4.001 3.999zm-19.231-24.711.329 5.471c.024.413-.079.823-.296 1.174l-6.945 11.206v2.861h26.143v-3.282l-1-6.661c-.015-.099-.022-.198-.022-.297v-10.472z" fill="#3762cc" data-original="#3762cc"></path></g><g><path d="m139.258 121.612h-21.484l-3.327 6.164-47.233 21.619c-2.443 1.118-4.333 3.173-5.245 5.7l-15.727 43.607c-.409 1.133.27 2.368 1.446 2.63l28.966 6.463c.964.215 1.941-.306 2.299-1.226l12.365-31.76c.545-1.401 1.692-2.482 3.122-2.944l44.817-14.477v-35.776z" fill="#e0ebfc" data-original="#e0ebfc"></path></g><g><path d="m77.106 209.847c-.293 0-.59-.032-.888-.098l-28.965-6.463c-1.122-.25-2.082-.972-2.635-1.978s-.646-2.203-.257-3.283l15.727-43.607c1.087-3.014 3.381-5.506 6.294-6.84l46.623-21.34 3.008-5.575c.349-.647 1.025-1.05 1.76-1.05h21.484c1.104 0 2 .896 2 2v35.778c0 .868-.56 1.636-1.385 1.903l-44.817 14.476c-.862.278-1.545.922-1.873 1.766l-12.365 31.76c-.611 1.571-2.092 2.551-3.711 2.551zm41.861-86.235-2.759 5.114c-.207.383-.532.688-.928.869l-47.233 21.619c-1.942.889-3.472 2.551-4.196 4.56l-15.727 43.607 28.966 6.463 12.365-31.76c.766-1.969 2.359-3.471 4.371-4.121l43.433-14.029v-32.322z" fill="#3762cc" data-original="#3762cc"></path></g><g><path d="m195.796 79.748-28.793-13.597-23.586-11.566c-2.61-1.28-5.677-1.22-8.236.16l-26.018 14.035c-2.265 1.222-3.677 3.587-3.677 6.161v22.423h15.992l-7.031 30.413 56.29 14.406 4.65-9.454v45.2c0 1.105.895 2 2 2h20.993c1.105 0 2-.895 2-2v-90.947c0-3.095-1.785-5.912-4.584-7.234z" fill="#e0ebfc" data-original="#e0ebfc"></path></g><g><path d="m198.38 181.929h-20.993c-2.206 0-4-1.794-4-4v-36.602l-.854 1.738c-.418.849-1.373 1.291-2.291 1.055l-56.29-14.406c-1.052-.27-1.697-1.33-1.453-2.388l6.464-27.962h-13.477c-1.104 0-2-.896-2-2v-22.423c0-3.313 1.811-6.348 4.727-7.921l26.019-14.036c3.121-1.683 6.883-1.755 10.065-.195l23.586 11.566 28.767 13.584c3.481 1.644 5.73 5.193 5.73 9.042v90.947c0 2.207-1.794 4.001-4 4.001zm-22.993-51.2c.15 0 .302.017.454.052.906.21 1.547 1.018 1.547 1.948v45.201h20.993v-90.948c0-2.309-1.35-4.439-3.438-5.425l-28.794-13.597-23.613-11.579c-2.025-.993-4.419-.947-6.405.124l-26.019 14.036c-1.62.874-2.626 2.56-2.626 4.4v20.423h13.992c.61 0 1.186.278 1.565.755s.521 1.101.383 1.695l-6.591 28.509 52.824 13.519 3.932-7.997c.344-.694 1.047-1.116 1.796-1.116z" fill="#3762cc" data-original="#3762cc"></path></g><g><path d="m125.984 132.73c-.341 0-.686-.087-1.001-.271-.927-.538-1.261-1.705-.774-2.646.358-.725 8.463-17.639 8.54-17.798.203-.424.549-.765.978-.959l30.04-13.641c1.007-.456 2.192-.012 2.648.994.457 1.006.012 2.191-.994 2.648l-29.377 13.34c-1.542 3.219-8.207 17.131-8.326 17.336-.373.64-1.044.997-1.734.997z" fill="#3762cc" data-original="#3762cc"></path></g><g><path d="m167.003 66.151-8.602-4.218-6.653 22.848-1.052 20.766 13.896-6.311 20.811-24.396z" fill="#f9cfcf" data-original="#f9cfcf"></path></g><g><path d="m150.696 107.546c-.395 0-.788-.117-1.125-.347-.577-.393-.907-1.058-.872-1.754l1.052-20.766c.008-.155.034-.309.077-.458l6.653-22.848c.165-.567.572-1.032 1.113-1.271.54-.238 1.159-.225 1.688.034l8.589 4.212 18.387 8.682c.563.266.97.779 1.102 1.388.131.609-.03 1.245-.434 1.718l-20.811 24.396c-.19.223-.427.402-.694.523l-13.896 6.311c-.266.121-.548.18-.829.18zm3.038-22.431-.875 17.252 10.5-4.768 18.824-22.067-16.035-7.572c-.009-.004-.018-.009-.026-.013l-6.466-3.171z" fill="#3762cc" data-original="#3762cc"></path></g><g><path d="m175.387 134.729c-1.104 0-2-.896-2-2v-33.493c0-1.104.896-2 2-2s2 .896 2 2v33.493c0 1.104-.895 2-2 2z" fill="#3762cc" data-original="#3762cc"></path></g><g><path d="m168.024 74.988c-10.146-5.858-13.623-18.832-7.765-28.979l3.744-6.484c5.858-10.146 18.832-13.623 28.979-7.765 10.146 5.858 13.623 18.832 7.765 28.979l-3.744 6.484c-5.858 10.147-18.832 13.623-28.979 7.765z" fill="#f9cfcf" data-original="#f9cfcf"></path></g><g><path d="m178.593 79.84c-4.022 0-7.992-1.055-11.569-3.12-11.085-6.4-14.897-20.626-8.497-31.711l3.744-6.484c6.401-11.084 20.626-14.896 31.711-8.497 11.085 6.4 14.897 20.626 8.497 31.711l-3.744 6.484c-3.1 5.37-8.106 9.211-14.095 10.816-2 .536-4.03.801-6.047.801zm-9.569-6.584c9.177 5.298 20.95 2.141 26.247-7.033l3.744-6.484c5.297-9.175 2.143-20.949-7.033-26.247-9.175-5.297-20.95-2.143-26.247 7.033l-3.744 6.484c-5.297 9.176-2.142 20.949 7.033 26.247z" fill="#3762cc" data-original="#3762cc"></path></g><g><path d="m114.45 129.777c-.149 0-.301-.017-.453-.052-1.076-.249-1.747-1.323-1.498-2.399l10.44-45.16c.722-3.124 1.839-6.149 3.321-8.994l6.601-12.673c.511-.979 1.72-1.359 2.698-.85.979.51 1.36 1.718.85 2.698l-6.601 12.673c-1.326 2.545-2.325 5.253-2.971 8.047l-10.44 45.161c-.214.924-1.038 1.549-1.947 1.549z" fill="#3762cc" data-original="#3762cc"></path></g><g><path d="m125.769 117.579h-22.644c-1.657 0-3-1.343-3-3v-14.215c0-1.657 1.343-3 3-3h22.644c1.657 0 3 1.343 3 3v14.215c0 1.657-1.343 3-3 3z" fill="#f9cfcf" data-original="#f9cfcf"></path></g><g><path d="m125.77 119.579h-22.644c-2.757 0-5-2.243-5-5v-14.214c0-2.757 2.243-5 5-5h22.644c2.757 0 5 2.243 5 5v14.214c0 2.756-2.244 5-5 5zm-22.645-20.215c-.551 0-1 .449-1 1v14.214c0 .551.449 1 1 1h22.644c.551 0 1-.449 1-1v-14.214c0-.551-.449-1-1-1z" fill="#3762cc" data-original="#3762cc"></path></g><g><path d="m114.448 127.777 1.425-6.165 57.859 14.483-2.994 6.088z" fill="#4671c6" data-original="#4671c6"></path></g><g><path d="m170.738 144.183c-.165 0-.331-.02-.497-.063l-56.29-14.406c-1.052-.269-1.697-1.33-1.453-2.388l1.425-6.165c.121-.523.447-.976.905-1.256s1.01-.365 1.53-.234l57.859 14.483c.586.146 1.074.55 1.329 1.099s.247 1.182-.02 1.724l-2.994 6.087c-.342.698-1.046 1.119-1.794 1.119zm-53.902-17.859 52.824 13.519 1.185-2.408-53.482-13.387z" fill="#3762cc" data-original="#3762cc"></path></g><g><path d="m178.91 179.929-4.206 7.195c-.397.68-.607 1.453-.607 2.241v2.443c0 1.105.895 2 2 2h23.813c1.105 0 2-.895 2-2v-2.539c0-.727-.178-1.442-.519-2.083l-3.856-7.256h-18.625z" fill="#f9cfcf" data-original="#f9cfcf"></path></g><g><path d="m199.91 195.808h-23.813c-2.206 0-4-1.794-4-4v-2.443c0-1.141.304-2.264.879-3.25l4.207-7.195c.358-.614 1.016-.991 1.727-.991h18.625c.74 0 1.419.408 1.766 1.062l3.855 7.256c.493.926.753 1.972.753 3.022v2.54c.001 2.205-1.794 3.999-3.999 3.999zm-19.853-13.879-3.627 6.204c-.218.373-.333.799-.333 1.231v2.443h23.813v-2.54c0-.398-.099-.793-.285-1.144l-3.292-6.195h-16.276z" fill="#3762cc" data-original="#3762cc"></path></g><g><path d="m170.738 142.183-56.29-14.406-23.049 10.55 14.746 22.753c1.475 2.276 4.002 3.649 6.713 3.649h61.169z" fill="#e0ebfc" data-original="#e0ebfc"></path></g><g><path d="m174.027 166.729h-61.169c-3.404 0-6.541-1.706-8.392-4.562l-14.746-22.752c-.316-.488-.404-1.089-.242-1.647.163-.558.56-1.018 1.088-1.259l23.05-10.55c.417-.19.885-.233 1.329-.119l56.29 14.406c.782.2 1.366.85 1.483 1.649l3.29 22.546c.084.575-.086 1.157-.466 1.597s-.934.691-1.515.691zm-79.692-27.547 13.487 20.81c1.111 1.714 2.993 2.737 5.035 2.737h58.856l-2.763-18.939-54.314-13.9z" fill="#3762cc" data-original="#3762cc"></path></g><g><path d="m137.301 178.04 4.202-43.339-6.106-1.563-10.305 43.884c-.286 1.22.607 2.4 1.858 2.455l8.271.367c1.064.048 1.977-.745 2.08-1.804z" fill="#4671c6" data-original="#4671c6"></path></g><g><path d="m144.09 135.363 4.024 42.754c.097 1.027.959 1.813 1.991 1.813h7.631c1.297 0 2.251-1.216 1.943-2.476l-9.952-40.648z" fill="#4671c6" data-original="#4671c6"></path></g><g><path d="m135.313 181.847c-.06 0-.12-.001-.181-.004l-8.271-.367c-1.193-.053-2.291-.629-3.012-1.582s-.978-2.166-.705-3.328l10.305-43.885c.123-.523.451-.975.911-1.253s1.011-.361 1.533-.227l6.106 1.563c.955.245 1.59 1.149 1.495 2.13l-4.202 43.339v.001c-.2 2.058-1.931 3.613-3.979 3.613zm1.988-3.807h.01zm-.423-42.458-9.838 41.898 8.271.367 4.037-41.633z" fill="#3762cc" data-original="#3762cc"></path></g><g><path d="m157.736 181.929h-7.631c-2.076 0-3.788-1.559-3.982-3.625l-4.024-42.754c-.061-.648.197-1.285.692-1.708.496-.422 1.167-.577 1.795-.417l5.637 1.443c.715.183 1.271.745 1.446 1.462l9.952 40.648c.294 1.201.025 2.447-.738 3.42-.764.973-1.911 1.531-3.147 1.531zm-11.389-43.924 3.758 39.924h7.631l-9.667-39.483z" fill="#3762cc" data-original="#3762cc"></path></g><g><g><path d="m169.955 57.487c-1.464-.845-1.966-2.717-1.12-4.181l1.836-3.18c.845-1.464 2.717-1.966 4.181-1.12 1.464.845 1.966 2.717 1.12 4.181l-1.836 3.18c-.845 1.463-2.717 1.965-4.181 1.12z" fill="#3762cc" data-original="#3762cc"></path></g><g><path d="m176.786 71.366c-.339 0-.683-.086-.998-.269l-2.945-1.7c-.957-.552-1.284-1.775-.732-2.732s1.775-1.285 2.732-.732l2.945 1.7c.957.552 1.284 1.775.732 2.732-.37.642-1.042 1.001-1.734 1.001z" fill="#3762cc" data-original="#3762cc"></path></g><g><path d="m187.627 67.689c-1.464-.845-1.966-2.717-1.12-4.181l1.836-3.18c.845-1.464 2.717-1.966 4.181-1.12 1.464.845 1.966 2.717 1.12 4.181l-1.836 3.18c-.845 1.464-2.717 1.966-4.181 1.12z" fill="#3762cc" data-original="#3762cc"></path></g></g><g><g><ellipse cx="160.797" cy="44.251" fill="#f9cfcf" rx="7.214" ry="4.833" transform="matrix(.475 -.88 .88 .475 45.418 164.673)" data-original="#f9cfcf"></ellipse></g><g><path d="m159.025 53.002c-.928 0-1.822-.22-2.608-.645-1.717-.928-2.826-2.77-3.042-5.054-.192-2.023.309-4.261 1.412-6.301 1.102-2.04 2.699-3.685 4.497-4.632 2.03-1.07 4.179-1.152 5.894-.224 1.688.912 2.793 2.718 3.032 4.955.117 1.098-.678 2.083-1.777 2.201-1.094.118-2.083-.679-2.201-1.777-.057-.532-.256-1.482-.956-1.86-.742-.402-1.735.037-2.127.244-1.088.573-2.125 1.665-2.844 2.996s-1.065 2.796-.948 4.021c.042.442.22 1.512.961 1.914.239.128.51.181.838.159 1.123-.061 2.057.758 2.131 1.86.075 1.102-.758 2.056-1.86 2.131-.134.008-.268.012-.402.012z" fill="#3762cc" data-original="#3762cc"></path></g></g></g></g></svg>