<svg xmlns="http://www.w3.org/2000/svg" version="1.1" xmlns:xlink="http://www.w3.org/1999/xlink" xmlns:svgjs="http://svgjs.com/svgjs" x="0" y="0" viewBox="0 0 512 512" style="enable-background:new 0 0 512 512" xml:space="preserve"><g><path xmlns="http://www.w3.org/2000/svg" d="m232 424-40 24-58.49-55.42a16 16 0 0 0 -22.81-21.6l-70.7-66.98c9.43-7.55 21.23-11.01 33.29-11.01 17.06 0 34.63 6.93 46.71 19.01z" fill="#dadcde" data-original="#dadcde"></path><path xmlns="http://www.w3.org/2000/svg" d="m328 208 160 168v32h-32v-16h-16v-16h-16v-16h-16v-16h-16v-16h-16v-16h-16v-16h-16l-24-32" fill="#dadcde" data-original="#dadcde"></path><path xmlns="http://www.w3.org/2000/svg" d="m464.006 304a7.992 7.992 0 0 1 -6.435-3.238c-7.634-10.307-1.154-21.051 3.579-28.894 2.529-4.193 5.677-9.411 4.421-11.106a1.031 1.031 0 0 0 -.167-.192c-1.526-.582-7.379 1.68-10.525 2.894-8.457 3.263-21.236 8.192-29.308-2.7-7.634-10.306-1.153-21.05 3.579-28.894 2.529-4.193 5.677-9.411 4.422-11.106a1.2 1.2 0 0 0 -.167-.192c-1.53-.581-7.38 1.68-10.526 2.894-8.457 3.262-21.237 8.192-29.307-2.7-7.634-10.306-1.154-21.05 3.578-28.894 2.529-4.193 5.677-9.411 4.421-11.106a1.17 1.17 0 0 0 -.176-.2c-1.5-.539-7.187 1.693-10.244 2.89-8.372 3.279-21.023 8.233-29.112-2.687-7.627-10.3-1.173-21.039 3.541-28.883 2.52-4.195 5.658-9.416 4.4-11.117-1.736-2.344-10.9-1.417-16.969-.8-11.383 1.151-24.285 2.458-31.437-7.2-5.3-7.151-9.161-20.45-13.253-34.53-3.355-11.542-7.157-24.624-10.746-29.47a8 8 0 0 1 12.856-9.524c5.3 7.151 9.162 20.45 13.254 34.53 3.355 11.542 7.156 24.624 10.746 29.47 1.737 2.343 10.9 1.416 16.969.8 11.384-1.151 24.286-2.457 31.437 7.2 7.627 10.3 1.173 21.039-3.54 28.882-2.521 4.195-5.658 9.417-4.4 11.118a1.139 1.139 0 0 0 .177.2c1.493.537 7.185-1.692 10.243-2.89 8.372-3.279 21.023-8.233 29.112 2.687 7.634 10.306 1.154 21.05-3.578 28.894-2.529 4.193-5.677 9.411-4.422 11.106a1.2 1.2 0 0 0 .167.192c1.527.581 7.38-1.68 10.526-2.894 8.457-3.262 21.238-8.192 29.307 2.7 7.635 10.306 1.154 21.05-3.578 28.894-2.529 4.193-5.677 9.411-4.422 11.106a1.051 1.051 0 0 0 .168.192c1.524.58 7.379-1.68 10.525-2.894 8.457-3.262 21.237-8.193 29.307 2.7 7.635 10.307 1.154 21.051-3.578 28.894-2.529 4.193-5.677 9.411-4.422 11.106a8 8 0 0 1 -6.423 12.762z" fill="#b6b9ba" data-original="#b6b9ba"></path><path xmlns="http://www.w3.org/2000/svg" d="m256 24-192 128s-40 27-40 72v32l232-152z" fill="#dadcde" data-original="#dadcde"></path><path xmlns="http://www.w3.org/2000/svg" d="m328 96v320a72 72 0 0 1 -144 0v-320a72 72 0 0 1 144 0z" fill="#c7312e" data-original="#c7312e"></path><path xmlns="http://www.w3.org/2000/svg" d="m296 112v32h-24v24h-32v-24h-24v-32h24v-24h32v24z" fill="#e9eef2" data-original="#e9eef2"></path><path xmlns="http://www.w3.org/2000/svg" d="m56 200 128-88v40l-160 104c0-24.948 11.082-42.4 32-56z" fill="#b6b9ba" data-original="#b6b9ba"></path></g></svg>