<svg xmlns="http://www.w3.org/2000/svg" version="1.1" xmlns:xlink="http://www.w3.org/1999/xlink" xmlns:svgjs="http://svgjs.com/svgjs" x="0" y="0" viewBox="0 0 511.994 511.994" style="enable-background:new 0 0 512 512" xml:space="preserve" class=""><g><g xmlns="http://www.w3.org/2000/svg"><circle style="" cx="234.664" cy="469.328" r="42.667" fill="#ffc107" data-original="#ffc107" class=""></circle><path style="" d="M256.147,511.994h-21.483c-5.891,0-10.667-4.776-10.667-10.667c0-5.891,4.776-10.667,10.667-10.667   h21.483c17.673-0.004,31.996-14.335,31.992-32.008c-0.001-2.329-0.255-4.652-0.76-6.926c-0.149-0.64-4.267-18.859-10.667-46.933   c-3.264,0.299-6.613,0.448-9.984,0.448c-72.448,0.085-117.397-36.715-117.397-95.915c0-38.4,25.195-85.035,74.944-138.667   c-4.267-20.011-8.021-37.675-10.667-51.328c-12.495-45.819,7.34-94.319,48.363-118.251c4.431-2.164,9.768-1.008,12.907,2.795   c0.661,0.811,64.96,80.853-18.539,164.267c-3.051,3.051-5.973,6.037-8.853,9.045c4.075,18.837,8.533,39.424,13.291,60.544   c8.912-2.147,18.055-3.179,27.221-3.072c43.989,0,74.667,44.971,74.667,85.333c-1.02,38.539-27.631,71.661-65.045,80.96   c6.293,27.52,10.411,45.419,10.667,46.059c6.433,28.744-11.654,57.261-40.398,63.694   C264.034,511.569,260.096,512.001,256.147,511.994z M229.821,196.41c-38.827,44.224-59.157,82.88-59.157,112.917   c0,47.467,35.008,74.667,96,74.667c1.728,0,3.456,0,5.163-0.171c-7.509-32.917-16.853-74.197-26.048-115.307   c-6.153,4.752-10.154,11.763-11.115,19.477c0,19.84,6.208,32,10.667,32c5.891,0,10.667,4.776,10.667,10.667   s-4.776,10.667-10.667,10.667c-19.2,0-32-21.333-32-53.333c1.538-17.732,11.821-33.528,27.413-42.112   C236.947,228.88,233.277,212.197,229.821,196.41z M265.448,258.682c9.621,43.115,19.52,86.805,27.371,121.28   c27.753-6.905,47.556-31.385,48.512-59.968c0-26.731-20.288-64-53.333-64C280.395,255.893,272.813,256.797,265.448,258.682   L265.448,258.682z M263.741,25.125C236.579,46.404,225,82.009,234.451,115.194c2.133,10.283,4.672,22.848,7.659,37.013   C297.725,95.994,275.411,44.197,263.741,25.125L263.741,25.125z" fill="#ffc107" data-original="#ffc107" class=""></path></g><g xmlns="http://www.w3.org/2000/svg"></g><g xmlns="http://www.w3.org/2000/svg"></g><g xmlns="http://www.w3.org/2000/svg"></g><g xmlns="http://www.w3.org/2000/svg"></g><g xmlns="http://www.w3.org/2000/svg"></g><g xmlns="http://www.w3.org/2000/svg"></g><g xmlns="http://www.w3.org/2000/svg"></g><g xmlns="http://www.w3.org/2000/svg"></g><g xmlns="http://www.w3.org/2000/svg"></g><g xmlns="http://www.w3.org/2000/svg"></g><g xmlns="http://www.w3.org/2000/svg"></g><g xmlns="http://www.w3.org/2000/svg"></g><g xmlns="http://www.w3.org/2000/svg"></g><g xmlns="http://www.w3.org/2000/svg"></g><g xmlns="http://www.w3.org/2000/svg"></g></g></svg>