<?xml version="1.0" encoding="iso-8859-1"?>
<!-- Generator: Adobe Illustrator 18.0.0, SVG Export Plug-In . SVG Version: 6.00 Build 0)  -->
<!DOCTYPE svg PUBLIC "-//W3C//DTD SVG 1.1//EN" "http://www.w3.org/Graphics/SVG/1.1/DTD/svg11.dtd">
<svg version="1.1" id="Capa_1" xmlns="http://www.w3.org/2000/svg" xmlns:xlink="http://www.w3.org/1999/xlink" x="0px" y="0px"
	 viewBox="0 0 60 60" style="enable-background:new 0 0 60 60;" xml:space="preserve">
<g>
	<path style="fill:#7383BF;" d="M9.64,55.354l-0.208-0.979C9.141,52.999,7.908,52,6.5,52h-1V8h1c1.408,0,2.641-0.999,2.932-2.375
		L9.64,4.646l41.136,8.753l-0.208,0.978C50.522,14.587,50.5,14.797,50.5,15c0,1.654,1.346,3,3,3h1v24h-1c-1.654,0-3,1.346-3,3
		c0,0.203,0.022,0.413,0.067,0.624l0.208,0.978L9.64,55.354z M7.5,50.103c1.586,0.327,2.932,1.418,3.582,2.9L48.5,45.041
		c0-0.014,0-0.027,0-0.041c0-2.415,1.721-4.435,4-4.899V19.899c-2.279-0.465-4-2.484-4-4.899c0-0.014,0-0.027,0-0.041L11.082,6.997
		c-0.65,1.482-1.996,2.573-3.582,2.9V50.103z"/>
	<g>
		<circle style="fill:#434C6D;" cx="6.5" cy="5" r="4"/>
		<path style="fill:#434C6D;" d="M6.5,10c-2.757,0-5-2.243-5-5s2.243-5,5-5s5,2.243,5,5S9.257,10,6.5,10z M6.5,2
			c-1.654,0-3,1.346-3,3s1.346,3,3,3s3-1.346,3-3S8.154,2,6.5,2z"/>
	</g>
	<g>
		<circle style="fill:#434C6D;" cx="6.5" cy="55" r="4"/>
		<path style="fill:#434C6D;" d="M6.5,60c-2.757,0-5-2.243-5-5s2.243-5,5-5s5,2.243,5,5S9.257,60,6.5,60z M6.5,52
			c-1.654,0-3,1.346-3,3s1.346,3,3,3s3-1.346,3-3S8.154,52,6.5,52z"/>
	</g>
	<g>
		<circle style="fill:#26B99A;" cx="53.5" cy="45" r="4"/>
		<path style="fill:#26B99A;" d="M53.5,50c-2.757,0-5-2.243-5-5s2.243-5,5-5s5,2.243,5,5S56.257,50,53.5,50z M53.5,42
			c-1.654,0-3,1.346-3,3s1.346,3,3,3s3-1.346,3-3S55.154,42,53.5,42z"/>
	</g>
	<g>
		<circle style="fill:#26B99A;" cx="53.5" cy="15" r="4"/>
		<path style="fill:#26B99A;" d="M53.5,20c-2.757,0-5-2.243-5-5s2.243-5,5-5s5,2.243,5,5S56.257,20,53.5,20z M53.5,12
			c-1.654,0-3,1.346-3,3s1.346,3,3,3s3-1.346,3-3S55.154,12,53.5,12z"/>
	</g>
</g>
<g>
</g>
<g>
</g>
<g>
</g>
<g>
</g>
<g>
</g>
<g>
</g>
<g>
</g>
<g>
</g>
<g>
</g>
<g>
</g>
<g>
</g>
<g>
</g>
<g>
</g>
<g>
</g>
<g>
</g>
</svg>
