<svg id="icons" enable-background="new 0 0 64 64" height="32" viewBox="0 0 64 64" width="32" xmlns="http://www.w3.org/2000/svg"><path d="m63 0h-4c-.553 0-1 .447-1 1v1h-52v-1c0-.553-.447-1-1-1h-4c-.553 0-1 .447-1 1v4c0 .553.447 1 1 1h1v52h-1c-.553 0-1 .447-1 1v4c0 .553.447 1 1 1h4c.553 0 1-.447 1-1v-1h52v1c0 .553.447 1 1 1h4c.553 0 1-.447 1-1v-4c0-.553-.447-1-1-1h-1v-52h1c.553 0 1-.447 1-1v-4c0-.553-.447-1-1-1zm-61 2h2v2h-2zm2 60h-2v-2h2zm58 0h-2v-2h2zm-2-4h-1c-.553 0-1 .447-1 1v1h-52v-1c0-.553-.447-1-1-1h-1v-52h1c.553 0 1-.447 1-1v-1h52v1c0 .553.447 1 1 1h1zm2-54h-2v-2h2z"/><path d="m51.999 10.986h-4c-.553 0-1 .447-1 1v1h-20.996v-1c0-.553-.447-1-1-1h-4c-.553 0-1 .447-1 1v3.586l-4.416 4.414h-3.586c-.553 0-1 .447-1 1v4c0 .553.447 1 1 1h1.001v21.027h-1.001c-.553 0-1 .447-1 1v4c0 .553.447 1 1 1h4c.553 0 1-.447 1-1v-1.029h20.996v1.029c0 .553.447 1 1 1h4c.553 0 1-.447 1-1v-3.615l4.384-4.385h3.618c.553 0 1-.447 1-1v-4c0-.553-.447-1-1-1h-1.001v-21.027h1.001c.553 0 1-.447 1-1v-4c0-.552-.447-1-1-1zm-5 4v.586l-4.416 4.414h-3.586c-.553 0-1 .447-1 1v1.002h-20.996v-.588l4.416-4.414h3.586c.553 0 1-.447 1-1v-1zm-7.002 9v-2h2v2zm-17.994-11h2v.99c0 .004-.002.006-.002.01s.002.006.002.01v.99h-2zm-9.002 9h2v2h-2zm2 29.028h-2v-2h2zm2-2.03v-.971c0-.553-.447-1-1-1h-.999v-21.027h.999c.553 0 1-.447 1-1v-.998h20.996v.998c0 .553.447 1 1 1h1v21.027h-1c-.553 0-1 .447-1 1v.971zm24.996 2.03h-2v-1.024c0-.002.001-.003.001-.005s-.001-.003-.001-.005v-.966h2zm9.002-9h-2v-2h2zm-2.001-4h-.999c-.553 0-1 .447-1 1v3.554l-4.445 4.446h-.557v-21.028h1c.553 0 1-.447 1-1v-3.586l4.416-4.414h.585zm2.001-23.028h-2v-2h2z"/></svg>