<?xml version="1.0" encoding="iso-8859-1"?>
<!-- Generator: Adobe Illustrator 19.0.0, SVG Export Plug-In . SVG Version: 6.00 Build 0)  -->
<svg version="1.1" id="Layer_1" xmlns="http://www.w3.org/2000/svg" xmlns:xlink="http://www.w3.org/1999/xlink" x="0px" y="0px"
	 viewBox="0 0 512 512" style="enable-background:new 0 0 512 512;" xml:space="preserve">
<path style="fill:#9B9B9B;" d="M406.905,72.758v53.895h-86.232V72.758c0-11.906,9.651-21.558,21.558-21.558h43.116
	C397.254,51.2,406.905,60.852,406.905,72.758z M169.769,51.2h-43.116c-11.906,0-21.558,9.651-21.558,21.558v53.895h86.232V72.758
	C191.327,60.852,181.675,51.2,169.769,51.2z"/>
<path style="fill:#666666;" d="M105.095,72.758h86.232v32.337h-86.232V72.758z M320.674,72.758v32.337h86.232V72.758H320.674z"/>
<path style="fill:#C1C1C1;" d="M164.432,407.731l-21.877,25.97c-14.474,17.182-35.799,27.099-58.269,27.099l0,0
	c-47.698,0-83.663-43.321-74.873-90.184l40.173-214.182c6.755-36.018,38.215-62.118,74.872-62.118h263.083
	c36.658,0,68.118,26.1,74.873,62.117l40.173,214.182c8.79,46.865-27.175,90.184-74.873,90.184l0,0
	c-22.471,0-43.795-9.918-58.269-27.099l-21.877-25.97c-14.474-17.182-35.799-27.099-58.269-27.099h-66.599
	C200.23,380.632,178.906,390.549,164.432,407.731z"/>
<g>
	<path style="fill:#9B9B9B;" d="M502.588,370.616c8.79,46.865-27.175,90.184-74.873,90.184l0,0
		c-22.471,0-43.795-9.918-58.269-27.099l-21.877-25.97c-14.474-17.182-35.799-27.099-58.269-27.099h-66.599
		c-22.471,0-43.795,9.918-58.269,27.099l-21.877,25.97c-14.474,17.182-35.799,27.099-58.269,27.099l0,0
		c-47.698,0-83.663-43.321-74.873-90.184l13.237-70.572c13.728,18.874,35.982,31.409,61.636,31.409l0,0
		c22.471,0,43.795-9.918,58.269-27.099l21.877-25.97c14.474-17.182,35.799-27.099,58.269-27.099h66.599
		c22.471,0,43.795,9.918,58.269,27.099l21.877,25.97c14.474,17.182,35.799,27.099,58.269,27.099l0,0
		c25.654,0,47.908-12.535,61.636-31.409L502.588,370.616z"/>
	<path style="fill:#9B9B9B;" d="M272.169,169.769h-32.337c-8.929,0-16.168-7.239-16.168-16.168l0,0
		c0-8.929,7.239-16.168,16.168-16.168h32.337c8.929,0,16.168,7.239,16.168,16.168l0,0
		C288.337,162.529,281.098,169.769,272.169,169.769z"/>
</g>
<path style="fill:#666666;" d="M169.769,202.105v107.789c0,11.906-9.651,21.558-21.558,21.558s-21.558-9.651-21.558-21.558V202.105
	c0-11.906,9.651-21.558,21.558-21.558S169.769,190.199,169.769,202.105z M288.337,277.558c0,11.906,9.651,21.558,21.558,21.558
	s21.558-9.651,21.558-21.558V256h-43.116V277.558z M396.126,256v21.558c0,11.906,9.651,21.558,21.558,21.558
	c11.906,0,21.558-9.651,21.558-21.558V256H396.126z M342.232,331.453c0,11.906,9.651,21.558,21.558,21.558
	c11.906,0,21.558-9.651,21.558-21.558v-21.558h-43.116V331.453z M342.232,223.663c0,11.906,9.651,21.558,21.558,21.558
	c11.906,0,21.558-9.651,21.558-21.558v-21.558h-43.116V223.663z"/>
<path style="fill:#828282;" d="M223.663,256L223.663,256c0,11.906-9.651,21.558-21.558,21.558H94.316
	c-11.906,0-21.558-9.651-21.558-21.558l0,0c0-11.906,9.651-21.558,21.558-21.558h107.789
	C214.012,234.442,223.663,244.094,223.663,256z"/>
<path style="fill:#FFE954;" d="M363.79,180.548c11.906,0,21.558,9.651,21.558,21.558c0,11.906-9.651,21.558-21.558,21.558
	c-11.906,0-21.558-9.651-21.558-21.558C342.232,190.199,351.883,180.548,363.79,180.548z"/>
<path style="fill:#91F18B;" d="M363.79,288.337c11.906,0,21.558,9.651,21.558,21.558s-9.651,21.558-21.558,21.558
	c-11.906,0-21.558-9.651-21.558-21.558S351.883,288.337,363.79,288.337z"/>
<path style="fill:#82CEAD;" d="M288.337,256c0-11.906,9.651-21.558,21.558-21.558s21.558,9.651,21.558,21.558
	c0,11.906-9.651,21.558-21.558,21.558S288.337,267.907,288.337,256z"/>
<path style="fill:#FF8355;" d="M396.126,256c0-11.906,9.651-21.558,21.558-21.558c11.906,0,21.558,9.651,21.558,21.558
	c0,11.906-9.651,21.558-21.558,21.558C405.778,277.558,396.126,267.907,396.126,256z"/>
<path d="M296.423,153.6c0-13.372-10.88-24.253-24.254-24.253h-32.338c-13.373,0-24.254,10.88-24.254,24.253
	c0,13.372,10.879,24.253,24.254,24.253h32.338C285.543,177.853,296.423,166.973,296.423,153.6z M231.746,153.6
	c0-4.458,3.626-8.084,8.084-8.084h32.338c4.458,0,8.084,3.626,8.084,8.084s-3.626,8.084-8.084,8.084h-32.337
	C235.374,161.684,231.746,158.058,231.746,153.6z M80.835,256c0,7.43,6.045,13.474,13.475,13.474h32.338
	c4.465,0,8.084,3.618,8.084,8.084c0,4.466-3.62,8.084-8.084,8.084H94.31c-16.345,0-29.643-13.298-29.643-29.642
	s13.297-29.642,29.643-29.642h24.254v-24.253c0-16.344,13.298-29.642,29.643-29.642s29.643,13.298,29.643,29.642
	c0,4.466-3.62,8.084-8.084,8.084c-4.465,0-8.084-3.618-8.084-8.084c0-7.43-6.045-13.474-13.475-13.474s-13.475,6.044-13.475,13.474
	v32.337c0,4.466-3.62,8.084-8.084,8.084H94.31C86.88,242.527,80.835,248.57,80.835,256z M118.563,309.895
	c0-4.466,3.62-8.084,8.084-8.084c4.465,0,8.084,3.618,8.084,8.084c0,7.43,6.045,13.474,13.475,13.474s13.475-6.044,13.475-13.474
	v-32.337c0-4.466,3.62-8.084,8.084-8.084h32.338c7.43,0,13.475-6.044,13.475-13.474c0-7.43-6.045-13.474-13.475-13.474h-32.338
	c-4.465,0-8.084-3.618-8.084-8.084c0-4.466,3.62-8.084,8.084-8.084h32.338c16.345,0,29.643,13.298,29.643,29.642
	s-13.298,29.642-29.643,29.642H177.85v24.253c0,16.344-13.298,29.642-29.643,29.642S118.563,326.239,118.563,309.895z
	 M363.795,172.463c-16.345,0-29.643,13.298-29.643,29.642s13.298,29.642,29.643,29.642c16.345,0,29.643-13.298,29.643-29.642
	S380.14,172.463,363.795,172.463z M363.795,215.579c-7.43,0-13.475-6.044-13.475-13.474c0-7.43,6.045-13.474,13.475-13.474
	c7.43,0,13.475,6.044,13.475,13.474C377.27,209.535,371.225,215.579,363.795,215.579z M492.577,438.433
	c-16.061,19.353-39.699,30.452-64.854,30.452c-24.913,0-48.406-10.926-64.456-29.975l-21.878-25.971
	c-12.968-15.393-31.953-24.224-52.088-24.224H256c-4.465,0-8.084-3.618-8.084-8.084s3.62-8.084,8.084-8.084h33.301
	c24.914,0,48.407,10.926,64.456,29.975l21.878,25.971c12.969,15.394,31.954,24.224,52.088,24.224
	c20.329,0,39.433-8.969,52.41-24.608c12.971-15.631,18.263-36.042,14.519-56.001l-40.174-214.183
	c-6.034-32.173-34.183-55.523-66.931-55.523h-2.194c-4.466,0-8.084-3.618-8.084-8.084s3.62-8.084,8.084-8.084h2.194
	c3.816,0,7.583,0.257,11.28,0.753V72.758c0-7.43-6.045-13.474-13.475-13.474h-43.118c-7.43,0-13.475,6.044-13.475,13.474v13.474
	h24.254c4.466,0,8.084,3.618,8.084,8.084s-3.62,8.084-8.084,8.084H169.765c-4.465,0-8.084-3.618-8.084-8.084s3.62-8.084,8.084-8.084
	h13.475V72.758c0-7.43-6.045-13.474-13.475-13.474h-43.118c-7.43,0-13.475,6.044-13.475,13.474v14.227
	c3.697-0.497,7.463-0.753,11.28-0.753h12.974c4.465,0,8.084,3.618,8.084,8.084s-3.62,8.084-8.084,8.084h-12.974
	c-32.748,0-60.896,23.35-66.931,55.523L17.348,372.107c-3.744,19.96,1.548,40.371,14.519,56.001
	c12.979,15.639,32.082,24.608,52.41,24.608c20.135,0,39.12-8.829,52.088-24.224l21.878-25.971
	c16.048-19.05,39.54-29.975,64.455-29.975c4.465,0,8.084,3.618,8.084,8.084s-3.62,8.084-8.084,8.084
	c-20.135,0-39.12,8.829-52.088,24.224l-21.878,25.971c-16.047,19.05-39.54,29.975-64.455,29.975
	c-25.155,0-48.793-11.099-64.854-30.452C3.371,419.09-3.179,393.828,1.455,369.125l40.175-214.183
	c5.706-30.419,27.386-54.465,55.374-64.12V72.758c0-16.344,13.298-29.642,29.643-29.642h43.118
	c16.345,0,29.643,13.298,29.643,29.642v13.474h113.184V72.758c0-16.344,13.298-29.642,29.643-29.642h43.118
	c16.345,0,29.643,13.298,29.643,29.642v18.064c27.986,9.655,49.667,33.701,55.373,64.12l40.175,214.183
	C515.179,393.827,508.63,419.09,492.577,438.433z M417.692,285.642c16.345,0,29.643-13.298,29.643-29.642
	s-13.298-29.642-29.643-29.642c-16.345,0-29.643,13.298-29.643,29.642S401.347,285.642,417.692,285.642z M417.692,242.527
	c7.43,0,13.475,6.044,13.475,13.474c0,7.43-6.045,13.474-13.475,13.474S404.217,263.43,404.217,256
	C404.217,248.57,410.262,242.527,417.692,242.527z M309.898,226.358c-16.345,0-29.643,13.298-29.643,29.642
	s13.298,29.642,29.643,29.642c16.345,0,29.643-13.298,29.643-29.642S326.242,226.358,309.898,226.358z M309.898,269.474
	c-7.43,0-13.475-6.044-13.475-13.474c0-7.43,6.045-13.474,13.475-13.474s13.475,6.044,13.475,13.474
	C323.373,263.43,317.328,269.474,309.898,269.474z M363.795,280.253c-16.345,0-29.643,13.298-29.643,29.642
	s13.298,29.642,29.643,29.642c16.345,0,29.643-13.298,29.643-29.642S380.14,280.253,363.795,280.253z M363.795,323.369
	c-7.43,0-13.475-6.044-13.475-13.474s6.045-13.474,13.475-13.474c7.43,0,13.475,6.044,13.475,13.474
	S371.225,323.369,363.795,323.369z"/>
<g>
</g>
<g>
</g>
<g>
</g>
<g>
</g>
<g>
</g>
<g>
</g>
<g>
</g>
<g>
</g>
<g>
</g>
<g>
</g>
<g>
</g>
<g>
</g>
<g>
</g>
<g>
</g>
<g>
</g>
</svg>
