<svg xmlns="http://www.w3.org/2000/svg" version="1.1" xmlns:xlink="http://www.w3.org/1999/xlink" xmlns:svgjs="http://svgjs.com/svgjs" x="0" y="0" viewBox="0 0 64 64" style="enable-background:new 0 0 512 512" xml:space="preserve"><g><path xmlns="http://www.w3.org/2000/svg" d="m16 42.497v.01h-3c-.01 1.11-1.35 2-3 2s-2.99-.89-3-2h-3v-.01c-1.66 0-3 1.34-3 3v3.001c.001.553.447.999 1 .999h16c.553 0 .999-.446 1-.999v-3.001c0-1.66-1.34-3-3-3z" fill="#5d9cec" data-original="#5d9cec"/><path xmlns="http://www.w3.org/2000/svg" d="m16 42.497v.01h-1.904c1.613.053 2.902 1.363 2.902 2.99v3.001c-.001.553-.447.999-1 .999h2.002c.553 0 .999-.446 1-.999v-3.001c0-1.66-1.34-3-3-3z" fill="#4a89dc" data-original="#4a89dc"/><path xmlns="http://www.w3.org/2000/svg" d="m60 42.497v.01h-3c-.01 1.11-1.35 2-3 2s-2.99-.89-3-2h-3v-.01c-1.66 0-3 1.34-3 3v3.001c.001.553.447.999 1 .999h16c.553 0 .999-.446 1-.999v-3.001c0-1.66-1.34-3-3-3z" fill="#5d9cec" data-original="#5d9cec"/><path xmlns="http://www.w3.org/2000/svg" d="m60 42.497v.01h-1.904c1.613.053 2.902 1.363 2.902 2.99v3.001c-.001.553-.447.999-1 .999h2.002c.553 0 .999-.446 1-.999v-3.001c0-1.66-1.34-3-3-3z" fill="#4a89dc" data-original="#4a89dc"/><path xmlns="http://www.w3.org/2000/svg" d="m31.981 10.502c-.553 0-1-.447-1-1 0-1.654 1.346-3 3-3 .553 0 1 .447 1 1s-.447 1-1 1c-.552 0-1 .448-1 1 0 .553-.447 1-1 1z" fill="#656d78" data-original="#656d78"/><path xmlns="http://www.w3.org/2000/svg" d="m36.98 8.5c-.553 0-1-.447-1-1s.447-1 1-1c.551 0 .998-.447.998-.998s-.447-.998-.998-.998c-.553 0-1-.447-1-1s.447-1 1-1c1.653 0 2.998 1.345 2.998 2.998s-1.344 2.998-2.998 2.998z" fill="#656d78" data-original="#656d78"/><path xmlns="http://www.w3.org/2000/svg" d="m36.98 4.503h-9.996c-.553 0-1-.447-1-1s.447-1 1-1h9.996c.553 0 1 .447 1 1s-.447 1-1 1z" fill="#656d78" data-original="#656d78"/><path xmlns="http://www.w3.org/2000/svg" d="m36.98 8.502h-2.999c-.553 0-1-.447-1-1s.447-1 1-1h2.999c.553 0 1 .447 1 1s-.447 1-1 1z" fill="#656d78" data-original="#656d78"/><path xmlns="http://www.w3.org/2000/svg" d="m31.981 11.504c-.553 0-1-.447-1-1v-1.002c0-.553.447-1 1-1s1 .447 1 1v1.002c0 .553-.447 1-1 1z" fill="#656d78" data-original="#656d78"/><path xmlns="http://www.w3.org/2000/svg" d="m27 20.517c-2.76 0-5-2.24-5-5s2.24-5 5-5h10c2.76 0 5 2.24 5 5s-2.24 5-5 5c-2.05 0-3.811-1.24-4.58-3h-.84c-.769 1.759-2.53 3-4.58 3z" fill="#e6e9ed" data-original="#e6e9ed"/><path xmlns="http://www.w3.org/2000/svg" d="m57 39.837v2.66.01.01c-.02 1.101-1.35 1.99-3 1.99s-2.98-.89-3-1.99c0-.01 0-.01 0-.02v-2.66-.01c.91.439 1.93.68 3 .68 1.08 0 2.09-.24 3-.68z" fill="#eac6bb" data-original="#eac6bb"/><path xmlns="http://www.w3.org/2000/svg" d="m61 28.507v2.01l-2-1.979-.03-.011c-.27.11-2.489 1-5.029 1-2.721 0-4.94-1.02-4.94-1.02v.02l-2 2.011v-2.03c0-3.86 3.13-6.99 7-6.99s6.999 3.128 6.999 6.989z" fill="#656d78" data-original="#656d78"/><path xmlns="http://www.w3.org/2000/svg" d="m54 21.517c-.341 0-.673.032-1 .079 3.393.486 5.998 3.391 5.998 6.911v.029l.002.001 2 1.979v-2.01c0-3.86-3.13-6.989-7-6.989z" fill="#545c66" data-original="#545c66"/><path xmlns="http://www.w3.org/2000/svg" d="m61 33.507v.01c0 2.79-1.64 5.2-4 6.311-.91.439-1.92.68-3 .68-1.07 0-2.09-.24-3-.68-2.359-1.11-4-3.521-4-6.311v-.01-2.97l2-2.011v-.02s2.22 1.02 4.94 1.02c2.54 0 4.76-.89 5.029-1l.031.011 2 1.979z" fill="#eac6bb" data-original="#eac6bb"/><path xmlns="http://www.w3.org/2000/svg" d="m59 28.537-.002-.001v4.971.01c0 2.79-1.64 5.2-4 6.311-.621.3-1.292.499-1.996.601.326.047.658.079.998.079 1.08 0 2.09-.24 3-.68 2.36-1.11 4-3.521 4-6.311v-.01-2.99z" fill="#d3b1a9" data-original="#d3b1a9"/><path xmlns="http://www.w3.org/2000/svg" d="m41 36.526v2.98c0 3.53-2.04 6.58-5 8.05-1.2.601-2.57.94-4 .94s-2.8-.34-4-.94c-2.95-1.46-4.98-4.49-5-8.01v-.04-2.98l3-2.029s3.01 1 6.5 1 5.5-1 5.5-1z" fill="#eac6bb" data-original="#eac6bb"/><path xmlns="http://www.w3.org/2000/svg" d="m38 34.497-.002.001v5.009c0 3.53-2.039 6.58-5 8.05-.771.386-1.617.649-2.499.8.491.083.989.141 1.501.141 1.43 0 2.8-.34 4-.94 2.96-1.47 5-4.52 5-8.05v-2.98z" fill="#d3b1a9" data-original="#d3b1a9"/><path xmlns="http://www.w3.org/2000/svg" d="m36 47.566v3.931c0 1.66-1.79 3.01-4 3.01s-4-1.35-4-3.01v-3.931-.01c1.2.601 2.57.94 4 .94s2.8-.34 4-.94z" fill="#eac6bb" data-original="#eac6bb"/><path xmlns="http://www.w3.org/2000/svg" d="m28 51.497c0 1.66 1.79 3.01 4 3.01s4-1.35 4-3.01h3c2.76 0 5 2.24 5 5v4c0 .55-.45 1-1 1h-22c-.55 0-1-.45-1-1v-4c0-2.76 2.24-5 5-5z" fill="#5d9cec" data-original="#5d9cec"/><path xmlns="http://www.w3.org/2000/svg" d="m39 51.497h-3c2.76.001 4.998 2.24 4.998 5v4c0 .55-.449 1-1 1h3.002c.55 0 1-.45 1-1v-4c0-2.76-2.24-5-5-5z" fill="#4a89dc" data-original="#4a89dc"/><path xmlns="http://www.w3.org/2000/svg" d="m41 33.497v3.029l-3-2.029s-2.01 1-5.5 1-6.5-1-6.5-1l-3 2.029v-3.029c0-4.42 3.58-8 8-8h6v4c2.21 0 4 1.79 4 4z" fill="#965353" data-original="#965353"/><path xmlns="http://www.w3.org/2000/svg" d="m41 36.526v-3.029c0-2.21-1.79-4-4-4v-4h-3v4c0 1.657 1.344 3 3 3 .551 0 1 .448 1 1v1z" fill="#844747" data-original="#844747"/><path xmlns="http://www.w3.org/2000/svg" d="m13 42.497v.01c-.01 1.11-1.35 2-3 2s-2.99-.89-3-2v-.01-2.681c.91.44 1.93.681 3 .681 1.08 0 2.09-.24 3-.681z" fill="#eac6bb" data-original="#eac6bb"/><path xmlns="http://www.w3.org/2000/svg" d="m17 29.007v1.37c-1.721-2.25-2.76-2.66-4-2.4l2-4.06c1.24 1.33 2 3.12 2 5.09z" fill="#f6bb42" data-original="#f6bb42"/><path xmlns="http://www.w3.org/2000/svg" d="m15 23.917-2 4.06c-1.87.391-4.189 2.34-10 1.66-.32-.04-.65-.08-1-.14v-.49c0-4.15 3.359-7.5 7.5-7.5 2.18 0 4.141.93 5.5 2.41z" fill="#ffce54" data-original="#ffce54"/><path xmlns="http://www.w3.org/2000/svg" d="m17 33.497v.01c0 2.78-1.641 5.19-4 6.31-.91.44-1.92.681-3 .681-1.07 0-2.09-.24-3-.681-2.359-1.119-4-3.529-4-6.31v-.01-3.86c5.811.68 8.13-1.27 10-1.66 1.24-.26 2.279.15 4 2.4z" fill="#eac6bb" data-original="#eac6bb"/><path xmlns="http://www.w3.org/2000/svg" d="m14.999 28.355v5.142.01c0 2.78-1.64 5.19-4 6.31-.622.301-1.292.5-1.997.602.327.046.658.078.998.078 1.08 0 2.09-.24 3-.681 2.359-1.119 4-3.529 4-6.31v-.01-3.12c-.781-1.021-1.418-1.648-2.001-2.021z" fill="#d3b1a9" data-original="#d3b1a9"/><path xmlns="http://www.w3.org/2000/svg" d="m37 21.512c-2.032 0-3.9-1.029-5-2.691-1.1 1.662-2.968 2.691-5 2.691-3.309 0-6-2.691-6-6s2.691-6 6-6h10c3.309 0 6 2.691 6 6s-2.691 6-6 6zm-5.422-5h.844c.397 0 .757.235.916.599.639 1.459 2.076 2.401 3.662 2.401 2.206 0 4-1.794 4-4s-1.794-4-4-4h-10c-2.206 0-4 1.794-4 4s1.794 4 4 4c1.586 0 3.023-.942 3.662-2.401.159-.364.519-.599.916-.599z" fill="#e6e9ed" data-original="#e6e9ed"/><g xmlns="http://www.w3.org/2000/svg" fill="#656d78"><path d="m27 18.512c-.553 0-1-.447-1-1v-4c0-.553.447-1 1-1s1 .447 1 1v4c0 .552-.447 1-1 1z" fill="#656d78" data-original="#656d78"/><path d="m29 16.512h-4c-.553 0-1-.447-1-1s.447-1 1-1h4c.553 0 1 .447 1 1s-.447 1-1 1z" fill="#656d78" data-original="#656d78"/><path d="m35.063 16.509c-.553 0-1.005-.447-1.005-1s.442-1 .994-1h.011c.552 0 1 .447 1 1s-.448 1-1 1z" fill="#656d78" data-original="#656d78"/><path d="m37.063 14.509c-.553 0-1.005-.447-1.005-1s.442-1 .994-1h.011c.552 0 1 .447 1 1s-.448 1-1 1z" fill="#656d78" data-original="#656d78"/><path d="m37.065 18.511c-.553 0-1.005-.447-1.005-1s.442-1 .994-1h.011c.552 0 1 .447 1 1s-.448 1-1 1z" fill="#656d78" data-original="#656d78"/><path d="m39.065 16.511c-.553 0-1.005-.447-1.005-1s.442-1 .994-1h.011c.552 0 1 .447 1 1s-.448 1-1 1z" fill="#656d78" data-original="#656d78"/></g></g></svg>