<svg xmlns="http://www.w3.org/2000/svg" version="1.1" xmlns:xlink="http://www.w3.org/1999/xlink" xmlns:svgjs="http://svgjs.com/svgjs" x="0" y="0" viewBox="0 0 512 512" style="enable-background:new 0 0 512 512" xml:space="preserve"><g><path xmlns="http://www.w3.org/2000/svg" d="m406.818 93.288c-5.503-6.165-13.179-9.052-20.722-8.674-1.583.079-2.907-1.244-2.828-2.828.378-7.543-2.509-15.219-8.674-20.722-9.98-8.909-25.396-8.674-35.118.515-10.686 10.1-10.866 26.955-.539 37.282.01.01.019.019.029.029 1.544 1.538 1.6 4.014.059 5.555l-42.085 42.085 24.412 24.412 42.085-42.085c1.541-1.541 4.016-1.485 5.555.059l.029.029c10.327 10.327 27.181 10.147 37.281-.538 9.189-9.723 9.425-25.138.516-35.119z" fill="#ded0cb" data-original="#ded0cb"></path><path xmlns="http://www.w3.org/2000/svg" d="m407.5 94.083c-3.42-4.146-7.783-6.922-12.47-8.355 2.663 8.709.698 18.574-5.877 25.53-10.1 10.686-26.954 10.865-37.281.538l-.029-.029c-1.544-1.544-4.07-1.544-5.614 0l-42.026 42.026 17.148 17.148 42.085-42.085c1.52-1.52 3.985-1.517 5.502.006l.082.082c10.531 10.531 27.849 10.136 37.871-1.183 8.384-9.468 8.658-23.923.609-33.678z" fill="#b8abab" data-original="#b8abab"></path><path xmlns="http://www.w3.org/2000/svg" d="m286.901 270.41c-24.695 24.695-64.734 24.695-89.429 0s-24.695-64.734 0-89.429 95.611-55.572 120.306-30.877-6.181 95.611-30.877 120.306z" fill="#a95e2c" data-original="#a95e2c"></path><path xmlns="http://www.w3.org/2000/svg" d="m317.778 150.104c-2.616-2.616-5.755-4.602-9.298-6.044-4.166 29.83-22.956 65.746-39.106 81.895-24.695 24.695-64.734 24.695-89.429 0-.336-.336-.649-.685-.976-1.026-.198 16.438 5.96 32.939 18.503 45.482 24.695 24.695 64.734 24.695 89.429 0 24.696-24.696 55.573-95.612 30.877-120.307z" fill="#8f4e24" data-original="#8f4e24"></path><path xmlns="http://www.w3.org/2000/svg" d="m505.456 152.283c-5.503-6.165-13.179-9.052-20.722-8.674-1.583.079-2.907-1.244-2.828-2.828.378-7.543-2.509-15.219-8.674-20.722-9.98-8.909-25.396-8.674-35.118.515-10.686 10.1-10.866 26.955-.539 37.282.01.01.019.019.029.029 1.544 1.538 1.6 4.014.059 5.555l-42.085 42.085 24.412 24.412 42.085-42.085c1.541-1.541 4.016-1.485 5.555.059.01.01.019.019.029.029 10.327 10.327 27.181 10.147 37.281-.538 9.189-9.723 9.425-25.139.516-35.119z" fill="#ded0cb" data-original="#ded0cb"></path><path xmlns="http://www.w3.org/2000/svg" d="m506.139 153.079c-3.42-4.146-7.784-6.923-12.47-8.356 2.663 8.709.698 18.574-5.877 25.531-10.1 10.686-26.954 10.865-37.281.538-1.556-1.563-4.106-1.566-5.665-.006l-42.003 42.003 17.148 17.148 42.032-42.032c1.544-1.544 4.067-1.541 5.607.006l.029.029c10.53 10.53 27.847 10.136 37.869-1.182 8.384-9.468 8.659-23.923.611-33.679z" fill="#b8abab" data-original="#b8abab"></path><path xmlns="http://www.w3.org/2000/svg" d="m312.5 192.375h-76.662c-96.66 0-175.019 78.359-175.019 175.019v42.729c0 14.498 11.753 26.251 26.251 26.251h225.43c62.96 0 114-51.04 114-114v-15.999c0-62.96-51.039-114-114-114z" fill="#d57e4b" data-original="#d57e4b"></path><path xmlns="http://www.w3.org/2000/svg" d="m385.409 218.74c2.581 9.525 3.966 19.543 3.966 29.885v15.999c0 62.96-51.04 114-114 114h-214.556v31.499c0 14.498 11.753 26.251 26.252 26.251h225.429c62.96 0 114-51.04 114-114v-15.999c0-35.23-15.984-66.723-41.091-87.635z" fill="#c56e37" data-original="#c56e37"></path><path xmlns="http://www.w3.org/2000/svg" d="m385.539 329.405c-24.695 24.695-64.734 24.695-89.429 0s-24.695-64.734 0-89.429 95.611-55.572 120.306-30.877-6.181 95.611-30.877 120.306z" fill="#a95e2c" data-original="#a95e2c"></path><path xmlns="http://www.w3.org/2000/svg" d="m416.416 209.098c-2.616-2.616-5.755-4.602-9.298-6.044-4.166 29.83-22.956 65.745-39.106 81.895-24.695 24.695-64.734 24.695-89.429 0-.336-.336-.649-.685-.976-1.026-.198 16.438 5.96 32.939 18.503 45.482 24.695 24.695 64.734 24.695 89.429 0 24.696-24.695 55.573-95.611 30.877-120.307z" fill="#8f4e24" data-original="#8f4e24"></path><path xmlns="http://www.w3.org/2000/svg" d="m495.472 457.467h-480.285c-8.387 0-15.187-6.799-15.187-15.187v-2.293c0-8.388 6.8-15.188 15.187-15.188h480.285c9.019 0 16.33 7.311 16.33 16.33v.008c0 9.019-7.311 16.33-16.33 16.33z" fill="#ded0cb" data-original="#ded0cb"></path><path xmlns="http://www.w3.org/2000/svg" d="m495.472 424.799h-46.635c8.712 0 15.775 7.063 15.775 15.775v1.119c0 8.712-7.063 15.775-15.775 15.775h46.635c9.019 0 16.33-7.311 16.33-16.33v-.008c0-9.02-7.311-16.331-16.33-16.331z" fill="#c9beb9" data-original="#c9beb9"></path><g xmlns="http://www.w3.org/2000/svg" fill="#a95e2c"><circle cx="145.946" cy="299.121" r="10.189" fill="#a95e2c" data-original="#a95e2c"></circle><circle cx="193.204" cy="328.769" r="10.189" fill="#a95e2c" data-original="#a95e2c"></circle><circle cx="124.619" cy="328.769" r="10.189" fill="#a95e2c" data-original="#a95e2c"></circle></g></g></svg>