<svg xmlns="http://www.w3.org/2000/svg" version="1.1" xmlns:xlink="http://www.w3.org/1999/xlink" xmlns:svgjs="http://svgjs.com/svgjs" x="0" y="0" viewBox="0 0 512 512" style="enable-background:new 0 0 512 512" xml:space="preserve"><g><path xmlns="http://www.w3.org/2000/svg" d="m408.480469 52.066406c11.03125 18.734375 16.8125 40.09375 16.738281 61.832032 0 49.308593-32.53125 91.472656-69.421875 123.46875v30.78125c0 19.652343 15.929687 35.582031 35.578125 35.582031h7.8125v14.75c0 15.839843 18.875 28.636719 34.710938 28.636719h17.355468v34.714843c0 14.375 11.65625 26.03125 26.035156 26.03125 14.378907 0 26.03125-11.65625 26.03125-26.03125v-225.628906c0-60.539063-34.484374-103.804687-94.839843-104.136719zm0 0" fill="#f6db6d" data-original="#f6db6d"></path><path xmlns="http://www.w3.org/2000/svg" d="m94.839844 52.066406c-11.03125 18.734375-16.8125 40.09375-16.738282 61.832032 0 49.308593 32.535157 91.472656 69.425782 123.46875v30.78125c0 19.652343-15.929688 35.582031-35.582032 35.582031h-7.808593v14.75c0 15.839843-18.882813 28.636719-34.714844 28.636719h-17.355469v34.714843c0 14.375-11.65625 26.03125-26.03125 26.03125-14.378906 0-26.035156-11.65625-26.035156-26.03125v-225.628906c0-60.539063 34.484375-103.804687 94.839844-104.136719zm0 0" fill="#f6db6d" data-original="#f6db6d"></path><path xmlns="http://www.w3.org/2000/svg" d="m251.660156 303.730469s173.558594-75.933594 173.558594-189.832031c0-62.90625-46.625-113.898438-104.132812-113.898438-30.84375 0-50.332032 14.664062-69.425782 37.964844-19.089844-23.300782-38.582031-37.964844-69.421875-37.964844-57.511719 0-104.136719 50.992188-104.136719 113.898438 0 113.898437 173.558594 189.832031 173.558594 189.832031zm0 0" fill="#ff6c77" data-original="#ff6c77"></path><path xmlns="http://www.w3.org/2000/svg" d="m130.820312 69.421875c-3.332031 0-6.367187-1.902344-7.816406-4.902344-1.445312-3-1.050781-6.5625 1.023438-9.171875 13.890625-18.167968 35.339844-28.96875 58.210937-29.3125 4.792969 0 8.675781 3.882813 8.675781 8.675782 0 4.792968-3.882812 8.679687-8.675781 8.679687-17.570312.363281-34.011719 8.742187-44.625 22.753906-1.644531 2.070313-4.144531 3.277344-6.792969 3.277344zm0 0" fill="#fe9189" data-original="#fe9189"></path><path xmlns="http://www.w3.org/2000/svg" d="m116.8125 147.527344c-3.78125-.007813-7.125-2.46875-8.261719-6.078125-2.875-8.902344-4.367187-18.195313-4.414062-27.550781-.003907-6.796876.695312-13.578126 2.089843-20.226563.613282-3.0625 2.820313-5.558594 5.785157-6.539063 2.960937-.980468 6.222656-.292968 8.539062 1.796876 2.316407 2.09375 3.332031 5.269531 2.660157 8.316406-1.15625 5.476562-1.738282 11.054687-1.738282 16.652344.050782 7.582031 1.265625 15.113281 3.601563 22.328124.832031 2.636719.355469 5.511719-1.28125 7.738282-1.632813 2.226562-4.234375 3.542968-6.996094 3.542968zm0 0" fill="#fe9189" data-original="#fe9189"></path><path xmlns="http://www.w3.org/2000/svg" d="m286.371094 59.746094c-3.5.015625-6.664063-2.074219-8.027344-5.300782-1.359375-3.222656-.652344-6.949218 1.796875-9.449218 10.03125-12.246094 25.117187-19.234375 40.945313-18.960938 4.792968 0 8.675781 3.882813 8.675781 8.675782 0 4.792968-3.882813 8.679687-8.675781 8.679687-11.132813-.199219-21.699219 4.890625-28.480469 13.71875-1.636719 1.6875-3.882813 2.636719-6.234375 2.636719zm0 0" fill="#fe9189" data-original="#fe9189"></path><path xmlns="http://www.w3.org/2000/svg" d="m451.253906 355.796875c-4.792968 0-8.675781-3.886719-8.675781-8.679687v-182.234376c0-4.792968 3.882813-8.679687 8.675781-8.679687 4.792969 0 8.679688 3.886719 8.679688 8.679687v182.234376c0 4.792968-3.886719 8.679687-8.679688 8.679687zm0 0" fill="#f59f57" data-original="#f59f57"></path><path xmlns="http://www.w3.org/2000/svg" d="m399.1875 312.40625c-4.792969 0-8.679688-3.882812-8.679688-8.675781v-60.746094c0-4.792969 3.886719-8.679687 8.679688-8.679687s8.675781 3.886718 8.675781 8.679687v60.746094c0 4.792969-3.882812 8.675781-8.675781 8.675781zm0 0" fill="#f59f57" data-original="#f59f57"></path><g xmlns="http://www.w3.org/2000/svg" fill="#9c63ad"><path d="m269.015625 373.152344c-2.300781 0-4.507813-.914063-6.132813-2.542969l-11.222656-11.21875-11.21875 11.21875c-3.40625 3.289063-8.820312 3.242187-12.164062-.105469-3.347656-3.347656-3.394532-8.757812-.109375-12.164062l17.359375-17.355469c3.386718-3.390625 8.878906-3.390625 12.269531 0l17.355469 17.355469c2.480468 2.480468 3.222656 6.214844 1.878906 9.457031-1.339844 3.242187-4.503906 5.355469-8.015625 5.355469zm0 0" fill="#9c63ad" data-original="#9c63ad"></path><path d="m251.660156 425.21875c-4.792968 0-8.675781-3.882812-8.675781-8.675781v-69.425781c0-4.792969 3.882813-8.675782 8.675781-8.675782 4.792969 0 8.679688 3.882813 8.679688 8.675782v69.425781c0 4.792969-3.886719 8.675781-8.679688 8.675781zm0 0" fill="#9c63ad" data-original="#9c63ad"></path><path d="m138.847656 433.898438c-2.300781 0-4.507812-.914063-6.136718-2.542969l-11.21875-11.21875-11.222657 11.21875c-3.402343 3.289062-8.816406 3.242187-12.164062-.105469-3.347657-3.347656-3.394531-8.761719-.105469-12.164062l17.355469-17.355469c3.390625-3.390625 8.882812-3.390625 12.269531 0l17.359375 17.355469c2.480469 2.480468 3.222656 6.210937 1.878906 9.453124-1.34375 3.246094-4.507812 5.359376-8.015625 5.359376zm0 0" fill="#9c63ad" data-original="#9c63ad"></path><path d="m121.492188 512c-4.792969 0-8.679688-3.886719-8.679688-8.679688v-95.457031c0-4.792969 3.886719-8.675781 8.679688-8.675781 4.792968 0 8.675781 3.882812 8.675781 8.675781v95.457031c0 4.792969-3.882813 8.679688-8.675781 8.679688zm0 0" fill="#9c63ad" data-original="#9c63ad"></path><path d="m399.1875 433.898438c-2.300781 0-4.507812-.914063-6.136719-2.542969l-11.21875-11.21875-11.222656 11.21875c-3.40625 3.289062-8.816406 3.242187-12.164063-.105469-3.347656-3.347656-3.394531-8.761719-.105468-12.164062l17.355468-17.355469c3.386719-3.390625 8.882813-3.390625 12.269532 0l17.355468 17.355469c2.484376 2.480468 3.226563 6.210937 1.882813 9.453124-1.34375 3.246094-4.507813 5.359376-8.015625 5.359376zm0 0" fill="#9c63ad" data-original="#9c63ad"></path><path d="m381.832031 512c-4.792969 0-8.679687-3.886719-8.679687-8.679688v-95.457031c0-4.792969 3.886718-8.675781 8.679687-8.675781s8.675781 3.882812 8.675781 8.675781v95.457031c0 4.792969-3.882812 8.679688-8.675781 8.679688zm0 0" fill="#9c63ad" data-original="#9c63ad"></path></g><path xmlns="http://www.w3.org/2000/svg" d="m52.066406 355.796875c-4.792968 0-8.675781-3.886719-8.675781-8.679687v-182.234376c0-4.792968 3.882813-8.679687 8.675781-8.679687 4.792969 0 8.679688 3.886719 8.679688 8.679687v182.234376c0 4.792968-3.886719 8.679687-8.679688 8.679687zm0 0" fill="#f59f57" data-original="#f59f57"></path><path xmlns="http://www.w3.org/2000/svg" d="m104.136719 312.40625c-4.792969 0-8.679688-3.882812-8.679688-8.675781v-60.746094c0-4.792969 3.886719-8.679687 8.679688-8.679687s8.675781 3.886718 8.675781 8.679687v60.746094c0 4.792969-3.882812 8.675781-8.675781 8.675781zm0 0" fill="#f59f57" data-original="#f59f57"></path><path xmlns="http://www.w3.org/2000/svg" d="m251.660156 477.289062c-4.792968 0-8.675781-3.886718-8.675781-8.679687v-17.355469c0-4.792968 3.882813-8.675781 8.675781-8.675781 4.792969 0 8.679688 3.882813 8.679688 8.675781v17.355469c0 4.792969-3.886719 8.679687-8.679688 8.679687zm0 0" fill="#9c63ad" data-original="#9c63ad"></path></g></svg>