<svg height="32" viewBox="0 0 512 512.00048" width="32" xmlns="http://www.w3.org/2000/svg"><path d="m137.171875 76.800781c2.605469 0 5.066406-1.1875 6.683594-3.226562 10.433593-13.773438 26.601562-22.019531 43.878906-22.375 4.710937 0 8.53125-3.820313 8.53125-8.53125 0-4.714844-3.820313-8.535157-8.53125-8.535157-22.488281.339844-43.582031 10.960938-57.242187 28.828126-2.039063 2.5625-2.425782 6.066406-1.003907 9.015624 1.425781 2.949219 4.410157 4.824219 7.683594 4.824219zm0 0"/><path d="m115.277344 147.628906c.8125 3.027344 3.222656 5.363282 6.273437 6.085938s6.25-.285156 8.335938-2.625c2.085937-2.339844 2.722656-5.636719 1.65625-8.582032-2.300781-7.101562-3.496094-14.511718-3.542969-21.972656 0-5.503906.570312-10.992187 1.707031-16.375.664063-3-.335937-6.121094-2.613281-8.175781-2.277344-2.058594-5.484375-2.734375-8.398438-1.769531-2.914062.964844-5.085937 3.417968-5.6875 6.429687-1.378906 6.539063-2.074218 13.203125-2.074218 19.890625.046875 9.199219 1.511718 18.335938 4.34375 27.09375zm0 0"/><path d="m290.132812 67.285156c2.304688.007813 4.515626-.914062 6.128907-2.558594 6.664062-8.695312 17.054687-13.710937 28.003906-13.527343 4.714844 0 8.535156-3.820313 8.535156-8.53125 0-4.714844-3.820312-8.535157-8.535156-8.535157-15.566406-.257812-30.398437 6.621094-40.257813 18.671876-2.390624 2.460937-3.078124 6.113281-1.742187 9.273437 1.339844 3.160156 4.4375 5.210937 7.867187 5.207031zm0 0"/><path d="m264.535156 370.464844 2.5 2.503906c3.347656 3.230469 8.667969 3.1875 11.960938-.105469 3.292968-3.292969 3.335937-8.613281.105468-11.960937l-17.066406-17.066406c-1.601562-1.605469-3.777344-2.507813-6.042968-2.507813-2.265626 0-4.441407.902344-6.042969 2.507813l-17.066407 17.066406c-3.234374 3.347656-3.1875 8.667968.105469 11.960937 3.289063 3.292969 8.613281 3.335938 11.960938.105469l2.519531-2.503906v47.667968c0 4.714844 3.820312 8.535157 8.53125 8.535157 4.714844 0 8.535156-3.820313 8.535156-8.535157zm0 0"/><path d="m128 512c4.714844 0 8.535156-3.820312 8.535156-8.53125v-73.269531l2.5 2.5c3.347656 3.234375 8.667969 3.1875 11.960938-.101563 3.292968-3.292968 3.335937-8.617187.105468-11.964844l-17.066406-17.066406c-1.601562-1.605468-3.777344-2.507812-6.042968-2.507812-2.265626 0-4.441407.902344-6.042969 2.507812l-17.066407 17.066406c-3.234374 3.347657-3.1875 8.671876.105469 11.964844 3.289063 3.289063 8.613281 3.335938 11.960938.101563l2.519531-2.5v73.269531c0 4.710938 3.820312 8.53125 8.53125 8.53125zm0 0"/><path d="m384 512c4.714844 0 8.535156-3.820312 8.535156-8.53125v-73.269531l2.5 2.5c3.347656 3.234375 8.667969 3.1875 11.960938-.101563 3.292968-3.292968 3.335937-8.617187.105468-11.964844l-17.066406-17.066406c-1.601562-1.605468-3.777344-2.507812-6.042968-2.507812-2.265626 0-4.441407.902344-6.042969 2.507812l-17.066407 17.066406c-3.234374 3.347657-3.1875 8.671876.105469 11.964844 3.289063 3.289063 8.613281 3.335938 11.960938.101563l2.519531-2.5v73.269531c0 4.710938 3.820312 8.53125 8.53125 8.53125zm0 0"/><path d="m34.132812 418.132812c18.851563 0 34.132813-15.28125 34.132813-34.132812v-25.597656h8.535156c19.730469 0 42.667969-16.042969 42.667969-36.695313v-5.972656c23.683594-.507813 42.628906-19.832031 42.664062-43.519531v-11.949219c27.972657 21.625 58.320313 39.984375 90.453126 54.726563 2.175781.949218 4.652343.949218 6.828124 0 32.132813-14.742188 62.480469-33.101563 90.453126-54.726563v11.949219c.03125 23.691406 18.980468 43.019531 42.667968 43.519531v5.972656c0 20.683594 22.9375 36.695313 42.664063 36.695313h8.535156v25.597656c0 18.851562 15.28125 34.132812 34.132813 34.132812 18.851562 0 34.132812-15.28125 34.132812-34.132812v-221.867188c0-65.289062-37.921875-108.152343-96.964844-110.667968-19.484375-31.527344-53.710937-50.933594-90.769531-51.464844-26.5625-.0859375-51.707031 11.972656-68.265625 32.742188-16.558594-20.769532-41.703125-32.8281255-68.265625-32.742188-37.058594.53125-71.285156 19.9375-90.769531 51.464844-59.042969 2.515625-96.964844 45.378906-96.964844 110.667968v221.867188c0 18.851562 15.28125 34.132812 34.132812 34.132812zm390.527344-348.789062c43.726563 6.3125 70.273438 40.738281 70.273438 92.789062v221.867188c0 9.425781-7.640625 17.066406-17.066406 17.066406-9.425782 0-17.066407-7.640625-17.066407-17.066406v-213.332031c0-4.714844-3.820312-8.535157-8.535156-8.535157-4.710937 0-8.53125 3.820313-8.53125 8.535157v170.664062h-8.535156c-11.28125 0-25.597657-9.257812-25.597657-19.625v-74.238281c0-4.714844-3.820312-8.535156-8.535156-8.535156-4.710937 0-8.53125 3.820312-8.53125 8.535156v51.113281c-14.242187-.460937-25.5625-12.117187-25.601562-26.367187v-26.148438c19.953125-17.152344 36.910156-37.511718 50.175781-60.234375.433594-.785156.855469-1.578125 1.3125-2.363281.898437-1.707031 1.707031-3.363281 2.5625-5.0625.664063-1.347656 1.3125-2.703125 1.9375-4.0625.640625-1.414062 1.269531-2.832031 1.875-4.265625.761719-1.800781 1.453125-3.609375 2.125-5.417969.417969-1.117187.855469-2.21875 1.246094-3.34375 1.023437-2.988281 1.964843-5.976562 2.765625-8.96875.128906-.480468.214844-.964844.332031-1.433594.671875-2.648437 1.261719-5.296874 1.765625-7.945312.179688-.972656.324219-1.945312.488281-2.929688.375-2.300781.691407-4.613281.929688-6.9375.101562-.953124.214843-1.910156.289062-2.875.265625-3.222656.4375-6.457031.4375-9.691406 0-4.351562-.238281-8.644531-.660156-12.878906-.101563-1.023438-.296875-2.03125-.425781-3.046875-.390625-3.242187-.851563-6.457031-1.476563-9.617187-.230469-1.140626-.542969-2.269532-.851562-3.410157-.683594-3.003906-1.425781-5.976562-2.3125-8.886719-.367188-1.183593-.792969-2.351562-1.1875-3.53125-.953125-2.808593-1.960938-5.582031-3.097657-8.292968-.144531-.496094-.289062-1.023438-.503906-1.527344zm-236.925781-52.277344c27.9375 0 44.859375 13.652344 61.660156 34.210938 1.679688 1.886718 4.082031 2.964844 6.605469 2.964844s4.925781-1.078126 6.605469-2.964844c16.800781-20.558594 33.722656-34.210938 61.660156-34.210938 34.554687.746094 65.824219 20.652344 81.121094 51.644532.980469 1.851562 1.890625 3.738281 2.753906 5.640624.613281 1.347657 1.21875 2.695313 1.785156 4.070313.5625 1.375 1.046875 2.679687 1.535157 4.027344.5625 1.554687 1.074218 3.125 1.570312 4.710937.367188 1.195313.765625 2.371094 1.089844 3.582032.734375 2.667968 1.371094 5.382812 1.914062 8.140624.179688.949219.304688 1.90625.46875 2.851563.363282 2.171875.667969 4.371094.914063 6.589844.101562.953125.203125 1.917969.289062 2.882812.246094 3.070313.425781 6.179688.425781 9.328125 0 2.789063-.144531 5.546875-.367187 8.292969-.066406.777344-.167969 1.5625-.246094 2.339844-.214843 2.03125-.46875 4.050781-.800781 6.058593-.128906.765626-.265625 1.542969-.410156 2.3125-.40625 2.148438-.867188 4.28125-1.390625 6.398438-.136719.527344-.257813 1.066406-.402344 1.597656-21.898437 82.363282-137.089844 140.15625-158.515625 150.277344-40.285156-19.085938-77.410156-44.234375-110.078125-74.5625l-.566406-.539062c-1.972657-1.945313-3.914063-3.917969-5.816407-5.921876-.257812-.273437-.53125-.535156-.785156-.808593-1.949218-2.054688-3.855468-4.144531-5.726562-6.265625l-.488282-.546875c-1.945312-2.222657-3.84375-4.476563-5.699218-6.765625l-.179688-.214844c-11.546875-13.882812-20.597656-29.664062-26.75-46.640625l-.121094-.394531c-.851562-2.457032-1.578124-4.949219-2.253906-7.464844-.167968-.640625-.316406-1.28125-.476562-1.910156-.503906-2.03125-.9375-4.074219-1.332032-6.121094-.152343-.851562-.296874-1.644531-.433593-2.472656-.324219-1.972656-.574219-3.953125-.785157-5.972656-.085937-.804688-.1875-1.605469-.257812-2.410157-.222656-2.738281-.367188-5.492187-.367188-8.285156 0-3.148437.179688-6.246094.429688-9.324219.082031-.964844.1875-1.929687.289062-2.894531.238282-2.21875.546876-4.402344.914063-6.578125.160156-.949219.289063-1.902344.46875-2.851562.535156-2.753907 1.171875-5.464844 1.910156-8.140626.324219-1.210937.726563-2.398437 1.101563-3.59375.484375-1.578124.996094-3.140624 1.550781-4.675781.496094-1.371093 1.007813-2.738281 1.5625-4.085937s1.128906-2.628906 1.707031-3.933594c1-2.175781 2.058594-4.328125 3.191406-6.445312 15.410157-30.605469 46.464844-50.199219 80.726563-50.925782zm-170.667969 145.066406c0-52.050781 26.546875-86.476562 70.28125-92.789062-.214844.476562-.351562.988281-.554687 1.476562-1.152344 2.746094-2.175781 5.5625-3.140625 8.421876-.390625 1.140624-.851563 2.269531-1.160156 3.414062-.894532 2.925781-1.636719 5.921875-2.328126 8.949219-.257812 1.125-.574218 2.234375-.804687 3.371093-.628906 3.15625-1.082031 6.375-1.476563 9.625-.125 1.015626-.324218 2.015626-.425781 3.039063-.417969 4.265625-.65625 8.53125-.65625 12.875 0 3.234375.171875 6.46875.433594 9.695313.078125.964843.1875 1.917968.292969 2.875.238281 2.320312.554687 4.632812.929687 6.9375.160157.980468.304688 1.953124.484375 2.925781.507813 2.652343 1.097656 5.300781 1.765625 7.945312.121094.46875.207031.957031.335938 1.433594.800781 2.996094 1.703125 5.972656 2.761719 8.96875.386718 1.128906.855468 2.226563 1.246093 3.347656.675781 1.808594 1.367188 3.617188 2.125 5.417969.605469 1.433594 1.238281 2.847656 1.878907 4.265625.640624 1.417969 1.269531 2.714844 1.9375 4.0625.851562 1.707031 1.707031 3.414063 2.558593 5.058594.417969.785156.855469 1.578125 1.316407 2.363281 13.269531 22.734375 30.234374 43.097656 50.199218 60.253906v26.148438c-.023437 14.257812-11.347656 25.933594-25.597656 26.390625v-51.136719c0-4.714844-3.824219-8.535156-8.535156-8.535156-4.710938 0-8.535156 3.820312-8.535156 8.535156v74.238281c0 10.402344-14.316407 19.625-25.597657 19.625h-8.535156v-170.664062c0-4.714844-3.820313-8.535157-8.53125-8.535157-4.714844 0-8.535156 3.820313-8.535156 8.535157v213.332031c0 9.425781-7.640625 17.066406-17.066407 17.066406-9.425781 0-17.066406-7.640625-17.066406-17.066406zm0 0"/><path d="m256 443.734375c-4.710938 0-8.53125 3.820313-8.53125 8.53125v17.066406c0 4.714844 3.820312 8.535157 8.53125 8.535157 4.714844 0 8.535156-3.820313 8.535156-8.535157v-17.066406c0-4.710937-3.820312-8.53125-8.535156-8.53125zm0 0"/></svg>