<svg xmlns="http://www.w3.org/2000/svg" version="1.1" xmlns:xlink="http://www.w3.org/1999/xlink" xmlns:svgjs="http://svgjs.com/svgjs" x="0" y="0" viewBox="0 0 512 512" style="enable-background:new 0 0 512 512" xml:space="preserve"><g><g xmlns="http://www.w3.org/2000/svg"><g><path d="m107.653 152.767h-30v-122.767h-33.24v-30h63.24z" fill="#6cbeee" data-original="#6cbeee"></path></g><path d="m133.886 332.346-88.045-.228.088-24.036 46.321-60.967c10.265-13.188 10.265-19.561 10.265-21.655 0-11.722-8.555-15.881-15.881-15.881-7.634 0-14.304 5.341-15.515 12.423-.247 1.444-.541 4.347-.536 9.982v.25h-30v-.225c-.003-4.026.093-9.967.965-15.065 3.702-21.651 22.664-37.366 45.086-37.366 26.156 0 45.881 19.725 45.881 45.881 0 12.781-5.254 25.496-16.533 40.007l-27.929 36.76 45.911.119z" fill="#fdae02" data-original="#fdae02"></path><path d="m135.132 404.925c0-25.194-20.497-45.692-45.692-45.692-21.785 0-40.64 15.499-44.834 36.852l29.438 5.782c1.438-7.32 7.913-12.634 15.396-12.634 8.652 0 15.692 7.039 15.692 15.692s-7.04 15.692-15.692 15.692v30c8.652 0 15.692 7.039 15.692 15.692 0 8.652-7.04 15.692-15.692 15.692-7.786 0-14.466-5.797-15.539-13.48-.101-.727-.152-1.471-.152-2.212h-30c0 2.12.148 4.257.44 6.354 3.129 22.426 22.584 39.337 45.251 39.337 25.195 0 45.692-20.497 45.692-45.692 0-11.803-4.499-22.575-11.871-30.692 7.372-8.116 11.871-18.888 11.871-30.691z" fill="#a079ff" data-original="#a079ff"></path><g><path d="m247.315 13.383h-71.441v67.282c0 32.377 26.341 58.718 58.718 58.718h71.441z" fill="#6cbeee" data-original="#6cbeee"></path><path d="m471.418 139.383v-67.282c0-32.377-26.341-58.718-58.718-58.718h-89.054l-10.001 63 10.001 63z" fill="#e1e1e6" data-original="#e1e1e6"></path><path d="m247.315 80.665c0 32.377 26.341 58.718 58.718 58.718h17.613v-126h-76.331z" fill="#ebebf0" data-original="#ebebf0"></path></g><g><path d="m247.315 192.962h-71.441v67.282c0 32.377 26.341 58.718 58.718 58.718h71.441z" fill="#fdae02" data-original="#fdae02"></path><path d="m471.418 318.962v-67.282c0-32.377-26.341-58.718-58.718-58.718h-89.054l-10.001 63.038 10.001 62.963h147.772z" fill="#e1e1e6" data-original="#e1e1e6"></path><path d="m247.315 260.245c0 32.377 26.341 58.718 58.718 58.718h17.613v-126h-76.331z" fill="#ebebf0" data-original="#ebebf0"></path></g><g><path d="m247.315 372.617h-71.441v67.282c0 32.377 26.341 58.718 58.718 58.718h71.441z" fill="#a079ff" data-original="#a079ff"></path><path d="m471.418 498.617v-67.282c0-32.377-26.341-58.718-58.718-58.718h-89.054l-10.001 65.883 10.001 60.117z" fill="#e1e1e6" data-original="#e1e1e6"></path><path d="m247.315 439.899c0 32.377 26.341 58.718 58.718 58.718h17.613v-126h-76.331z" fill="#ebebf0" data-original="#ebebf0"></path></g></g></g></svg>