<svg xmlns="http://www.w3.org/2000/svg" version="1.1" xmlns:xlink="http://www.w3.org/1999/xlink" xmlns:svgjs="http://svgjs.com/svgjs" x="0" y="0" viewBox="0 0 512 512" style="enable-background:new 0 0 512 512" xml:space="preserve"><g><path xmlns="http://www.w3.org/2000/svg" style="" d="M445.217,489.739H66.783c-24.588,0-44.522-19.934-44.522-44.522V66.783  c0-24.588,19.933-44.522,44.522-44.522h378.435c24.588,0,44.522,19.933,44.522,44.522v378.435  C489.739,469.806,469.806,489.739,445.217,489.739z" fill="#eaffff" data-original="#eaffff"></path><path xmlns="http://www.w3.org/2000/svg" style="" d="M133.565,55.652L133.565,55.652c0,12.295-9.966,22.261-22.261,22.261H66.783  c-12.295,0-22.261-9.966-22.261-22.261H22.261C9.966,55.652,0,45.686,0,33.391l0,0C0,21.097,9.966,11.13,22.261,11.13h55.652  c12.295,0,22.261,9.966,22.261,22.261l0,0h11.13C123.599,33.391,133.565,43.357,133.565,55.652z" fill="#c5ead4" data-original="#c5ead4"></path><g xmlns="http://www.w3.org/2000/svg"><path style="" d="M512,489.739c0,12.295-9.966,22.261-22.261,22.261H22.261C9.966,512,0,502.034,0,489.739V389.565   h512V489.739z" fill="#84837a" data-original="#84837a"></path><path style="" d="M208.696,33.391v55.652c0,4.61-3.738,8.348-8.348,8.348c-4.61,0-8.348-3.738-8.348-8.348V33.391   c0-4.61,3.738-8.348,8.348-8.348C204.958,25.043,208.696,28.781,208.696,33.391z M289.391,25.043c-4.61,0-8.348,3.738-8.348,8.348   v55.652c0,4.61,3.738,8.348,8.348,8.348s8.348-3.738,8.348-8.348V33.391C297.739,28.781,294.002,25.043,289.391,25.043z" fill="#84837a" data-original="#84837a"></path></g><path xmlns="http://www.w3.org/2000/svg" style="" d="M211.478,389.565H55.652V139.13c0-3.073,2.492-5.565,5.565-5.565h150.261V389.565z" fill="#727c7c" data-original="#727c7c"></path><path xmlns="http://www.w3.org/2000/svg" style="" d="M155.826,450.783c0,4.61-3.738,8.348-8.348,8.348H25.043c-4.61,0-8.348-3.738-8.348-8.348  s3.738-8.348,8.348-8.348h122.435C152.088,442.435,155.826,446.172,155.826,450.783z M317.217,442.435H194.783  c-4.61,0-8.348,3.738-8.348,8.348s3.738,8.348,8.348,8.348h122.435c4.61,0,8.348-3.738,8.348-8.348S321.828,442.435,317.217,442.435  z M486.957,442.435H364.522c-4.61,0-8.348,3.738-8.348,8.348s3.738,8.348,8.348,8.348h122.435c4.61,0,8.348-3.738,8.348-8.348  S491.567,442.435,486.957,442.435z" fill="#d3d5bb" data-original="#d3d5bb"></path><path xmlns="http://www.w3.org/2000/svg" style="" d="M489.739,92.128v297.437H322.783H166.957V83.478c0-3.073,2.492-5.565,5.565-5.565h144.696  c3.073,0,5.565,2.492,5.565,5.565v8.649C322.783,92.128,489.739,92.128,489.739,92.128z" fill="#b9baa6" data-original="#b9baa6"></path><path xmlns="http://www.w3.org/2000/svg" style="" d="M500.87,389.565H322.783V289.391H500.87V389.565z" fill="#8e9a9b" data-original="#8e9a9b"></path><path xmlns="http://www.w3.org/2000/svg" style="" d="M445.217,389.565h-66.783V289.391h66.783V389.565z" fill="#a9b9bb" data-original="#a9b9bb"></path><path xmlns="http://www.w3.org/2000/svg" style="" d="M92.721,250.191l13.785,103.392c2.541,19.053-12.281,35.982-31.504,35.982h-27.57  c-19.221,0-34.044-16.929-31.504-35.982l13.785-103.392c2.105-15.79,15.574-27.582,31.504-27.582l0,0  C77.147,222.609,90.616,234.401,92.721,250.191z" fill="#606d11" data-original="#606d11"></path><path xmlns="http://www.w3.org/2000/svg" style="" d="M116.87,311.652h33.391c21.515,0,38.957,17.441,38.957,38.957l0,0  c0,21.515-17.441,38.957-38.957,38.957H116.87c-21.515,0-38.957-17.441-38.957-38.957l0,0  C77.913,329.094,95.354,311.652,116.87,311.652z" fill="#a9a632" data-original="#a9a632"></path><path xmlns="http://www.w3.org/2000/svg" style="" d="M133.565,116.87v77.913c0,3.073-2.492,5.565-5.565,5.565h-22.261c-3.073,0-5.565-2.492-5.565-5.565  V116.87c0-3.073,2.492-5.565,5.565-5.565H128C131.073,111.304,133.565,113.796,133.565,116.87z M322.783,5.565  c0-3.073-2.492-5.565-5.565-5.565H172.522c-3.073,0-5.565,2.492-5.565,5.565v33.391c0,3.073,2.492,5.565,5.565,5.565h144.696  c3.073,0,5.565-2.492,5.565-5.565V5.565z M498.254,87.408l-83.478-52.174c-1.804-1.128-4.095-1.128-5.899,0l-83.478,52.174  c-1.627,1.017-2.616,2.8-2.616,4.719v41.438V292.73H500.87V133.565V92.128C500.87,90.209,499.881,88.426,498.254,87.408z" fill="#ff7039" data-original="#ff7039"></path><path xmlns="http://www.w3.org/2000/svg" style="" d="M389.565,201.09v32.649c0,3.073-2.492,5.565-5.565,5.565h-22.261c-3.073,0-5.565-2.492-5.565-5.565  V201.09c0-3.073,2.492-5.565,5.565-5.565H384C387.073,195.525,389.565,198.016,389.565,201.09z M411.826,73.461  c-9.22,0-16.696,7.475-16.696,16.696s7.475,16.696,16.696,16.696c9.22,0,16.696-7.475,16.696-16.696S421.047,73.461,411.826,73.461z   M461.913,195.525h-22.261c-3.073,0-5.565,2.492-5.565,5.565v32.649c0,3.073,2.492,5.565,5.565,5.565h22.261  c3.073,0,5.565-2.492,5.565-5.565V201.09C467.478,198.016,464.986,195.525,461.913,195.525z" fill="#ffed8f" data-original="#ffed8f"></path><path xmlns="http://www.w3.org/2000/svg" style="" d="M195.896,161.391V139.13c0-3.073,2.492-5.565,5.565-5.565h74.017c3.073,0,5.565,2.492,5.565,5.565  v22.261c0,3.073-2.492,5.565-5.565,5.565h-74.017C198.388,166.957,195.896,164.464,195.896,161.391z M283.826,200.348h-82.365  c-3.073,0-5.565,2.492-5.565,5.565v22.261c0,3.073,2.492,5.565,5.565,5.565h82.365c3.073,0,5.565-2.492,5.565-5.565v-22.261  C289.391,202.84,286.899,200.348,283.826,200.348z M275.478,267.13h-74.017c-3.073,0-5.565,2.492-5.565,5.565v22.261  c0,3.073,2.492,5.565,5.565,5.565h74.017c3.073,0,5.565-2.492,5.565-5.565v-22.261C281.043,269.623,278.551,267.13,275.478,267.13z" fill="#f2f2e7" data-original="#f2f2e7"></path><path xmlns="http://www.w3.org/2000/svg" style="" d="M512,272.696v22.261c0,3.073-2.492,5.565-5.565,5.565H317.217c-3.073,0-5.565-2.492-5.565-5.565  v-22.261c0-3.073,2.492-5.565,5.565-5.565h189.217C509.508,267.13,512,269.623,512,272.696z M506.435,133.565H317.217  c-3.073,0-5.565,2.492-5.565,5.565v22.261c0,3.073,2.492,5.565,5.565,5.565h189.217c3.073,0,5.565-2.492,5.565-5.565V139.13  C512,136.057,509.508,133.565,506.435,133.565z" fill="#a07040" data-original="#a07040"></path><path xmlns="http://www.w3.org/2000/svg" style="" d="M512,389.565c0,4.61-3.738,8.348-8.348,8.348H8.348c-4.61,0-8.348-3.738-8.348-8.348  c0-4.61,3.738-8.348,8.348-8.348h495.304C508.262,381.217,512,384.955,512,389.565z" fill="#606d11" data-original="#606d11"></path><g xmlns="http://www.w3.org/2000/svg"></g><g xmlns="http://www.w3.org/2000/svg"></g><g xmlns="http://www.w3.org/2000/svg"></g><g xmlns="http://www.w3.org/2000/svg"></g><g xmlns="http://www.w3.org/2000/svg"></g><g xmlns="http://www.w3.org/2000/svg"></g><g xmlns="http://www.w3.org/2000/svg"></g><g xmlns="http://www.w3.org/2000/svg"></g><g xmlns="http://www.w3.org/2000/svg"></g><g xmlns="http://www.w3.org/2000/svg"></g><g xmlns="http://www.w3.org/2000/svg"></g><g xmlns="http://www.w3.org/2000/svg"></g><g xmlns="http://www.w3.org/2000/svg"></g><g xmlns="http://www.w3.org/2000/svg"></g><g xmlns="http://www.w3.org/2000/svg"></g></g></svg>