<svg xmlns="http://www.w3.org/2000/svg" version="1.1" xmlns:xlink="http://www.w3.org/1999/xlink" xmlns:svgjs="http://svgjs.com/svgjs" x="0" y="0" viewBox="0 0 512 512" style="enable-background:new 0 0 512 512" xml:space="preserve"><g><g xmlns="http://www.w3.org/2000/svg"><path d="m447 339h-80.5v-181c0-8.284-6.716-15-15-15h-80.5v-38c0-8.284-6.716-15-15-15s-15 6.716-15 15v38h-80.5c-8.284 0-15 6.716-15 15v181h-80.5c-8.284 0-15 6.716-15 15v53c0 8.284 6.716 15 15 15s15-6.716 15-15v-38h161v38c0 8.284 6.716 15 15 15s15-6.716 15-15v-38h161v38c0 8.284 6.716 15 15 15s15-6.716 15-15v-53c0-8.284-6.716-15-15-15zm-110.5 0h-161v-166h161z" fill="#005edf" data-original="#005edf"></path><path d="m447 339h-80.5v-181c0-8.284-6.716-15-15-15h-80.5v-38c0-8.284-6.716-15-15-15v83h80.5v166h-80.5v83c8.284 0 15-6.716 15-15v-38h161v38c0 8.284 6.716 15 15 15s15-6.716 15-15v-53c0-8.284-6.716-15-15-15z" fill="#3630a2" data-original="#3630a2"></path><path d="m306 120h-100c-8.284 0-15-6.716-15-15v-90c0-8.284 6.716-15 15-15h100c8.284 0 15 6.716 15 15v90c0 8.284-6.716 15-15 15z" fill="#ffef4a" data-original="#ffef4a"></path><path d="m306 512h-100c-8.284 0-15-6.716-15-15v-90c0-8.284 6.716-15 15-15h100c8.284 0 15 6.716 15 15v90c0 8.284-6.716 15-15 15z" fill="#ffef4a" data-original="#ffef4a"></path><path d="m497 512h-100c-8.284 0-15-6.716-15-15v-90c0-8.284 6.716-15 15-15h100c8.284 0 15 6.716 15 15v90c0 8.284-6.716 15-15 15z" fill="#ffcb00" data-original="#ffcb00"></path><path d="m115 512h-100c-8.284 0-15-6.716-15-15v-90c0-8.284 6.716-15 15-15h100c8.284 0 15 6.716 15 15v90c0 8.284-6.716 15-15 15z" fill="#ffef4a" data-original="#ffef4a"></path><path d="m210.5 316h-100c-8.284 0-15-6.716-15-15v-90c0-8.284 6.716-15 15-15h100c8.284 0 15 6.716 15 15v90c0 8.284-6.716 15-15 15z" fill="#ffef4a" data-original="#ffef4a"></path><g fill="#ffcb00"><path d="m401.5 316h-100c-8.284 0-15-6.716-15-15v-90c0-8.284 6.716-15 15-15h100c8.284 0 15 6.716 15 15v90c0 8.284-6.716 15-15 15z" fill="#ffcb00" data-original="#ffcb00"></path><path d="m306 512c8.284 0 15-6.716 15-15v-90c0-8.284-6.716-15-15-15h-50v120z" fill="#ffcb00" data-original="#ffcb00"></path><path d="m321 105v-90c0-8.284-6.716-15-15-15h-50v120h50c8.284 0 15-6.716 15-15z" fill="#ffcb00" data-original="#ffcb00"></path></g></g></g></svg>