<svg xmlns="http://www.w3.org/2000/svg" version="1.1" xmlns:xlink="http://www.w3.org/1999/xlink" xmlns:svgjs="http://svgjs.com/svgjs" x="0" y="0" viewBox="0 0 511 511.99967" style="enable-background:new 0 0 512 512" xml:space="preserve" class=""><g><path xmlns="http://www.w3.org/2000/svg" d="m497.308594.199219h-328.472656c-8.996094-1.5-17.394532 5.695312-17.394532 14.695312v91.261719c0 2.398438.601563 4.796875 1.800782 6.898438l152.039062 295.382812c1.800781 3.300781 4.5 5.699219 8.097656 7.199219 3.863282 1.289062 13.9375 5.398437 17.992188 5.398437h1.199218c3.261719-.546875 15.039063-5.515625 18.59375-6.898437 28.488282-11.097657 76.46875-30.285157 113.957032-73.171875 30.585937-35.085938 47.179687-78.867188 47.179687-129.546875v-196.222657c0-8.398437-6.597656-14.996093-14.992187-14.996093zm0 0" fill="#ff7816" data-original="#ff7816"></path><path xmlns="http://www.w3.org/2000/svg" d="m512.300781 15.191406v196.226563c0 50.679687-16.59375 94.460937-47.179687 129.546875-37.484375 42.882812-85.46875 62.074218-113.957032 73.171875-3.554687 1.378906-15.328124 6.351562-18.59375 6.898437v-420.835937h164.738282c8.394531 0 14.992187 6.597656 14.992187 14.992187zm0 0" fill="#f03800" data-original="#f03800" class=""></path><path xmlns="http://www.w3.org/2000/svg" d="m429.625 119.570312-59.976562-29.988281c-7.410157-3.703125-10.410157-12.710937-6.707032-20.121093 3.71875-7.40625 12.722656-10.367188 20.117188-6.703126l59.976562 29.988282c7.410156 3.703125 10.414063 12.707031 6.707032 20.117187-3.683594 7.347657-12.632813 10.421875-20.117188 6.707031zm0 0" fill="#663325" data-original="#663325"></path><path xmlns="http://www.w3.org/2000/svg" d="m348.488281 152.355469c-8.140625-1.070313-15.785156 4.554687-16.972656 12.722656l-.144531 91.019531c0 8.289063 6.707031 14.996094 14.996094 14.996094h74.96875v14.992188c0 8.289062 6.707031 14.996093 14.996093 14.996093 8.285157 0 14.992188-6.707031 14.992188-14.996093v-14.992188c0-57.3125-42.910157-110.179688-102.835938-118.738281zm0 0" fill="#663325" data-original="#663325"></path><path xmlns="http://www.w3.org/2000/svg" d="m213 112.863281c-3.707031-7.410156-.703125-16.414062 6.707031-20.117187l59.976563-29.988282c7.394531-3.664062 16.398437-.703124 20.117187 6.703126 3.707031 7.410156.703125 16.417968-6.707031 20.121093l-59.976562 29.988281c-7.480469 3.714844-16.433594.640626-20.117188-6.707031zm0 0" fill="#804231" data-original="#804231" class=""></path><path xmlns="http://www.w3.org/2000/svg" d="m346.367188 91.164062h-328.472657c-8.996093-1.5-17.394531 5.695313-17.394531 14.695313v195.222656c0 50.980469 16.59375 94.460938 47.179688 129.847657 28.789062 32.988281 74.371093 62.175781 128.953124 80.167968 1.496094.601563 3.296876.902344 4.796876.902344 2.097656 0 4.195312-.601562 6.296874-1.5 29.988282-12.507812 84.542969-30.480469 127.449219-79.570312 30.589844-35.085938 46.183594-78.867188 46.183594-129.546876v-195.226562c0-8.398438-6.597656-14.992188-14.992187-14.992188zm0 0" fill="#ffd400" data-original="#ffd400" class=""></path><path xmlns="http://www.w3.org/2000/svg" d="m361.359375 106.15625v195.226562c0 50.679688-15.59375 94.460938-46.179687 129.546876-42.910157 49.085937-97.460938 67.0625-127.453126 79.570312-2.097656.898438-4.195312 1.5-6.296874 1.5v-420.835938h164.9375c8.394531 0 14.992187 6.59375 14.992187 14.992188zm0 0" fill="#ff9f00" data-original="#ff9f00" class=""></path><path xmlns="http://www.w3.org/2000/svg" d="m129.742188 209.535156-59.976563-29.988281c-7.410156-3.703125-10.414063-12.710937-6.707031-20.121094 3.703125-7.40625 12.722656-10.378906 20.117187-6.703125l59.976563 29.988282c7.410156 3.703124 10.410156 12.707031 6.707031 20.117187-3.683594 7.347656-12.632813 10.421875-20.117187 6.707031zm0 0" fill="#804231" data-original="#804231" class=""></path><path xmlns="http://www.w3.org/2000/svg" d="m213 202.828125c-3.707031-7.410156-.703125-16.414063 6.707031-20.117187l59.976563-29.988282c7.394531-3.675781 16.398437-.703125 20.117187 6.703125 3.707031 7.410157.703125 16.417969-6.707031 20.121094l-59.976562 29.988281c-7.480469 3.714844-16.433594.640625-20.117188-6.707031zm0 0" fill="#663325" data-original="#663325"></path><path xmlns="http://www.w3.org/2000/svg" d="m286.390625 241.105469c-8.398437 0-14.996094 6.597656-14.996094 14.992187v14.996094h-179.929687v-14.996094c0-8.394531-6.597656-14.992187-14.996094-14.992187-8.394531 0-14.992188 6.597656-14.992188 14.992187v14.996094c0 62.972656 51.578126 119.953125 119.953126 119.953125s119.953124-56.980469 119.953124-119.953125v-14.996094c0-8.394531-6.597656-14.992187-14.992187-14.992187zm0 0" fill="#804231" data-original="#804231" class=""></path><path xmlns="http://www.w3.org/2000/svg" d="m301.382812 256.097656v14.996094c0 62.972656-51.578124 119.953125-119.953124 119.953125v-119.953125h89.964843v-14.996094c0-8.394531 6.597657-14.992187 14.996094-14.992187 8.394531 0 14.992187 6.597656 14.992187 14.992187zm0 0" fill="#663325" data-original="#663325"></path></g></svg>