<svg xmlns="http://www.w3.org/2000/svg" version="1.1" xmlns:xlink="http://www.w3.org/1999/xlink" xmlns:svgjs="http://svgjs.com/svgjs" x="0" y="0" viewBox="0 0 64 64" style="enable-background:new 0 0 512 512" xml:space="preserve"><g><path xmlns="http://www.w3.org/2000/svg" d="m32 2-8.66 15h17.32z" fill="#ffca36" data-original="#ffca36"/><path xmlns="http://www.w3.org/2000/svg" d="m46 46h16v16h-16z" fill="#05c116" data-original="#05c116"/><circle xmlns="http://www.w3.org/2000/svg" cx="10" cy="54" fill="#f73445" r="8" data-original="#f73445"/><g xmlns="http://www.w3.org/2000/svg" fill="#4d4dff"><path d="m8.42285 43.333a25.03242 25.03242 0 0 1 13.16015-31.0664l.834 1.81836a23.03213 23.03213 0 0 0 -12.1084 28.582z" fill="#4d4dff" data-original="#4d4dff"/><path d="m32 59a24.82315 24.82315 0 0 1 -10.00684-2.084l.80079-1.832a23.08492 23.08492 0 0 0 17.83105.2451l.75 1.85352a24.86112 24.86112 0 0 1 -9.375 1.81738z" fill="#4d4dff" data-original="#4d4dff"/><path d="m55.91943 42.291-1.91308-.582a23.03609 23.03609 0 0 0 -10.86426-26.835l.9707-1.748a25.0337 25.0337 0 0 1 11.80664 29.165z" fill="#4d4dff" data-original="#4d4dff"/></g></g></svg>