<svg xmlns="http://www.w3.org/2000/svg" version="1.1" xmlns:xlink="http://www.w3.org/1999/xlink" xmlns:svgjs="http://svgjs.com/svgjs" x="0" y="0" viewBox="0 0 512 512" style="enable-background:new 0 0 512 512" xml:space="preserve" class=""><g><g xmlns="http://www.w3.org/2000/svg"><g><path d="m208.128 177.778 300.515 300.516-26.989 26.989-300.516-300.516" fill="#9d6b6b" data-original="#9d6b6b"></path><path d="m205.229 203.764 288.972 288.972-12.547 12.547-288.972-288.972" fill="#8b5e5e" data-original="#8b5e5e"></path><path d="m218.017 165.481-22.26-22.26-.006.001-29.734-67.264-162.66-75.958 75.959 162.66 67.265 29.735.001-.001-.001.003 22.26 22.26c7.038 7.038 18.448 7.038 25.486 0l23.69-23.69c7.038-7.038 7.038-18.448 0-25.486z" fill="#ffc250" data-original="#ffc250" class=""></path><path d="m3.357 0 75.959 162.66 67.265 29.735.002-.002-.002.004 22.26 22.26c7.038 7.038 18.448 7.038 25.486 0l11.912-11.912z" fill="#e7a52e" data-original="#e7a52e"></path></g><g><path d="m505.845 83.578-309.292 309.292-74.069-74.069 309.292-309.292 66.909 7.169z" fill="#ede6e3" data-original="#ede6e3" class=""></path><path d="m498.685 16.678-331.277 331.276-37.038-37.038 301.406-301.407z" fill="#d8cec9" data-original="#d8cec9" class=""></path><path d="m76.753 343.424h68.202v122.163h-68.202z" fill="#365e7d" transform="matrix(.707 .707 -.707 .707 318.497 40.092)" data-original="#365e7d"></path><path d="m83.109 328.08h24.801v122.163h-24.801z" fill="#2b4d66" transform="matrix(.707 .707 -.707 .707 303.153 46.448)" data-original="#2b4d66" class=""></path><circle cx="37.461" cy="477.899" fill="#e04b66" r="34.101" data-original="#e04b66" class=""></circle><path d="m25.312 509.768c-4.375-1.656-8.462-4.243-11.973-7.754-13.316-13.316-13.307-34.913.008-48.229 13.316-13.316 34.905-13.316 48.22 0 3.51 3.51 6.097 7.597 7.754 11.973-12.162-4.631-26.45-2.043-36.248 7.754s-12.384 24.086-7.761 36.256z" fill="#de1d49" data-original="#de1d49"></path><path d="m102.188 461.398-48.226-48.226c-8.777-8.777-23.008-8.777-31.785 0-8.777 8.777-8.777 23.008 0 31.785l48.226 48.226c8.777 8.777 23.008 8.777 31.785 0 8.777-8.777 8.777-23.008 0-31.785z" fill="#ffc250" data-original="#ffc250" class=""></path><path d="m39.991 453.465c0 5.752 2.192 11.503 6.584 15.895l-24.399-24.399c-4.392-4.392-6.584-10.143-6.584-15.895 0-5.751 2.192-11.503 6.584-15.895 8.775-8.775 23.006-8.784 31.79 0l24.399 24.399c-8.776-8.776-23.014-8.775-31.79 0-4.392 4.392-6.584 10.144-6.584 15.895z" fill="#e7a52e" data-original="#e7a52e"></path><path d="m228.241 392.764-105.645-105.645c-8.777-8.777-23.008-8.777-31.785 0-8.777 8.777-8.777 23.008 0 31.785l105.644 105.646c8.777 8.777 23.008 8.777 31.785 0 8.778-8.778 8.778-23.009.001-31.786z" fill="#ffc250" data-original="#ffc250" class=""></path><path d="m117.631 336.402c0 5.751 2.2 11.511 6.584 15.895l-33.405-33.404c-4.384-4.384-6.575-10.135-6.575-15.887 0-5.751 2.192-11.503 6.575-15.886 8.784-8.784 23.006-8.784 31.782-.008l33.405 33.405c-8.776-8.776-23.006-8.784-31.79 0-4.384 4.382-6.576 10.134-6.576 15.885z" fill="#e7a52e" data-original="#e7a52e"></path></g></g></g></svg>