<?xml version="1.0" standalone="no"?>
<!DOCTYPE svg PUBLIC "-//W3C//DTD SVG 20010904//EN"
 "http://www.w3.org/TR/2001/REC-SVG-20010904/DTD/svg10.dtd">
<svg version="1.0" xmlns="http://www.w3.org/2000/svg"
 width="70.000000pt" height="70.000000pt" viewBox="0 0 70.000000 70.000000"
 preserveAspectRatio="xMidYMid meet">
<metadata>
Created by potrace 1.14, written by Peter Selinger 2001-2017
</metadata>
<g transform="translate(0.000000,70.000000) scale(0.100000,-0.100000)"
fill="#000000" stroke="none">
<path d="M133 445 c-13 -13 -23 -36 -23 -50 0 -21 -5 -25 -30 -25 -27 0 -30
-3 -30 -30 0 -26 4 -30 28 -30 16 0 34 -8 42 -20 23 -32 30 -24 30 35 0 46 4
60 25 80 13 14 31 25 40 25 8 0 15 9 15 20 0 30 -67 27 -97 -5z"/>
<path d="M570 440 c0 -27 -3 -30 -30 -30 -16 0 -30 -4 -30 -10 0 -5 9 -10 20
-10 26 0 25 -6 -5 -35 -20 -21 -34 -25 -80 -25 -30 0 -55 -4 -55 -10 0 -5 -13
-10 -30 -10 -21 0 -30 5 -30 16 0 31 -27 44 -94 44 -37 0 -66 -4 -66 -10 0 -5
5 -10 10 -10 6 0 10 -9 10 -20 0 -26 8 -25 31 2 11 11 22 18 27 13 4 -4 1 -10
-5 -12 -20 -7 -15 -23 7 -23 27 0 26 -5 -15 -45 -31 -32 -40 -35 -90 -35 -58
0 -63 -3 -41 -26 17 -16 146 -20 146 -4 0 6 60 10 160 10 100 0 160 -4 160
-10 0 -20 51 -10 75 15 36 35 31 61 -17 107 -26 25 -38 43 -30 45 17 6 15 71
-2 89 -21 21 -26 18 -26 -16z m0 -120 c0 -5 -4 -10 -10 -10 -5 0 -10 5 -10 10
0 6 5 10 10 10 6 0 10 -4 10 -10z"/>
<path d="M310 440 c0 -5 -9 -10 -20 -10 -13 0 -20 -7 -20 -20 0 -16 7 -20 30
-20 27 0 30 3 30 30 0 17 -4 30 -10 30 -5 0 -10 -4 -10 -10z"/>
<path d="M410 430 c0 -16 -7 -20 -30 -20 -16 0 -30 -4 -30 -10 0 -5 14 -10 30
-10 17 0 30 -4 30 -10 0 -5 9 -10 20 -10 13 0 20 7 20 20 0 13 7 20 20 20 13
0 20 7 20 20 0 17 -7 20 -40 20 -33 0 -40 -3 -40 -20z"/>
</g>
</svg>
