<?xml version="1.0" encoding="iso-8859-1"?>
<!-- Generator: Adobe Illustrator 19.0.0, SVG Export Plug-In . SVG Version: 6.00 Build 0)  -->
<svg version="1.1" id="Capa_1" xmlns="http://www.w3.org/2000/svg" xmlns:xlink="http://www.w3.org/1999/xlink" x="0px" y="0px"
	 viewBox="0 0 512.042 512.042" style="enable-background:new 0 0 512.042 512.042;" xml:space="preserve">
<g transform="translate(-1)">
	<g>
		<g>
			<path d="M202.185,222.816c0.177,18.827-6.867,37.006-19.683,50.799h-0.004l-39.328,42.089h113.872V205.441h-56.863
				C201.515,211.136,202.188,216.966,202.185,222.816z M221.198,229.392c0.421-1.129,1.077-2.157,1.924-3.014
				c2.137-2.218,5.259-3.192,8.278-2.581c3.019,0.61,5.517,2.72,6.624,5.594c0.513,1.086,0.764,2.277,0.733,3.478
				c0,5.049-4.093,9.143-9.143,9.143c-5.049,0-9.143-4.093-9.143-9.143C220.483,231.674,220.73,230.492,221.198,229.392z"/>
			<path d="M169.136,261.133c19.685-21.783,19.685-54.931,0-76.714c-8.938-9.899-21.651-15.549-34.989-15.549
				c-13.337,0-26.051,5.65-34.989,15.549c-1.729,1.851-4.148,2.902-6.681,2.902s-4.952-1.051-6.681-2.902
				c-8.889-9.811-21.485-15.445-34.723-15.531c-0.156,0.009-0.295,0.004-0.455,0c-13.263,0.07-25.887,5.705-34.795,15.531
				c-19.762,21.753-19.764,54.959-0.004,76.714l76.661,82.04l23.115-24.737l0.074-0.079l53.472-57.224H169.136z M51.328,205.441
				c-7.571,0.008-13.706,6.143-13.714,13.714c0,0.926,0.091,1.851,0.272,2.759c0.648,3.201-0.462,6.505-2.91,8.666
				c-2.448,2.161-5.864,2.852-8.96,1.813c-3.096-1.04-5.402-3.652-6.05-6.853c-1.908-9.413,0.509-19.185,6.586-26.623
				c6.077-7.438,15.171-11.755,24.776-11.761c5.049,0,9.143,4.093,9.143,9.143C60.47,201.347,56.377,205.441,51.328,205.441z"/>
			<path d="M503.899,205.441H275.328v110.263h228.571c4.738,0.278,8.816-3.31,9.143-8.045v-94.263
				C512.632,208.716,508.591,205.199,503.899,205.441z M348.47,242.012h-45.714c-5.049,0-9.143-4.093-9.143-9.143
				c0-5.049,4.093-9.143,9.143-9.143h45.714c5.049,0,9.143,4.093,9.143,9.143C357.613,237.919,353.52,242.012,348.47,242.012z"/>
		</g>
	</g>
</g>
<g>
</g>
<g>
</g>
<g>
</g>
<g>
</g>
<g>
</g>
<g>
</g>
<g>
</g>
<g>
</g>
<g>
</g>
<g>
</g>
<g>
</g>
<g>
</g>
<g>
</g>
<g>
</g>
<g>
</g>
</svg>
