<?xml version="1.0" encoding="iso-8859-1"?>
<!-- Generator: Adobe Illustrator 19.0.0, SVG Export Plug-In . SVG Version: 6.00 Build 0)  -->
<svg version="1.1" id="Layer_1" xmlns="http://www.w3.org/2000/svg" xmlns:xlink="http://www.w3.org/1999/xlink" x="0px" y="0px"
	 viewBox="0 0 512.001 512.001" style="enable-background:new 0 0 512.001 512.001;" xml:space="preserve">
<g>
	<g>
		<path d="M495.484,239.484h-16.516C470.71,128.826,383.174,41.291,272.517,33.032V16.516C272.517,6.606,265.91,0,256,0
			s-16.516,6.606-16.516,16.516v16.516C128.826,41.291,41.291,128.826,33.032,239.484H16.516C6.606,239.484,0,246.09,0,256
			s6.606,16.516,16.516,16.516h16.516c8.258,110.659,95.794,198.194,206.452,206.452v16.516c0,9.91,6.606,16.516,16.516,16.516
			s16.516-6.607,16.516-16.516v-16.516c110.659-8.258,198.194-95.794,206.452-206.452h16.516c9.91,0,16.516-6.606,16.516-16.516
			S503.742,239.484,495.484,239.484z M399.691,272.517h46.245c-8.258,92.49-80.929,165.161-173.42,173.419V399.69
			c0-9.91-6.606-16.516-16.516-16.516s-16.516,6.606-16.516,16.516v46.245c-92.49-8.258-165.161-80.929-173.42-173.42h46.245
			c9.91,0,16.516-6.606,16.516-16.516s-6.606-16.516-16.516-16.516H66.065c8.258-92.49,80.929-165.161,173.42-173.42v46.245
			c0,9.91,6.606,16.516,16.516,16.516s16.516-6.606,16.516-16.516V66.065c92.49,8.258,165.161,80.929,173.42,173.42h-46.245
			c-9.91,0-16.516,6.606-16.516,16.516S389.781,272.517,399.691,272.517z"/>
	</g>
</g>
<g>
</g>
<g>
</g>
<g>
</g>
<g>
</g>
<g>
</g>
<g>
</g>
<g>
</g>
<g>
</g>
<g>
</g>
<g>
</g>
<g>
</g>
<g>
</g>
<g>
</g>
<g>
</g>
<g>
</g>
</svg>
