<svg id="Layer_3" enable-background="new 0 0 64 64" height="512" viewBox="0 0 64 64" width="512" xmlns="http://www.w3.org/2000/svg"><g><path d="m61 36v5h-2v-5h-2v7h-10v-7h-2v5h-2v-5c0-1.654 1.346-3 3-3h12c1.654 0 3 1.346 3 3zm-22 5v-5h-2v7h-10v-7h-2v5h-2v-5c0-1.654 1.346-3 3-3h12c1.654 0 3 1.346 3 3v5zm-9-13v-2c0-1.103.897-2 2-2s2 .897 2 2v2c0 1.103-.897 2-2 2s-2-.897-2-2zm22-4c1.103 0 2 .897 2 2v2c0 1.103-.897 2-2 2s-2-.897-2-2v-2c0-1.103.897-2 2-2zm-42 2c0-1.103.897-2 2-2s2 .897 2 2v2c0 1.103-.897 2-2 2s-2-.897-2-2zm6 2v-2c0-.536-.11-1.045-.301-1.513l4.618-1.539c.269-.089.487-.289.601-.549s.11-.556-.007-.813l-3.671-8.076 7.246 4.348c.243.146.537.182.808.099s.493-.276.613-.533l6.093-13.06 6.094 13.059c.123.265.355.462.637.54.282.077.582.03.824-.131l6.464-4.31-2.958 8.136c-.093.254-.078.534.039.777.117.242.328.428.584.513l4.618 1.539c-.192.468-.302.977-.302 1.513v2c0 1.201.542 2.266 1.382 3h-3.382c-1.641 0-3.088.806-4 2.031-.912-1.225-2.359-2.031-4-2.031h-3.382c.84-.734 1.382-1.799 1.382-3v-2c0-2.206-1.794-4-4-4s-4 1.794-4 4v2c0 1.201.542 2.266 1.382 3h-3.382c-1.641 0-3.088.806-4 2.031-.912-1.225-2.359-2.031-4-2.031h-3.382c.84-.734 1.382-1.799 1.382-3zm-10 5h12c1.654 0 3 1.346 3 3v5h-2v-5h-2v7h-10v-7h-2v5h-2v-5c0-1.654 1.346-3 3-3zm-2.816 10h1.816v1.816c-.847-.302-1.514-.969-1.816-1.816zm5.816 18h-4v-1c0-.552.448-1 1-1h3zm1-14c-.553 0-1 .447-1 1v9h-2v-12h10v12h-2v-9c0-.553-.447-1-1-1zm9 14h-4v-2h3c.552 0 1 .448 1 1zm0-16.184v-1.816h1.816c-.302.847-.969 1.514-1.816 1.816zm4.184-1.816h1.816v1.816c-.847-.302-1.514-.969-1.816-1.816zm5.816 18h-4v-1c0-.552.448-1 1-1h3zm1-14c-.553 0-1 .447-1 1v9h-2v-12h10v12h-2v-9c0-.553-.447-1-1-1zm9 14h-4v-2h3c.552 0 1 .448 1 1zm0-16.184v-1.816h1.816c-.302.847-.969 1.514-1.816 1.816zm4.184-1.816h1.816v1.816c-.847-.302-1.514-.969-1.816-1.816zm5.816 18h-4v-1c0-.552.448-1 1-1h3zm1-14c-.553 0-1 .447-1 1v9h-2v-12h10v12h-2v-9c0-.553-.447-1-1-1zm9 14h-4v-2h3c.552 0 1 .448 1 1zm0-16.184v-1.816h1.816c-.302.847-.969 1.514-1.816 1.816z"/></g></svg>