<svg id="icons" enable-background="new 0 0 64 64" height="512" viewBox="0 0 64 64" width="512" xmlns="http://www.w3.org/2000/svg"><path d="m60 41.005c-.011 0-.019.006-.029.006h-1.971v-1.091c2.386-1.385 3.997-3.959 4-6.908 0-.001 0-.001 0-.002v-3.004c0-.001 0-.001 0-.002v-1.998c0-4.409-3.589-7.996-8-7.996s-8 3.587-8 7.996v5.004.002c.003 2.949 1.614 5.523 4 6.908v1.091h-1.971c-.011 0-.019-.006-.029-.006-2.198 0-3.986 1.782-3.998 3.978 0 .004-.002.007-.002.011v.011 3.993.013c0 .553.447 1 1 1h18c.553 0 1-.447 1-1v-4.006c0-2.206-1.794-4-4-4zm-6-18.995c3.168 0 5.764 2.468 5.979 5.581l-.246-.244c-.279-.309-.724-.431-1.128-.255-.021.009-2.204.933-4.668.933-2.446 0-4.499-.924-4.52-.934-.401-.184-.853-.069-1.139.236l-.257.259c.217-3.111 2.812-5.576 5.979-5.576zm-6 10.995v-2.563l1.26-1.266c.911.33 2.65.848 4.677.848 2.05 0 3.867-.524 4.799-.849l1.264 1.253v2.577c0 3.307-2.691 5.997-6 5.997s-6-2.69-6-5.997zm6 7.997c.691 0 1.359-.098 2-.264v1.258c0 .408-.779 1.002-2 1.002s-2-.594-2-1.002v-1.258c.641.166 1.309.264 2 .264zm-6.02 2.005c.007 0 .013.004.02.004h2.243c.545 1.167 1.993 1.987 3.757 1.987s3.212-.82 3.757-1.987h2.243c.007 0 .013-.004.02-.004 1.094.011 1.98.901 1.98 1.997v3.006h-16v-3.006c0-1.096.887-1.986 1.98-1.997z"/><path d="m1 49.997h18c.553 0 1-.447 1-1v-4.004c0-2.206-1.794-4-4-4-.011 0-.019.006-.029.006h-1.971v-1.091c2.386-1.384 3.998-3.959 4-6.909v-.001-4.5c0-2.197-.846-4.196-2.219-5.706-.023-.03-.049-.056-.076-.083-1.553-1.663-3.757-2.711-6.206-2.711-4.687 0-8.499 3.813-8.499 8.5v.496c0 .043.02.079.024.12.008.067.018.131.039.193.021.063.049.117.08.173.031.055.063.106.104.154.042.05.09.091.142.132.049.038.097.073.152.103.061.032.124.052.19.071.039.011.07.034.111.041.056.009.103.011.158.019v2.998.001c.002 2.95 1.614 5.525 4 6.909v1.091h-1.971c-.011 0-.019-.006-.029-.006-2.206 0-4 1.794-4 4v4.004c0 .553.447 1 1 1zm14.169-24.67c.331.591.573 1.236.708 1.922-.457-.347-.889-.567-1.312-.694zm-5.67-3.329c1.641 0 3.136.615 4.281 1.621l-1.482 3.017c-.396.117-.806.271-1.242.444-1.66.657-3.918 1.525-8.036 1.032.201-3.404 3.025-6.114 6.479-6.114zm-5.499 10.996v-2.777c3.88.256 6.191-.645 7.792-1.277 1.884-.746 2.446-.961 4.208 1.275v2.779c0 3.307-2.691 5.996-6 5.996s-6-2.689-6-5.996zm6 7.996c.691 0 1.359-.098 2-.263v1.266.001.002c0 .408-.779 1.002-2 1.002s-2-.594-2-1.002v-1.269c.641.166 1.309.263 2 .263zm-6.02 2.005c.007 0 .013.004.02.004h2.238c.54 1.173 1.992 1.999 3.762 1.999s3.222-.826 3.762-1.999h2.238c.007 0 .013-.004.02-.004 1.094.011 1.98.902 1.98 1.998v3.004h-16v-3.004c0-1.096.887-1.987 1.98-1.998z"/><path d="m39 49.997h-2v-2.354c2.984-1.731 5-4.954 5-8.645v-6.002c0-2.414-1.721-4.435-4-4.899v-3.101c0-.553-.447-1-1-1h-6c-4.963 0-9 4.037-9 9v6.051c0 .006.003.011.003.017.024 3.663 2.031 6.858 4.997 8.58v2.353h-2c-3.309 0-6 2.691-6 6v4c0 1.103.897 2 2 2h22c1.103 0 2-.897 2-2v-4c0-3.309-2.691-6-6-6zm-8-24h5v3c0 .553.447 1 1 1 1.654 0 3 1.346 3 3v1.144l-1.44-.973c-.042-.028-.09-.034-.134-.056-.055-.026-.106-.052-.165-.067-.068-.02-.136-.025-.206-.029-.059-.003-.114-.007-.174 0-.07.009-.135.029-.202.053-.04.014-.081.013-.12.031-.019.01-1.881.897-5.059.897-3.277 0-6.156-.939-6.186-.949-.021-.007-.042-.002-.063-.008-.065-.018-.131-.021-.199-.024-.064-.003-.126-.009-.188 0-.06.009-.115.03-.174.049-.065.022-.129.044-.189.079-.02.011-.041.012-.06.024l-1.441.973v-1.144c0-3.859 3.141-7 7-7zm-7 13.002v-2.444l2.166-1.463c1.013.289 3.505.905 6.334.905 2.659 0 4.513-.548 5.383-.872l2.117 1.43v2.444c0 4.41-3.589 7.998-8.001 7.998-4.411 0-7.999-3.588-7.999-7.998zm7.999 9.998c1.045 0 2.053-.162 3.001-.461v2.458c0 1.086-1.374 2.004-3 2.004s-3-.918-3-2.004v-2.458c.947.299 1.954.461 2.999.461zm-6.999 3h2.179c.56 1.721 2.499 3.001 4.821 3.001s4.262-1.28 4.821-3.001h2.179c2.206 0 4 1.794 4 4v4h-21.995c-.002 0-.003-.001-.005-.001v-3.999c0-2.206 1.794-4 4-4z"/><path d="m26 13.012v1h-1c-.553 0-1 .447-1 1s.447 1 1 1h1v1c0 .553.447 1 1 1s1-.447 1-1v-1h1c.553 0 1-.447 1-1s-.447-1-1-1h-1v-1c0-.553-.447-1-1-1s-1 .447-1 1z"/><path d="m35.063 16.009c.552 0 1-.447 1-1s-.448-1-1-1h-.011c-.552 0-.994.447-.994 1s.453 1 1.005 1z"/><path d="m37.063 14.009c.552 0 1-.447 1-1s-.448-1-1-1h-.011c-.552 0-.994.447-.994 1s.453 1 1.005 1z"/><path d="m37.065 16.011h-.011c-.552 0-.994.447-.994 1s.452 1 1.005 1c.552 0 1-.447 1-1s-.448-1-1-1z"/><path d="m39.065 16.011c.552 0 1-.447 1-1s-.448-1-1-1h-.011c-.552 0-.994.447-.994 1s.453 1 1.005 1z"/><path d="m36.98 6c-.004 0-.006.002-.01.002h-2.989c-1.654 0-3 1.346-3 3v.01h-3.981c-3.309 0-6 2.691-6 6s2.691 6 6 6c2.032 0 3.9-1.029 5-2.691 1.1 1.662 2.968 2.691 5 2.691 3.309 0 6-2.691 6-6s-2.691-6-6-6h-4.019v-.01c0-.552.448-1 1-1h2.999c.007 0 .013-.004.02-.004 1.645-.011 2.979-1.35 2.979-2.996 0-1.65-1.34-2.992-2.988-2.997-.004 0-.006-.002-.01-.002h-9.996c-.553 0-1 .447-1 1s.447 1 1 1h9.991c.002 0 .003.001.005.001.551 0 .998.447.998.998s-.448.998-.999.998zm4.02 9.012c0 2.206-1.794 4-4 4-1.586 0-3.023-.942-3.662-2.401-.159-.363-.519-.599-.916-.599h-.844c-.397 0-.757.235-.916.599-.639 1.459-2.076 2.401-3.662 2.401-2.206 0-4-1.794-4-4s1.794-4 4-4h10c2.206 0 4 1.794 4 4z"/></svg>