<svg id="Capa_1" enable-background="new 0 0 512.017 512.017" height="512" viewBox="0 0 512.017 512.017" width="512" xmlns="http://www.w3.org/2000/svg"><path id="XMLID_1481_" d="m148.957 227.023c-35.154 17.144-63.47 46.165-79.73 81.717-2.297 5.022-.088 10.956 4.935 13.253 1.348.617 2.762.909 4.153.909 3.792 0 7.42-2.169 9.1-5.843 14.338-31.35 39.308-56.941 70.309-72.059 4.964-2.421 7.026-8.407 4.605-13.372-2.421-4.964-8.408-7.027-13.372-4.605z"/><path id="XMLID_1520_" d="m512 346.833c0-23.867-8.743-46.825-24.619-64.645l-11.232-12.609c-2.514-2.823-5.118-5.617-7.747-8.376-.549-9.616-2.124-19.198-4.768-28.552l-8.244-29.172c-1.562-5.526-1.635-11.388-.211-16.951l3.144-12.289c2.877-11.246.036-22.969-7.023-31.623l17.257-29.889c1.069-1.851 3.074-2.955 4.995-2.759 14.603 1.524 28.701-6.367 35.065-19.64 7.532-15.708 2.183-34.711-12.442-44.204-6.866-4.456-14.823-6.302-22.646-5.463-3.183-7.194-8.762-13.163-16.054-16.88-15.534-7.919-34.665-3.051-44.502 11.326-8.313 12.148-8.103 28.298.522 40.188 1.133 1.562 1.177 3.854.108 5.705l-17.256 29.889c-11.024-1.786-22.597 1.615-30.898 9.729l-9.07 8.867c-4.107 4.014-9.22 6.882-14.786 8.292l-29.387 7.447c-12.723 3.224-24.834 8.334-35.964 15.03-17.601-2.801-35.525-4.239-53.347-4.239-59.538 0-115.513 23.186-157.612 65.285s-65.283 98.078-65.283 157.616c0 17.497 6.951 33.392 18.221 45.102h-8.221c-4.042 0-7.687 2.434-9.236 6.167-1.549 3.734-.699 8.033 2.156 10.895l47.875 48c1.876 1.881 4.423 2.938 7.08 2.938h396.292c2.658 0 5.207-1.059 7.083-2.941l47.833-48c2.853-2.862 3.702-7.161 2.152-10.894-1.55-3.732-5.194-6.165-9.235-6.165h-28.204c23.208-17.777 38.204-45.761 38.204-77.185zm-82.315-283.282c-3.675-5.066-3.758-11.958-.206-17.149 4.109-6.005 12.417-8.114 18.912-4.803 4.658 2.375 7.679 6.901 8.082 12.108.254 3.289 2.114 6.24 4.971 7.889 2.856 1.648 6.341 1.784 9.317.359 4.709-2.254 10.139-1.901 14.526.945 6.116 3.969 8.442 12.219 5.296 18.78-2.72 5.672-8.729 9.047-14.954 8.396-9.797-1.025-19.366 3.943-24.393 12.65l-16.092 27.871-20.312-11.727 16.091-27.872c5.029-8.704 4.543-19.479-1.238-27.447zm-112.564 101.062 29.387-7.447c8.98-2.276 17.228-6.902 23.853-13.378l9.07-8.868c3.037-2.969 7.063-4.514 11.125-4.514 2.72 0 5.457.693 7.92 2.116l1.258.726 31.773 18.344c6.138 3.547 9.198 10.82 7.441 17.69l-3.144 12.289c-2.296 8.975-2.179 18.432.341 27.348l8.244 29.172c8.312 29.414 4.314 61.464-10.969 87.935-14.417 24.97-37.694 42.832-65.545 50.295-27.85 7.461-56.941 3.632-81.911-10.784-51.547-29.761-69.272-95.91-39.511-147.457 15.283-26.472 41.04-45.959 70.668-53.467zm-16.12 259.405c-5.523 0-10 4.477-10 10s4.477 10 10 10h176.917l-27.903 28h-387.99l-27.927-28h176.902c5.523 0 10-4.477 10-10s-4.477-10-10-10h-145.898c-24.869 0-45.102-20.233-45.102-45.103 0-111.878 91.02-202.897 202.898-202.897 10.173 0 20.382.509 30.538 1.484-9.495 8.903-17.727 19.187-24.304 30.578-17.088 29.597-21.627 64.077-12.782 97.087 8.845 33.011 30.017 60.602 59.613 77.689 20.1 11.604 42.063 17.116 63.758 17.116 44.25 0 87.349-22.95 111.02-63.948 8.336-14.438 13.811-30.29 16.314-46.587l5.393 6.054c12.608 14.153 19.552 32.387 19.552 51.342 0 42.56-34.625 77.185-77.185 77.185z"/><path id="XMLID_1651_" d="m256 424.018c-2.63 0-5.21 1.07-7.07 2.93s-2.93 4.44-2.93 7.07 1.07 5.21 2.93 7.07 4.44 2.93 7.07 2.93 5.21-1.07 7.07-2.93 2.93-4.44 2.93-7.07-1.07-5.21-2.93-7.07c-1.86-1.861-4.44-2.93-7.07-2.93z"/></svg>