<svg height="496pt" viewBox="0 0 496 496" width="496pt" xmlns="http://www.w3.org/2000/svg"><path d="m328 344h-24c-4.417969 0-8 3.582031-8 8s3.582031 8 8 8h24c4.417969 0 8-3.582031 8-8s-3.582031-8-8-8zm0 0"/><path d="m376 344h-24c-4.417969 0-8 3.582031-8 8s3.582031 8 8 8h24c4.417969 0 8-3.582031 8-8s-3.582031-8-8-8zm0 0"/><path d="m424 344h-24c-4.417969 0-8 3.582031-8 8s3.582031 8 8 8h24c4.417969 0 8-3.582031 8-8s-3.582031-8-8-8zm0 0"/><path d="m456 0h-416c-22.082031.0273438-39.9726562 17.917969-40 40v416c.0273438 22.082031 17.917969 39.972656 40 40h416c22.082031-.027344 39.972656-17.917969 40-40v-416c-.027344-22.082031-17.917969-39.9726562-40-40zm24 456c0 13.253906-10.746094 24-24 24h-416c-13.253906 0-24-10.746094-24-24v-416c0-13.253906 10.746094-24 24-24h416c13.253906 0 24 10.746094 24 24zm0 0"/><path d="m456 240h-200v-200c0-4.417969-3.582031-8-8-8s-8 3.582031-8 8v200h-200c-4.417969 0-8 3.582031-8 8s3.582031 8 8 8h200v200c0 4.417969 3.582031 8 8 8s8-3.582031 8-8v-200h200c4.417969 0 8-3.582031 8-8s-3.582031-8-8-8zm0 0"/><path d="m108.054688 127.257812 19.945312-19.945312v92.6875c0 4.417969 3.582031 8 8 8s8-3.582031 8-8v-112c0-3.234375-1.949219-6.152344-4.9375-7.390625s-6.429688-.550781-8.71875 1.734375l-33.601562 33.601562c-3.03125 3.136719-2.988282 8.128907.097656 11.214844 3.085937 3.085938 8.078125 3.128906 11.214844.097656zm0 0"/><path d="m176 324c-1.183594-20.949219-19.042969-37.023438-40-36-20.957031-1.023438-38.816406 15.050781-40 36 0 4.417969 3.582031 8 8 8s8-3.582031 8-8c1.214844-12.089844 11.886719-20.984375 24-20 12.113281-.984375 22.785156 7.910156 24 20-1.214844 12.089844-11.886719 20.984375-24 20-4.417969 0-8 3.582031-8 8s3.582031 8 8 8c12.113281-.984375 22.785156 7.910156 24 20-1.214844 12.089844-11.886719 20.984375-24 20-12.113281.984375-22.785156-7.910156-24-20 0-4.417969-3.582031-8-8-8s-8 3.582031-8 8c1.183594 20.949219 19.042969 37.023438 40 36 20.957031 1.023438 38.816406-15.050781 40-36-.164062-11.1875-5.707031-21.609375-14.886719-28 9.179688-6.390625 14.722657-16.8125 14.886719-28zm0 0"/><path d="m326.398438 129.601562c4.417968 0 8-3.582031 8-8 0-14.140624 11.464843-25.601562 25.601562-25.601562 8.246094-.191406 15.929688 4.164062 20 11.335938 4.367188 7.789062 4.230469 17.320312-.351562 24.984374-11.738282 17.066407-25.761719 32.449219-41.671876 45.710938-6.046874 5.601562-11.9375 11.015625-17.234374 16.3125-2.285157 2.289062-2.96875 5.730469-1.730469 8.71875s4.152343 4.9375 7.386719 4.9375h65.601562c4.417969 0 8-3.582031 8-8s-3.582031-8-8-8h-45.601562l2.402343-2.207031c17.101563-14.273438 32.113281-30.878907 44.589844-49.328125 7.503906-12.609375 7.6875-28.269532.480469-41.050782-6.917969-12.148437-19.890625-19.582031-33.871094-19.414062-22.964844.023438-41.578125 18.632812-41.601562 41.601562 0 4.417969 3.582031 8 8 8zm0 0"/></svg>